{
.appVersion = "1267";
DisplayStrings = (
"B/Be-cy T/Ge-cy/Gheupturn-cy/De-cy/Zhe-cy/Ze-cy/Ii-cy/Ka-cy/El-cy/Pe-cy/U-cy/Ef-cy/Che-cy/Tse-cy/Sha-cy/Shcha-cy/Dzhe-cy/Softsign-cy/Hardsign-cy/Yeru-cy/Lje-cy/Nje-cy/E-cy/Ereversed-cy/Tshe-cy/Iu-cy/Ia-cy/Dje-cy/Yat-cy/Yusbig-cy/Izhitsa-cy/Ghestroke-cy/Ghemiddlehook-cy/Kaverticalstroke-cy/Kastroke-cy/Enghe-cy/Haabkhasian-cy/Tedescender-cy/Tetse-cy/Cheverticalstroke-cy/Shha-cy/Cheabkhasian-cy/Kahook-cy/Enhook-cy/Dzeabkhasian-cy/Gestrokehook-cy/Hahook-cy/Reversedze-cy/Elhook-cy/Semisoftsign-cy/Ertick-cy/EnLeftHook-cy",
"A/Aogonek ÆBCDÐE/Eogonek FGH/Hbar I/Iogonek/I_J.loclNLD JKL/Lcaron/Ldot/Lslash MN/Eng OØ/Ohorn/Oogonek/OE PÞQRS/Germandbls/Schwa T/Tbar U/Uogonek/Uhorn VWXYZ",
"a/aogonek æ/a.ss01 bcd/dcaron/dcroat/hbar ðe/eogonek fgh/hbar i/idotless/iogonek/i_j.loclNLD j/jdotless k/kgreenlandic l/ldot/lcaron/lslash mn/eng o/oogonek/_part.oslash/_part.oslash ø/ohorn/oe pþqrsß/schwa t/tbar/tcaron u/uogonek/uhorn vwxyztztznftz",

glyphs = (
{
color = 5;
glyphname = A;
lastChange = "2019-10-11 14:01:53 +0000";
layers = (
{
anchors = (
{
name = bottom;
position = "{383, 0}";
},
{
name = ogonek;
position = "{710, 0}";
},
{
name = top;
position = "{383, 705}";
}
);
background = {
anchors = (
{
name = bottom;
position = "{373, 0}";
},
{
name = ogonek;
position = "{696, 0}";
},
{
name = top;
position = "{373, 705}";
}
);
paths = (
{
closed = 1;
nodes = (
"695 0 LINE",
"392 705 LINE",
"352 705 LINE",
"49 0 LINE",
"95 0 LINE",
"183 204 LINE",
"155 195 LINE",
"591 195 LINE",
"563 204 LINE",
"650 0 LINE"
);
},
{
closed = 1;
nodes = (
"386 680 LINE",
"359 680 LINE",
"552 228 LINE",
"574 234 LINE",
"172 234 LINE",
"193 228 LINE"
);
}
);
};
layerId = "B0DFB0A8-5D2F-4351-A1F8-6629D0DA694C";
paths = (
{
closed = 1;
nodes = (
"407 705 LINE",
"357 705 LINE",
"54 0 LINE",
"110 0 LINE",
"198 204 LINE",
"165 190 LINE",
"601 190 LINE",
"568 204 LINE",
"655 0 LINE",
"710 0 LINE"
);
},
{
closed = 1;
nodes = (
"584 240 LINE",
"182 240 LINE",
"208 228 LINE",
"381 633 LINE",
"385 633 LINE",
"557 228 LINE"
);
}
);
width = 764;
},
{
anchors = (
{
name = bottom;
position = "{419, 0}";
},
{
name = ogonek;
position = "{754, 0}";
},
{
name = top;
position = "{419, 705}";
}
);
background = {
anchors = (
{
name = bottom;
position = "{410, 0}";
},
{
name = ogonek;
position = "{745, 0}";
},
{
name = top;
position = "{409, 705}";
}
);
paths = (
{
closed = 1;
nodes = (
"829 0 LINE",
"494 705 LINE",
"325 705 LINE",
"-10 0 LINE",
"206 0 LINE",
"288 191 LINE",
"208 135 LINE",
"615 135 LINE",
"535 191 LINE",
"618 0 LINE"
);
},
{
closed = 1;
nodes = (
"430 530 LINE",
"394 530 LINE",
"515 238 LINE",
"546 295 LINE",
"278 295 LINE",
"308 238 LINE"
);
}
);
};
guideLines = (
{
angle = 67.0891;
position = "{50, 388}";
},
{
angle = -67.0891;
position = "{496, 265}";
}
);
layerId = "443F1CD3-8514-4C65-8D84-A41CDF68FD19";
paths = (
{
closed = 1;
nodes = (
"518 705 LINE",
"321 705 LINE",
"-10 0 LINE",
"222 0 LINE",
"303 191 LINE",
"218 102 LINE",
"625 102 LINE",
"541 191 LINE",
"622 0 LINE",
"849 0 LINE"
);
},
{
closed = 1;
nodes = (
"556 282 LINE",
"288 282 LINE",
"313 236 LINE",
"419 490 LINE",
"427 490 LINE",
"531 236 LINE"
);
}
);
width = 839;
},
{
anchors = (
{
name = bottom;
position = "{400, 0}";
},
{
name = ogonek;
position = "{731, 0}";
},
{
name = top;
position = "{400, 705}";
}
);
layerId = "083469E7-71E8-468C-B15D-61E35EC0B921";
paths = (
{
closed = 1;
nodes = (
"460 705 LINE",
"340 705 LINE",
"24 0 LINE",
"163 0 LINE",
"248 198 LINE",
"190 148 LINE",
"612 148 LINE",
"555 198 LINE",
"639 0 LINE",
"776 0 LINE"
);
},
{
closed = 1;
nodes = (
"571 260 LINE",
"232 260 LINE",
"258 232 LINE",
"399 565 LINE",
"405 565 LINE",
"545 232 LINE"
);
}
);
width = 799.54913;
}
);
leftKerningGroup = A;
rightKerningGroup = A;
unicode = 0041;
userData = {
anchors = (
);
b = {
};
com.typemytype.robofont.layerData = {
b = {
anchors = (
);
components = (
);
contours = (
{
points = (
{
segmentType = line;
smooth = 0;
x = 403;
y = 502;
},
{
segmentType = line;
smooth = 0;
x = 703;
y = 1275;
},
{
segmentType = line;
smooth = 0;
x = 705;
y = 1275;
},
{
segmentType = line;
smooth = 0;
x = 1004;
y = 502;
}
);
},
{
points = (
{
segmentType = curve;
smooth = 1;
x = 150;
y = 0;
},
{
smooth = 0;
x = 181;
y = 0;
},
{
smooth = 0;
x = 214;
y = 15;
},
{
segmentType = curve;
smooth = 1;
x = 229;
y = 53;
},
{
segmentType = line;
smooth = 0;
x = 356;
y = 373;
},
{
segmentType = line;
smooth = 0;
x = 1051;
y = 373;
},
{
segmentType = line;
smooth = 1;
x = 1179;
y = 53;
},
{
smooth = 0;
x = 1193;
y = 17;
},
{
smooth = 0;
x = 1228;
y = 0;
},
{
segmentType = curve;
smooth = 1;
x = 1260;
y = 0;
},
{
smooth = 0;
x = 1306;
y = 0;
},
{
smooth = 0;
x = 1354;
y = 31;
},
{
segmentType = curve;
smooth = 1;
x = 1354;
y = 80;
},
{
smooth = 0;
x = 1354;
y = 87;
},
{
smooth = 0;
x = 1352;
y = 97;
},
{
segmentType = curve;
smooth = 0;
x = 1349;
y = 108;
},
{
segmentType = line;
smooth = 1;
x = 871;
y = 1288;
},
{
smooth = 0;
x = 817;
y = 1420;
},
{
smooth = 0;
x = 777;
y = 1430;
},
{
segmentType = curve;
smooth = 1;
x = 710;
y = 1430;
},
{
smooth = 0;
x = 644;
y = 1430;
},
{
smooth = 0;
x = 596;
y = 1413;
},
{
segmentType = curve;
smooth = 1;
x = 542;
y = 1280;
},
{
segmentType = line;
smooth = 1;
x = 66;
y = 108;
},
{
smooth = 0;
x = 62;
y = 97;
},
{
smooth = 0;
x = 60;
y = 87;
},
{
segmentType = curve;
smooth = 1;
x = 60;
y = 78;
},
{
smooth = 0;
x = 60;
y = 32;
},
{
smooth = 0;
x = 106;
y = 0;
}
);
}
);
lib = {
};
name = A;
unicodes = (
);
width = 1414;
};
};
components = (
);
contours = {
};
lib = {
};
name = A;
points = {
};
segmentType = line;
unicodes = (
);
width = 1445;
x = 718;
y = 1232;
};
},
{
color = 5;
glyphname = AE;
lastChange = "2019-10-11 14:01:53 +0000";
layers = (
{
anchors = (
{
name = bottom;
position = "{508, 0}";
},
{
name = top;
position = "{507, 705}";
}
);
background = {
anchors = (
{
name = bottom;
position = "{498, 0}";
},
{
name = top;
position = "{497, 705}";
}
);
paths = (
{
closed = 1;
nodes = (
"932 705 LINE",
"433 705 LINE",
"13 0 LINE",
"60 0 LINE",
"183 208 LINE",
"154 195 LINE",
"559 195 LINE",
"538 207 LINE",
"581 0 LINE",
"932 0 LINE",
"932 39 LINE",
"597 39 LINE",
"618 20 LINE",
"549 348 LINE",
"526 338 LINE",
"912 338 LINE",
"912 377 LINE",
"518 377 LINE",
"545 366 LINE",
"477 690 LINE",
"470 666 LINE",
"932 666 LINE"
);
},
{
closed = 1;
nodes = (
"461 676 LINE",
"439 676 LINE",
"534 225 LINE",
"541 234 LINE",
"164 234 LINE",
"193 225 LINE"
);
}
);
};
guideLines = (
{
angle = 101.863;
position = "{510, 338}";
},
{
angle = 101.863;
position = "{545, 413}";
}
);
layerId = "B0DFB0A8-5D2F-4351-A1F8-6629D0DA694C";
paths = (
{
closed = 1;
nodes = (
"70 0 LINE",
"193 208 LINE",
"164 190 LINE",
"569 190 LINE",
"548 207 LINE",
"591 0 LINE",
"952 0 LINE",
"952 50 LINE",
"607 50 LINE",
"638 20 LINE",
"569 348 LINE",
"536 332 LINE",
"932 332 LINE",
"932 382 LINE",
"528 382 LINE",
"565 366 LINE",
"498 690 LINE",
"480 655 LINE",
"952 655 LINE",
"952 705 LINE",
"422 705 LINE",
"12 0 LINE"
);
},
{
closed = 1;
nodes = (
"203 225 LINE",
"449 655 LINE",
"454 655 LINE",
"544 225 LINE",
"551 240 LINE",
"174 240 LINE"
);
}
);
width = 1042;
},
{
anchors = (
{
name = bottom;
position = "{527, 0}";
},
{
name = top;
position = "{528, 705}";
}
);
background = {
anchors = (
{
name = bottom;
position = "{517, 0}";
},
{
name = top;
position = "{518, 705}";
}
);
paths = (
{
closed = 1;
nodes = (
"989 705 LINE",
"410 705 LINE",
"-46 0 LINE",
"188 0 LINE",
"298 186 LINE",
"212 135 LINE",
"590 135 LINE",
"519 194 LINE",
"564 0 LINE",
"989 0 LINE",
"989 164 LINE",
"664 164 LINE",
"735 109 LINE",
"683 335 LINE",
"641 277 LINE",
"969 277 LINE",
"969 441 LINE",
"604 441 LINE",
"672 381 LINE",
"625 584 LINE",
"574 541 LINE",
"989 541 LINE"
);
},
{
closed = 1;
nodes = (
"496 523 LINE",
"447 523 LINE",
"511 235 LINE",
"559 293 LINE",
"313 293 LINE",
"332 243 LINE"
);
}
);
};
guideLines = (
{
angle = 102.61;
position = "{506, 262}";
},
{
angle = 102.61;
position = "{720, 261}";
}
);
layerId = "443F1CD3-8514-4C65-8D84-A41CDF68FD19";
paths = (
{
closed = 1;
nodes = (
"198 0 LINE",
"308 186 LINE",
"222 98 LINE",
"600 98 LINE",
"531 194 LINE",
"574 0 LINE",
"999 0 LINE",
"999 176 LINE",
"664 176 LINE",
"762 109 LINE",
"711 335 LINE",
"641 270 LINE",
"979 270 LINE",
"979 442 LINE",
"604 442 LINE",
"701 381 LINE",
"656 584 LINE",
"584 529 LINE",
"999 529 LINE",
"999 705 LINE",
"388 705 LINE",
"-54 0 LINE"
);
},
{
closed = 1;
nodes = (
"325 243 LINE",
"460 484 LINE",
"468 484 LINE",
"522 235 LINE",
"569 278 LINE",
"323 278 LINE"
);
}
);
width = 1072;
},
{
anchors = (
{
name = bottom;
position = "{517.006, 0}";
},
{
name = top;
position = "{517, 705}";
}
);
layerId = "083469E7-71E8-468C-B15D-61E35EC0B921";
paths = (
{
closed = 1;
nodes = (
"131 0 LINE",
"248 198 LINE",
"191 146 LINE",
"584 146 LINE",
"540 201 LINE",
"583 0 LINE",
"974 0 LINE",
"974 110 LINE",
"634 110 LINE",
"697 62 LINE",
"636 342 LINE",
"586 303 LINE",
"954 303 LINE",
"954 410 LINE",
"564 410 LINE",
"629 373 LINE",
"573 640 LINE",
"529 595 LINE",
"974 595 LINE",
"974 705 LINE",
"406 705 LINE",
"-19 0 LINE"
);
},
{
closed = 1;
nodes = (
"261 234 LINE",
"454 574 LINE",
"461 574 LINE",
"534 230 LINE",
"560 258 LINE",
"245 258 LINE"
);
}
);
width = 1056.21965;
}
);
leftKerningGroup = A;
rightKerningGroup = E;
rightMetricsKey = E;
unicode = 00C6;
userData = {
com.typemytype.robofont.layerData = {
b = {
anchors = (
);
components = (
);
contours = (
);
lib = {
};
name = AE;
unicodes = (
);
width = 1976;
};
};
};
},
{
color = 5;
glyphname = B;
lastChange = "2019-10-11 14:01:53 +0000";
layers = (
{
anchors = (
{
name = bottom;
position = "{373, 0}";
},
{
name = top;
position = "{372, 705}";
}
);
background = {
paths = (
{
closed = 1;
nodes = (
"545 372 OFFCURVE",
"605 431 OFFCURVE",
"605 520 CURVE SMOOTH",
"605 641 OFFCURVE",
"524 705 OFFCURVE",
"382 705 CURVE SMOOTH",
"116 705 LINE",
"116 0 LINE",
"393 0 LINE SMOOTH",
"539 0 OFFCURVE",
"621 65 OFFCURVE",
"621 191 CURVE SMOOTH",
"621 292 OFFCURVE",
"556 357 OFFCURVE",
"459 367 CURVE",
"459 353 LINE"
);
},
{
closed = 1;
nodes = (
"501 659 OFFCURVE",
"556 619 OFFCURVE",
"556 526 CURVE SMOOTH",
"556 430 OFFCURVE",
"497 380 OFFCURVE",
"377 380 CURVE SMOOTH",
"164 380 LINE",
"164 659 LINE",
"377 659 LINE SMOOTH"
);
},
{
closed = 1;
nodes = (
"164 46 LINE",
"164 334 LINE",
"392 334 LINE SMOOTH",
"510 334 OFFCURVE",
"572 286 OFFCURVE",
"572 186 CURVE SMOOTH",
"572 86 OFFCURVE",
"517 46 OFFCURVE",
"392 46 CURVE SMOOTH"
);
}
);
};
layerId = "B0DFB0A8-5D2F-4351-A1F8-6629D0DA694C";
paths = (
{
closed = 1;
nodes = (
"570 376 OFFCURVE",
"623 431 OFFCURVE",
"623 520 CURVE SMOOTH",
"623 641 OFFCURVE",
"542 705 OFFCURVE",
"400 705 CURVE SMOOTH",
"122 705 LINE",
"122 0 LINE",
"411 0 LINE SMOOTH",
"557 0 OFFCURVE",
"639 65 OFFCURVE",
"639 191 CURVE SMOOTH",
"639 293 OFFCURVE",
"570 350 OFFCURVE",
"508 360 CURVE",
"508 364 LINE"
);
},
{
closed = 1;
nodes = (
"516 655 OFFCURVE",
"570 611 OFFCURVE",
"570 526 CURVE SMOOTH",
"570 430 OFFCURVE",
"511 382 OFFCURVE",
"395 382 CURVE SMOOTH",
"174 382 LINE",
"174 655 LINE",
"395 655 LINE SMOOTH"
);
},
{
closed = 1;
nodes = (
"174 50 LINE",
"174 332 LINE",
"410 332 LINE SMOOTH",
"524 332 OFFCURVE",
"586 286 OFFCURVE",
"586 186 CURVE SMOOTH",
"586 98 OFFCURVE",
"533 50 OFFCURVE",
"410 50 CURVE SMOOTH"
);
}
);
width = 732;
},
{
anchors = (
{
name = bottom;
position = "{378, 0}";
},
{
name = top;
position = "{378, 705}";
}
);
background = {
paths = (
{
closed = 1;
nodes = (
"637 385 OFFCURVE",
"687 444 OFFCURVE",
"687 523 CURVE SMOOTH",
"687 640 OFFCURVE",
"592 705 OFFCURVE",
"422 705 CURVE SMOOTH",
"70 705 LINE",
"70 0 LINE",
"431 0 LINE SMOOTH",
"607 0 OFFCURVE",
"706 70 OFFCURVE",
"706 194 CURVE SMOOTH",
"706 290 OFFCURVE",
"652 355 OFFCURVE",
"555 375 CURVE",
"555 358 LINE"
);
},
{
closed = 1;
nodes = (
"462 533 OFFCURVE",
"482 517 OFFCURVE",
"482 484 CURVE SMOOTH",
"482 451 OFFCURVE",
"462 435 OFFCURVE",
"413 435 CURVE SMOOTH",
"286 435 LINE",
"286 533 LINE",
"413 533 LINE SMOOTH"
);
},
{
closed = 1;
nodes = (
"286 172 LINE",
"286 272 LINE",
"432 272 LINE SMOOTH",
"473 272 OFFCURVE",
"501 256 OFFCURVE",
"501 222 CURVE SMOOTH",
"501 188 OFFCURVE",
"473 172 OFFCURVE",
"432 172 CURVE SMOOTH"
);
}
);
};
layerId = "443F1CD3-8514-4C65-8D84-A41CDF68FD19";
paths = (
{
closed = 1;
nodes = (
"668 395 OFFCURVE",
"717 444 OFFCURVE",
"717 523 CURVE SMOOTH",
"717 640 OFFCURVE",
"612 705 OFFCURVE",
"442 705 CURVE SMOOTH",
"80 705 LINE",
"80 0 LINE",
"451 0 LINE SMOOTH",
"627 0 OFFCURVE",
"736 80 OFFCURVE",
"736 204 CURVE SMOOTH",
"736 300 OFFCURVE",
"679 345 OFFCURVE",
"618 364 CURVE",
"618 372 LINE"
);
},
{
closed = 1;
nodes = (
"483 541 OFFCURVE",
"503 522 OFFCURVE",
"503 487 CURVE SMOOTH",
"503 454 OFFCURVE",
"483 433 OFFCURVE",
"434 433 CURVE SMOOTH",
"295 433 LINE",
"295 541 LINE",
"434 541 LINE SMOOTH"
);
},
{
closed = 1;
nodes = (
"295 164 LINE",
"295 274 LINE",
"453 274 LINE SMOOTH",
"494 274 OFFCURVE",
"522 253 OFFCURVE",
"522 219 CURVE SMOOTH",
"522 185 OFFCURVE",
"494 164 OFFCURVE",
"453 164 CURVE SMOOTH"
);
}
);
width = 790;
},
{
anchors = (
{
name = bottom;
position = "{375, 0}";
},
{
name = top;
position = "{375, 705}";
}
);
layerId = "083469E7-71E8-468C-B15D-61E35EC0B921";
paths = (
{
closed = 1;
nodes = (
"616 385 OFFCURVE",
"668 437 OFFCURVE",
"668 521 CURVE SMOOTH",
"668 641 OFFCURVE",
"575 705 OFFCURVE",
"420 705 CURVE SMOOTH",
"102 705 LINE",
"102 0 LINE",
"430 0 LINE SMOOTH",
"590 0 OFFCURVE",
"685 72 OFFCURVE",
"685 197 CURVE SMOOTH",
"685 296 OFFCURVE",
"622 348 OFFCURVE",
"560 362 CURVE",
"560 368 LINE"
);
},
{
closed = 1;
nodes = (
"500 601 OFFCURVE",
"538 569 OFFCURVE",
"538 508 CURVE SMOOTH",
"538 441 OFFCURVE",
"498 406 OFFCURVE",
"413 406 CURVE SMOOTH",
"231 406 LINE",
"231 601 LINE",
"413 601 LINE SMOOTH"
);
},
{
closed = 1;
nodes = (
"231 104 LINE",
"231 305 LINE",
"430 305 LINE SMOOTH",
"510 305 OFFCURVE",
"556 270 OFFCURVE",
"556 202 CURVE SMOOTH",
"556 139 OFFCURVE",
"515 104 OFFCURVE",
"430 104 CURVE SMOOTH"
);
}
);
width = 759.49133;
}
);
leftKerningGroup = H;
leftMetricsKey = H;
rightKerningGroup = B;
unicode = 0042;
userData = {
anchors = (
);
b = {
};
com.typemytype.robofont.layerData = {
b = {
anchors = (
);
components = (
);
contours = (
{
points = (
{
segmentType = curve;
smooth = 1;
x = 266;
y = 0;
},
{
segmentType = line;
smooth = 1;
x = 1035;
y = 0;
},
{
smooth = 0;
x = 1084;
y = 0;
},
{
smooth = 0;
x = 1108;
y = 36;
},
{
segmentType = curve;
smooth = 1;
x = 1108;
y = 73;
},
{
smooth = 0;
x = 1108;
y = 109;
},
{
smooth = 0;
x = 1084;
y = 145;
},
{
segmentType = curve;
smooth = 1;
x = 1035;
y = 145;
},
{
segmentType = line;
smooth = 0;
x = 353;
y = 145;
},
{
segmentType = line;
smooth = 0;
x = 353;
y = 662;
},
{
segmentType = line;
smooth = 1;
x = 975;
y = 662;
},
{
smooth = 0;
x = 1024;
y = 662;
},
{
smooth = 0;
x = 1049;
y = 698;
},
{
segmentType = curve;
smooth = 1;
x = 1049;
y = 734;
},
{
smooth = 0;
x = 1049;
y = 770;
},
{
smooth = 0;
x = 1026;
y = 806;
},
{
segmentType = curve;
smooth = 1;
x = 975;
y = 806;
},
{
segmentType = line;
smooth = 0;
x = 353;
y = 806;
},
{
segmentType = line;
smooth = 0;
x = 353;
y = 1281;
},
{
segmentType = line;
smooth = 1;
x = 1007;
y = 1281;
},
{
smooth = 0;
x = 1056;
y = 1281;
},
{
smooth = 0;
x = 1080;
y = 1317;
},
{
segmentType = curve;
smooth = 1;
x = 1080;
y = 1354;
},
{
smooth = 0;
x = 1080;
y = 1390;
},
{
smooth = 0;
x = 1056;
y = 1426;
},
{
segmentType = curve;
smooth = 1;
x = 1007;
y = 1426;
},
{
segmentType = line;
smooth = 1;
x = 261;
y = 1426;
},
{
smooth = 0;
x = 213;
y = 1426;
},
{
smooth = 0;
x = 178;
y = 1383;
},
{
segmentType = curve;
smooth = 1;
x = 178;
y = 1340;
},
{
segmentType = line;
smooth = 1;
x = 178;
y = 86;
},
{
smooth = 0;
x = 178;
y = 41;
},
{
smooth = 0;
x = 222;
y = 0;
}
);
}
);
lib = {
};
name = B;
unicodes = (
);
width = 1292;
};
};
components = (
);
contours = {
};
lib = {
};
name = B;
points = {
};
segmentType = curve;
unicodes = (
);
width = 1395;
x = 676;
y = 1260;
};
},
{
color = 5;
glyphname = C;
lastChange = "2019-10-11 14:01:53 +0000";
layers = (
{
anchors = (
{
name = bottom;
position = "{402, 0}";
},
{
name = top;
position = "{404, 705}";
}
);
background = {
paths = (
{
closed = 1;
nodes = (
"503 -8 OFFCURVE",
"585 24 OFFCURVE",
"643 87 CURVE",
"621 122 LINE",
"558 59 OFFCURVE",
"492 33 OFFCURVE",
"404 33 CURVE SMOOTH",
"232 33 OFFCURVE",
"136 150 OFFCURVE",
"136 353 CURVE SMOOTH",
"136 555 OFFCURVE",
"232 672 OFFCURVE",
"404 672 CURVE SMOOTH",
"492 672 OFFCURVE",
"558 646 OFFCURVE",
"621 583 CURVE",
"643 618 LINE",
"585 681 OFFCURVE",
"503 713 OFFCURVE",
"405 713 CURVE SMOOTH",
"207 713 OFFCURVE",
"91 576 OFFCURVE",
"91 353 CURVE SMOOTH",
"91 129 OFFCURVE",
"207 -8 OFFCURVE",
"405 -8 CURVE SMOOTH"
);
}
);
};
layerId = "B0DFB0A8-5D2F-4351-A1F8-6629D0DA694C";
paths = (
{
closed = 1;
nodes = (
"501 -8 OFFCURVE",
"582 24 OFFCURVE",
"643 87 CURVE",
"617 127 LINE",
"553 68 OFFCURVE",
"488 43 OFFCURVE",
"402 43 CURVE SMOOTH",
"241 43 OFFCURVE",
"144 150 OFFCURVE",
"144 353 CURVE SMOOTH",
"144 555 OFFCURVE",
"240 662 OFFCURVE",
"402 662 CURVE SMOOTH",
"488 662 OFFCURVE",
"553 637 OFFCURVE",
"617 578 CURVE",
"643 618 LINE",
"582 681 OFFCURVE",
"501 713 OFFCURVE",
"403 713 CURVE SMOOTH",
"207 713 OFFCURVE",
"89 577 OFFCURVE",
"89 353 CURVE SMOOTH",
"89 128 OFFCURVE",
"208 -8 OFFCURVE",
"403 -8 CURVE SMOOTH"
);
}
);
width = 717;
},
{
anchors = (
{
name = bottom;
position = "{421, 0}";
},
{
name = top;
position = "{420, 705}";
}
);
background = {
paths = (
{
closed = 1;
nodes = (
"207 715 OFFCURVE",
"50 580 OFFCURVE",
"50 350 CURVE SMOOTH",
"50 121 OFFCURVE",
"206 -12 OFFCURVE",
"431 -12 CURVE SMOOTH",
"531 -12 OFFCURVE",
"617 8 OFFCURVE",
"669 52 CURVE",
"604 231 LINE",
"546 194 OFFCURVE",
"497 185 OFFCURVE",
"442 185 CURVE SMOOTH",
"348 185 OFFCURVE",
"280 233 OFFCURVE",
"280 350 CURVE SMOOTH",
"280 467 OFFCURVE",
"349 518 OFFCURVE",
"442 518 CURVE SMOOTH",
"497 518 OFFCURVE",
"546 509 OFFCURVE",
"604 472 CURVE",
"669 651 LINE",
"617 695 OFFCURVE",
"531 715 OFFCURVE",
"431 715 CURVE SMOOTH"
);
}
);
};
layerId = "443F1CD3-8514-4C65-8D84-A41CDF68FD19";
paths = (
{
closed = 1;
nodes = (
"541 -13 OFFCURVE",
"627 8 OFFCURVE",
"679 52 CURVE",
"614 224 LINE",
"556 187 OFFCURVE",
"507 178 OFFCURVE",
"452 178 CURVE SMOOTH",
"354 178 OFFCURVE",
"288 237 OFFCURVE",
"288 354 CURVE SMOOTH",
"288 471 OFFCURVE",
"358 526 OFFCURVE",
"452 526 CURVE SMOOTH",
"507 526 OFFCURVE",
"556 517 OFFCURVE",
"614 480 CURVE",
"679 653 LINE",
"627 697 OFFCURVE",
"541 717 OFFCURVE",
"441 717 CURVE SMOOTH",
"216 717 OFFCURVE",
"60 582 OFFCURVE",
"60 353 CURVE SMOOTH",
"60 123 OFFCURVE",
"217 -13 OFFCURVE",
"441 -13 CURVE SMOOTH"
);
}
);
width = 735;
},
{
anchors = (
{
name = bottom;
position = "{411.006, 0}";
},
{
name = top;
position = "{412, 705}";
}
);
layerId = "083469E7-71E8-468C-B15D-61E35EC0B921";
paths = (
{
closed = 1;
nodes = (
"520 -10 OFFCURVE",
"603 16 OFFCURVE",
"660 70 CURVE",
"616 173 LINE",
"554 124 OFFCURVE",
"497 107 OFFCURVE",
"426 107 CURVE SMOOTH",
"295 107 OFFCURVE",
"212 191 OFFCURVE",
"212 353 CURVE SMOOTH",
"212 515 OFFCURVE",
"296 598 OFFCURVE",
"426 598 CURVE SMOOTH",
"497 598 OFFCURVE",
"554 580 OFFCURVE",
"616 532 CURVE",
"660 635 LINE",
"603 689 OFFCURVE",
"520 715 OFFCURVE",
"421 715 CURVE SMOOTH",
"211 715 OFFCURVE",
"75 579 OFFCURVE",
"75 353 CURVE SMOOTH",
"75 126 OFFCURVE",
"212 -10 OFFCURVE",
"421 -10 CURVE SMOOTH"
);
}
);
width = 725.53179;
}
);
leftKerningGroup = O;
leftMetricsKey = O;
rightKerningGroup = C;
unicode = 0043;
userData = {
anchors = (
);
b = {
};
com.typemytype.robofont.layerData = {
b = {
anchors = (
);
components = (
);
contours = (
);
lib = {
};
name = C;
unicodes = (
);
width = 1353.89001;
};
};
components = (
);
contours = (
);
lib = {
};
name = C;
unicodes = (
);
width = 1354;
};
},
{
color = 5;
glyphname = D;
lastChange = "2019-10-11 14:03:33 +0000";
layers = (
{
anchors = (
{
name = bottom;
position = "{399, 0}";
},
{
name = center;
position = "{209, 358}";
},
{
name = top;
position = "{398, 705}";
}
);
background = {
anchors = (
{
name = bottom;
position = "{389, 0}";
},
{
name = center;
position = "{199, 358}";
},
{
name = top;
position = "{388, 705}";
}
);
paths = (
{
closed = 1;
nodes = (
"339 0 LINE SMOOTH",
"559 0 OFFCURVE",
"684 127 OFFCURVE",
"684 353 CURVE SMOOTH",
"684 579 OFFCURVE",
"561 705 OFFCURVE",
"339 705 CURVE SMOOTH",
"122 705 LINE",
"122 0 LINE"
);
},
{
closed = 1;
nodes = (
"164 666 LINE",
"338 666 LINE SMOOTH",
"538 666 OFFCURVE",
"639 561 OFFCURVE",
"639 353 CURVE SMOOTH",
"639 145 OFFCURVE",
"537 39 OFFCURVE",
"338 39 CURVE SMOOTH",
"164 39 LINE"
);
}
);
};
layerId = "B0DFB0A8-5D2F-4351-A1F8-6629D0DA694C";
paths = (
{
closed = 1;
nodes = (
"349 0 LINE SMOOTH",
"569 0 OFFCURVE",
"694 127 OFFCURVE",
"694 353 CURVE SMOOTH",
"694 579 OFFCURVE",
"571 705 OFFCURVE",
"349 705 CURVE SMOOTH",
"122 705 LINE",
"122 0 LINE"
);
},
{
closed = 1;
nodes = (
"174 655 LINE",
"348 655 LINE SMOOTH",
"538 655 OFFCURVE",
"639 561 OFFCURVE",
"639 353 CURVE SMOOTH",
"639 145 OFFCURVE",
"537 50 OFFCURVE",
"348 50 CURVE SMOOTH",
"174 50 LINE"
);
}
);
width = 783;
},
{
anchors = (
{
name = bottom;
position = "{414, 0}";
},
{
name = center;
position = "{237, 358}";
},
{
name = top;
position = "{414, 705}";
}
);
background = {
anchors = (
{
name = bottom;
position = "{404, 0}";
},
{
name = center;
position = "{227, 358}";
},
{
name = top;
position = "{404, 705}";
}
);
paths = (
{
closed = 1;
nodes = (
"373 0 LINE SMOOTH",
"612 0 OFFCURVE",
"756 132 OFFCURVE",
"756 353 CURVE SMOOTH",
"756 571 OFFCURVE",
"611 705 OFFCURVE",
"373 705 CURVE SMOOTH",
"70 705 LINE",
"70 0 LINE"
);
},
{
closed = 1;
nodes = (
"285 533 LINE",
"357 533 LINE SMOOTH",
"481 533 OFFCURVE",
"541 475 OFFCURVE",
"541 353 CURVE SMOOTH",
"541 231 OFFCURVE",
"482 172 OFFCURVE",
"357 172 CURVE SMOOTH",
"285 172 LINE"
);
}
);
};
layerId = "443F1CD3-8514-4C65-8D84-A41CDF68FD19";
paths = (
{
closed = 1;
nodes = (
"413 0 LINE SMOOTH",
"649 0 OFFCURVE",
"789 131 OFFCURVE",
"789 353 CURVE SMOOTH",
"789 574 OFFCURVE",
"649 705 OFFCURVE",
"413 705 CURVE SMOOTH",
"80 705 LINE",
"80 0 LINE"
);
},
{
closed = 1;
nodes = (
"305 519 LINE",
"395 519 LINE SMOOTH",
"499 519 OFFCURVE",
"561 459 OFFCURVE",
"561 353 CURVE SMOOTH",
"561 247 OFFCURVE",
"499 186 OFFCURVE",
"395 186 CURVE SMOOTH",
"305 186 LINE"
);
}
);
width = 849;
},
{
anchors = (
{
name = bottom;
position = "{406, 0}";
},
{
name = center;
position = "{222, 358}";
},
{
name = top;
position = "{406, 705}";
}
);
layerId = "083469E7-71E8-468C-B15D-61E35EC0B921";
paths = (
{
closed = 1;
nodes = (
"379 0 LINE SMOOTH",
"607 0 OFFCURVE",
"739 129 OFFCURVE",
"739 353 CURVE SMOOTH",
"739 577 OFFCURVE",
"608 705 OFFCURVE",
"379 705 CURVE SMOOTH",
"102 705 LINE",
"102 0 LINE"
);
},
{
closed = 1;
nodes = (
"236 591 LINE",
"370 591 LINE SMOOTH",
"520 591 OFFCURVE",
"602 513 OFFCURVE",
"602 353 CURVE SMOOTH",
"602 193 OFFCURVE",
"519 114 OFFCURVE",
"370 114 CURVE SMOOTH",
"236 114 LINE"
);
}
);
width = 815;
}
);
leftKerningGroup = H;
leftMetricsKey = H;
rightKerningGroup = O;
rightMetricsKey = O;
unicode = 0044;
userData = {
anchors = (
);
b = {
};
com.typemytype.robofont.layerData = {
b = {
anchors = (
);
components = (
);
contours = (
{
points = (
{
segmentType = curve;
smooth = 1;
x = 266;
y = 0;
},
{
segmentType = line;
smooth = 1;
x = 1035;
y = 0;
},
{
smooth = 0;
x = 1084;
y = 0;
},
{
smooth = 0;
x = 1108;
y = 34;
},
{
segmentType = curve;
smooth = 1;
x = 1108;
y = 71;
},
{
smooth = 0;
x = 1108;
y = 107;
},
{
smooth = 0;
x = 1084;
y = 141;
},
{
segmentType = curve;
smooth = 1;
x = 1035;
y = 141;
},
{
segmentType = line;
smooth = 0;
x = 356;
y = 141;
},
{
segmentType = line;
smooth = 0;
x = 356;
y = 665;
},
{
segmentType = line;
smooth = 1;
x = 975;
y = 665;
},
{
smooth = 0;
x = 1024;
y = 665;
},
{
smooth = 0;
x = 1049;
y = 698;
},
{
segmentType = curve;
smooth = 1;
x = 1049;
y = 734;
},
{
smooth = 0;
x = 1049;
y = 770;
},
{
smooth = 0;
x = 1026;
y = 803;
},
{
segmentType = curve;
smooth = 1;
x = 975;
y = 803;
},
{
segmentType = line;
smooth = 0;
x = 356;
y = 803;
},
{
segmentType = line;
smooth = 0;
x = 356;
y = 1285;
},
{
segmentType = line;
smooth = 1;
x = 1007;
y = 1285;
},
{
smooth = 0;
x = 1056;
y = 1285;
},
{
smooth = 0;
x = 1080;
y = 1319;
},
{
segmentType = curve;
smooth = 1;
x = 1080;
y = 1356;
},
{
smooth = 0;
x = 1080;
y = 1392;
},
{
smooth = 0;
x = 1056;
y = 1426;
},
{
segmentType = curve;
smooth = 1;
x = 1007;
y = 1426;
},
{
segmentType = line;
smooth = 1;
x = 261;
y = 1426;
},
{
smooth = 0;
x = 213;
y = 1426;
},
{
smooth = 0;
x = 178;
y = 1383;
},
{
segmentType = curve;
smooth = 1;
x = 178;
y = 1340;
},
{
segmentType = line;
smooth = 1;
x = 178;
y = 86;
},
{
smooth = 0;
x = 178;
y = 41;
},
{
smooth = 0;
x = 222;
y = 0;
}
);
}
);
lib = {
};
name = D;
unicodes = (
);
width = 1499;
};
};
components = (
);
contours = (
);
lib = {
};
name = D;
unicodes = (
);
width = 1535;
};
},
{
color = 5;
glyphname = E;
lastChange = "2019-10-11 14:01:53 +0000";
layers = (
{
anchors = (
{
name = bottom;
position = "{350, 0}";
},
{
name = ogonek;
position = "{520, 0}";
},
{
name = top;
position = "{350, 705}";
},
{
name = topleft;
position = "{57, 705}";
}
);
background = {
anchors = (
{
name = bottom;
position = "{340, 0}";
},
{
name = ogonek;
position = "{510, 0}";
},
{
name = top;
position = "{340, 705}";
},
{
name = topleft;
position = "{47, 705}";
}
);
paths = (
{
closed = 1;
nodes = (
"540 705 LINE",
"116 705 LINE",
"116 0 LINE",
"540 0 LINE",
"540 39 LINE",
"158 39 LINE",
"158 338 LINE",
"520 338 LINE",
"520 377 LINE",
"158 377 LINE",
"158 666 LINE",
"540 666 LINE"
);
}
);
};
guideLines = (
{
angle = 270;
position = "{540, 353}";
}
);
layerId = "B0DFB0A8-5D2F-4351-A1F8-6629D0DA694C";
paths = (
{
closed = 1;
nodes = (
"566 705 LINE",
"122 705 LINE",
"122 0 LINE",
"566 0 LINE",
"566 50 LINE",
"174 50 LINE",
"174 332 LINE",
"546 332 LINE",
"546 382 LINE",
"174 382 LINE",
"174 655 LINE",
"566 655 LINE"
);
}
);
width = 656;
},
{
anchors = (
{
name = bottom;
position = "{359, 0}";
},
{
name = ogonek;
position = "{568, 0}";
},
{
name = top;
position = "{359, 705}";
},
{
name = topleft;
position = "{41, 705}";
}
);
background = {
anchors = (
{
name = bottom;
position = "{349, 0}";
},
{
name = ogonek;
position = "{565, 0}";
},
{
name = top;
position = "{349, 705}";
},
{
name = topleft;
position = "{31, 705}";
}
);
paths = (
{
closed = 1;
nodes = (
"588 705 LINE",
"70 705 LINE",
"70 0 LINE",
"588 0 LINE",
"588 164 LINE",
"279 164 LINE",
"279 277 LINE",
"568 277 LINE",
"568 441 LINE",
"279 441 LINE",
"279 541 LINE",
"588 541 LINE"
);
}
);
};
guideLines = (
{
angle = 270;
position = "{588, 353}";
}
);
layerId = "443F1CD3-8514-4C65-8D84-A41CDF68FD19";
paths = (
{
closed = 1;
nodes = (
"620 705 LINE",
"80 705 LINE",
"80 0 LINE",
"620 0 LINE",
"620 176 LINE",
"295 176 LINE",
"295 270 LINE",
"597 270 LINE",
"597 442 LINE",
"295 442 LINE",
"295 529 LINE",
"620 529 LINE"
);
}
);
width = 693;
},
{
anchors = (
{
name = bottom;
position = "{354, 0}";
},
{
name = ogonek;
position = "{543, 0}";
},
{
name = top;
position = "{354, 705}";
},
{
name = topleft;
position = "{49, 705}";
}
);
layerId = "083469E7-71E8-468C-B15D-61E35EC0B921";
paths = (
{
closed = 1;
nodes = (
"592 705 LINE",
"102 705 LINE",
"102 0 LINE",
"592 0 LINE",
"592 110 LINE",
"231 110 LINE",
"231 303 LINE",
"570 303 LINE",
"570 410 LINE",
"231 410 LINE",
"231 595 LINE",
"592 595 LINE"
);
}
);
width = 673.53757;
}
);
leftKerningGroup = H;
leftMetricsKey = H;
rightKerningGroup = E;
unicode = 0045;
userData = {
anchors = (
);
b = {
};
com.typemytype.robofont.layerData = {
b = {
anchors = (
);
components = (
);
contours = (
);
lib = {
};
name = E;
unicodes = (
);
width = 1234;
};
};
components = (
);
contours = (
);
lib = {
};
name = E;
unicodes = (
);
width = 1258;
};
},
{
color = 5;
glyphname = F;
lastChange = "2019-10-11 14:01:53 +0000";
layers = (
{
anchors = (
{
name = bottom;
position = "{350, 0}";
},
{
name = top;
position = "{350, 705}";
}
);
background = {
anchors = (
{
name = bottom;
position = "{313, 0}";
},
{
name = top;
position = "{313, 705}";
}
);
paths = (
{
closed = 1;
nodes = (
"530 705 LINE",
"116 705 LINE",
"116 0 LINE",
"158 0 LINE",
"158 338 LINE",
"510 338 LINE",
"510 377 LINE",
"158 377 LINE",
"158 666 LINE",
"530 666 LINE"
);
}
);
};
layerId = "B0DFB0A8-5D2F-4351-A1F8-6629D0DA694C";
paths = (
{
closed = 1;
nodes = (
"566 705 LINE",
"122 705 LINE",
"122 0 LINE",
"174 0 LINE",
"174 332 LINE",
"546 332 LINE",
"546 382 LINE",
"174 382 LINE",
"174 655 LINE",
"566 655 LINE"
);
}
);
width = 624;
},
{
anchors = (
{
name = bottom;
position = "{325, 0}";
},
{
name = top;
position = "{359, 705}";
}
);
background = {
anchors = (
{
name = bottom;
position = "{315, 0}";
},
{
name = top;
position = "{315, 705}";
}
);
paths = (
{
closed = 1;
nodes = (
"578 705 LINE",
"70 705 LINE",
"70 0 LINE",
"282 0 LINE",
"282 275 LINE",
"558 275 LINE",
"558 442 LINE",
"282 442 LINE",
"282 538 LINE",
"578 538 LINE"
);
}
);
};
layerId = "443F1CD3-8514-4C65-8D84-A41CDF68FD19";
paths = (
{
closed = 1;
nodes = (
"618 705 LINE",
"80 705 LINE",
"80 0 LINE",
"305 0 LINE",
"305 251 LINE",
"598 251 LINE",
"598 427 LINE",
"305 427 LINE",
"305 529 LINE",
"618 529 LINE"
);
}
);
width = 658;
},
{
anchors = (
{
name = bottom;
position = "{338, 0}";
},
{
name = top;
position = "{354, 705}";
}
);
layerId = "083469E7-71E8-468C-B15D-61E35EC0B921";
paths = (
{
closed = 1;
nodes = (
"591 705 LINE",
"102 705 LINE",
"102 0 LINE",
"236 0 LINE",
"236 294 LINE",
"571 294 LINE",
"571 403 LINE",
"236 403 LINE",
"236 595 LINE",
"591 595 LINE"
);
}
);
width = 640.11561;
}
);
leftKerningGroup = H;
leftMetricsKey = H;
rightKerningGroup = F;
unicode = 0046;
userData = {
anchors = (
);
b = {
};
com.typemytype.robofont.layerData = {
b = {
anchors = (
);
components = (
);
contours = (
{
points = (
{
segmentType = curve;
smooth = 1;
x = 266;
y = 0;
},
{
segmentType = line;
smooth = 1;
x = 1035;
y = 0;
},
{
smooth = 0;
x = 1084;
y = 0;
},
{
smooth = 0;
x = 1108;
y = 34;
},
{
segmentType = curve;
smooth = 1;
x = 1108;
y = 71;
},
{
smooth = 0;
x = 1108;
y = 107;
},
{
smooth = 0;
x = 1084;
y = 141;
},
{
segmentType = curve;
smooth = 1;
x = 1035;
y = 141;
},
{
segmentType = line;
smooth = 0;
x = 353;
y = 141;
},
{
segmentType = line;
smooth = 0;
x = 353;
y = 665;
},
{
segmentType = line;
smooth = 1;
x = 975;
y = 665;
},
{
smooth = 0;
x = 1024;
y = 665;
},
{
smooth = 0;
x = 1049;
y = 698;
},
{
segmentType = curve;
smooth = 1;
x = 1049;
y = 734;
},
{
smooth = 0;
x = 1049;
y = 770;
},
{
smooth = 0;
x = 1026;
y = 803;
},
{
segmentType = curve;
smooth = 1;
x = 975;
y = 803;
},
{
segmentType = line;
smooth = 0;
x = 353;
y = 803;
},
{
segmentType = line;
smooth = 0;
x = 353;
y = 1285;
},
{
segmentType = line;
smooth = 1;
x = 1007;
y = 1285;
},
{
smooth = 0;
x = 1056;
y = 1285;
},
{
smooth = 0;
x = 1080;
y = 1319;
},
{
segmentType = curve;
smooth = 1;
x = 1080;
y = 1356;
},
{
smooth = 0;
x = 1080;
y = 1392;
},
{
smooth = 0;
x = 1056;
y = 1426;
},
{
segmentType = curve;
smooth = 1;
x = 1007;
y = 1426;
},
{
segmentType = line;
smooth = 1;
x = 261;
y = 1426;
},
{
smooth = 0;
x = 213;
y = 1426;
},
{
smooth = 0;
x = 178;
y = 1383;
},
{
segmentType = curve;
smooth = 1;
x = 178;
y = 1340;
},
{
segmentType = line;
smooth = 1;
x = 178;
y = 86;
},
{
smooth = 0;
x = 178;
y = 41;
},
{
smooth = 0;
x = 222;
y = 0;
}
);
}
);
lib = {
};
name = F;
unicodes = (
);
width = 1142;
};
};
components = (
);
contours = (
);
lib = {
};
name = F;
unicodes = (
);
width = 1175;
};
},
{
color = 5;
glyphname = G;
lastChange = "2019-10-11 14:01:53 +0000";
layers = (
{
anchors = (
{
name = bottom;
position = "{423, 0}";
},
{
name = top;
position = "{416, 705}";
}
);
background = {
paths = (
{
closed = 1;
nodes = (
"529 -8 OFFCURVE",
"610 24 OFFCURVE",
"671 87 CURVE",
"645 127 LINE",
"581 68 OFFCURVE",
"516 43 OFFCURVE",
"430 43 CURVE SMOOTH",
"269 43 OFFCURVE",
"172 150 OFFCURVE",
"172 353 CURVE SMOOTH",
"172 555 OFFCURVE",
"268 662 OFFCURVE",
"430 662 CURVE SMOOTH",
"516 662 OFFCURVE",
"581 637 OFFCURVE",
"645 578 CURVE",
"671 618 LINE",
"610 681 OFFCURVE",
"529 713 OFFCURVE",
"431 713 CURVE SMOOTH",
"235 713 OFFCURVE",
"117 577 OFFCURVE",
"117 353 CURVE SMOOTH",
"117 128 OFFCURVE",
"236 -8 OFFCURVE",
"431 -8 CURVE SMOOTH"
);
}
);
};
layerId = "B0DFB0A8-5D2F-4351-A1F8-6629D0DA694C";
paths = (
{
closed = 1;
nodes = (
"520 -8 OFFCURVE",
"625 13 OFFCURVE",
"676 40 CURVE",
"676 355 LINE",
"432 355 LINE",
"432 305 LINE",
"626 305 LINE",
"626 35 LINE",
"648 82 LINE",
"591 56 OFFCURVE",
"513 42 OFFCURVE",
"429 42 CURVE SMOOTH",
"248 42 OFFCURVE",
"144 142 OFFCURVE",
"144 353 CURVE SMOOTH",
"144 555 OFFCURVE",
"242 662 OFFCURVE",
"411 662 CURVE SMOOTH",
"508 662 OFFCURVE",
"585 636 OFFCURVE",
"645 578 CURVE",
"671 618 LINE",
"614 680 OFFCURVE",
"521 713 OFFCURVE",
"414 713 CURVE SMOOTH",
"212 713 OFFCURVE",
"89 579 OFFCURVE",
"89 353 CURVE SMOOTH",
"89 121 OFFCURVE",
"215 -8 OFFCURVE",
"430 -8 CURVE SMOOTH"
);
}
);
width = 787;
},
{
anchors = (
{
name = bottom;
position = "{455, 0}";
},
{
name = top;
position = "{448, 705}";
}
);
background = {
anchors = (
{
name = bottom;
position = "{445, 0}";
},
{
name = top;
position = "{438, 705}";
}
);
paths = (
{
closed = 1;
nodes = (
"526 -10 OFFCURVE",
"622 10 OFFCURVE",
"674 54 CURVE",
"609 233 LINE",
"551 196 OFFCURVE",
"502 187 OFFCURVE",
"447 187 CURVE SMOOTH",
"354 187 OFFCURVE",
"295 236 OFFCURVE",
"295 353 CURVE SMOOTH",
"295 470 OFFCURVE",
"353 518 OFFCURVE",
"447 518 CURVE SMOOTH",
"502 518 OFFCURVE",
"551 509 OFFCURVE",
"609 472 CURVE",
"674 651 LINE",
"622 695 OFFCURVE",
"526 715 OFFCURVE",
"436 715 CURVE SMOOTH",
"211 715 OFFCURVE",
"65 572 OFFCURVE",
"65 353 CURVE SMOOTH",
"65 133 OFFCURVE",
"212 -10 OFFCURVE",
"436 -10 CURVE SMOOTH"
);
}
);
};
layerId = "443F1CD3-8514-4C65-8D84-A41CDF68FD19";
paths = (
{
closed = 1;
nodes = (
"554 -12 OFFCURVE",
"660 7 OFFCURVE",
"740 44 CURVE",
"740 407 LINE",
"429 407 LINE",
"429 261 LINE",
"558 261 LINE",
"558 112 LINE",
"594 185 LINE",
"558 172 OFFCURVE",
"523 169 OFFCURVE",
"461 169 CURVE SMOOTH",
"344 169 OFFCURVE",
"285 234 OFFCURVE",
"285 353 CURVE SMOOTH",
"285 474 OFFCURVE",
"359 527 OFFCURVE",
"456 527 CURVE SMOOTH",
"520 527 OFFCURVE",
"583 519 OFFCURVE",
"650 482 CURVE",
"715 653 LINE",
"659 696 OFFCURVE",
"551 717 OFFCURVE",
"447 717 CURVE SMOOTH",
"209 717 OFFCURVE",
"60 582 OFFCURVE",
"60 353 CURVE SMOOTH",
"60 128 OFFCURVE",
"210 -12 OFFCURVE",
"440 -12 CURVE SMOOTH"
);
}
);
width = 812;
},
{
anchors = (
{
name = bottom;
position = "{438, 0}";
},
{
name = top;
position = "{431, 705}";
}
);
layerId = "083469E7-71E8-468C-B15D-61E35EC0B921";
paths = (
{
closed = 1;
nodes = (
"536 -10 OFFCURVE",
"642 10 OFFCURVE",
"706 42 CURVE",
"706 380 LINE",
"431 380 LINE",
"431 284 LINE",
"594 284 LINE",
"594 71 LINE",
"622 131 LINE",
"575 111 OFFCURVE",
"518 102 OFFCURVE",
"444 102 CURVE SMOOTH",
"294 102 OFFCURVE",
"211 186 OFFCURVE",
"211 353 CURVE SMOOTH",
"211 517 OFFCURVE",
"297 598 OFFCURVE",
"432 598 CURVE SMOOTH",
"514 598 OFFCURVE",
"584 581 OFFCURVE",
"647 532 CURVE",
"692 635 LINE",
"635 688 OFFCURVE",
"535 715 OFFCURVE",
"430 715 CURVE SMOOTH",
"211 715 OFFCURVE",
"75 580 OFFCURVE",
"75 353 CURVE SMOOTH",
"75 124 OFFCURVE",
"213 -10 OFFCURVE",
"435 -10 CURVE SMOOTH"
);
}
);
width = 798.84971;
}
);
leftKerningGroup = O;
leftMetricsKey = O;
rightKerningGroup = G;
unicode = 0047;
userData = {
anchors = (
);
b = {
};
com.typemytype.robofont.layerData = {
b = {
anchors = (
);
components = (
);
contours = (
{
points = (
{
segmentType = curve;
smooth = 1;
x = 783;
y = "-22";
},
{
smooth = 0;
x = 965;
y = "-22";
},
{
smooth = 0;
x = 1086;
y = 34;
},
{
segmentType = curve;
smooth = 1;
x = 1166;
y = 86;
},
{
smooth = 0;
x = 1270;
y = 154;
},
{
smooth = 0;
x = 1186;
y = 258;
},
{
segmentType = curve;
smooth = 1;
x = 1112;
y = 214;
},
{
smooth = 0;
x = 1024;
y = 162;
},
{
smooth = 0;
x = 939;
y = 120;
},
{
segmentType = curve;
smooth = 1;
x = 806;
y = 120;
},
{
smooth = 0;
x = 446;
y = 120;
},
{
smooth = 0;
x = 316;
y = 406;
},
{
segmentType = curve;
smooth = 1;
x = 316;
y = 706;
},
{
smooth = 0;
x = 316;
y = 1005;
},
{
smooth = 0;
x = 450;
y = 1296;
},
{
segmentType = curve;
smooth = 1;
x = 801;
y = 1296;
},
{
smooth = 0;
x = 980;
y = 1296;
},
{
smooth = 0;
x = 1053;
y = 1246;
},
{
segmentType = curve;
smooth = 1;
x = 1094;
y = 1225;
},
{
smooth = 0;
x = 1174;
y = 1184;
},
{
smooth = 0;
x = 1231;
y = 1300;
},
{
segmentType = curve;
smooth = 1;
x = 1156;
y = 1343;
},
{
smooth = 0;
x = 1106;
y = 1372;
},
{
smooth = 0;
x = 995;
y = 1438;
},
{
segmentType = curve;
smooth = 1;
x = 797;
y = 1438;
},
{
smooth = 0;
x = 359;
y = 1438;
},
{
smooth = 0;
x = 128;
y = 1093;
},
{
segmentType = curve;
smooth = 1;
x = 128;
y = 704;
},
{
smooth = 0;
x = 128;
y = 307;
},
{
smooth = 0;
x = 350;
y = "-22";
}
);
}
);
lib = {
};
name = G;
unicodes = (
);
width = 1448;
};
};
components = (
);
contours = (
);
lib = {
};
name = G;
unicodes = (
);
width = 1538;
};
},
{
color = 5;
glyphname = H;
lastChange = "2019-10-11 14:01:53 +0000";
layers = (
{
anchors = (
{
name = bottom;
position = "{404, 0}";
},
{
name = center;
position = "{404, 546}";
},
{
name = top;
position = "{403, 705}";
},
{
name = topleft;
position = "{55, 705}";
}
);
background = {
anchors = (
{
name = bottom;
position = "{378, 0}";
},
{
name = center;
position = "{378, 546}";
},
{
name = top;
position = "{377, 705}";
},
{
name = topleft;
position = "{29, 705}";
}
);
paths = (
{
closed = 1;
nodes = (
"615 377 LINE",
"140 377 LINE",
"140 705 LINE",
"98 705 LINE",
"98 0 LINE",
"140 0 LINE",
"140 338 LINE",
"615 338 LINE",
"615 0 LINE",
"657 0 LINE",
"657 705 LINE",
"615 705 LINE"
);
}
);
};
layerId = "B0DFB0A8-5D2F-4351-A1F8-6629D0DA694C";
paths = (
{
closed = 1;
nodes = (
"633 384 LINE",
"174 384 LINE",
"174 705 LINE",
"122 705 LINE",
"122 0 LINE",
"174 0 LINE",
"174 334 LINE",
"633 334 LINE",
"633 0 LINE",
"685 0 LINE",
"685 705 LINE",
"633 705 LINE"
);
}
);
width = 807;
},
{
anchors = (
{
name = bottom;
position = "{425, 0}";
},
{
name = center;
position = "{425, 575}";
},
{
name = top;
position = "{425, 705}";
},
{
name = topleft;
position = "{38, 705}";
}
);
background = {
anchors = (
{
name = bottom;
position = "{399, 0}";
},
{
name = center;
position = "{399, 575}";
},
{
name = top;
position = "{399, 705}";
},
{
name = topleft;
position = "{26, 705}";
}
);
paths = (
{
closed = 1;
nodes = (
"522 442 LINE",
"276 442 LINE",
"276 705 LINE",
"65 705 LINE",
"65 0 LINE",
"276 0 LINE",
"276 274 LINE",
"522 274 LINE",
"522 0 LINE",
"733 0 LINE",
"733 705 LINE",
"522 705 LINE"
);
}
);
};
layerId = "443F1CD3-8514-4C65-8D84-A41CDF68FD19";
paths = (
{
closed = 1;
nodes = (
"545 448 LINE",
"305 448 LINE",
"305 705 LINE",
"80 705 LINE",
"80 0 LINE",
"305 0 LINE",
"305 262 LINE",
"545 262 LINE",
"545 0 LINE",
"770 0 LINE",
"770 705 LINE",
"545 705 LINE"
);
}
);
width = 850;
},
{
anchors = (
{
name = bottom;
position = "{414, 0}";
},
{
name = center;
position = "{414, 560}";
},
{
name = top;
position = "{413, 705}";
},
{
name = topleft;
position = "{47, 705}";
}
);
layerId = "083469E7-71E8-468C-B15D-61E35EC0B921";
paths = (
{
closed = 1;
nodes = (
"591 414 LINE",
"236 414 LINE",
"236 705 LINE",
"102 705 LINE",
"102 0 LINE",
"236 0 LINE",
"236 300 LINE",
"591 300 LINE",
"591 0 LINE",
"725 0 LINE",
"725 705 LINE",
"591 705 LINE"
);
}
);
width = 827.3815;
}
);
leftKerningGroup = H;
rightKerningGroup = H;
rightMetricsKey = "=|";
unicode = 0048;
userData = {
anchors = (
);
b = {
};
com.typemytype.robofont.layerData = {
b = {
anchors = (
);
components = (
);
contours = (
);
lib = {
};
name = H;
unicodes = (
);
width = 1464;
};
};
components = (
);
contours = (
);
lib = {
};
name = H;
unicodes = (
);
width = 1524;
};
},
{
color = 7;
glyphname = Hbar;
lastChange = "2019-10-11 15:01:16 +0000";
layers = (
{
background = {
components = (
{
name = H;
transform = "{1, 0, 0, 1, 2, 0}";
},
{
name = strokelongcomb.case;
transform = "{1, 0, 0, 1, -2, 0}";
}
);
};
layerId = "B0DFB0A8-5D2F-4351-A1F8-6629D0DA694C";
leftMetricsKey = "=+15";
rightMetricsKey = "=+15";
paths = (
{
closed = 1;
nodes = (
"687 569 LINE",
"687 705 LINE",
"635 705 LINE",
"635 569 LINE",
"176 569 LINE",
"176 705 LINE",
"124 705 LINE",
"124 569 LINE",
"15 569 LINE",
"15 521 LINE",
"124 521 LINE",
"124 0 LINE",
"176 0 LINE",
"176 334 LINE",
"635 334 LINE",
"635 0 LINE",
"687 0 LINE",
"687 521 LINE",
"796 521 LINE",
"796 569 LINE"
);
},
{
closed = 1;
nodes = (
"176 384 LINE",
"176 521 LINE",
"635 521 LINE",
"635 384 LINE"
);
}
);
width = 811;
},
{
background = {
components = (
{
name = H;
transform = "{1, 0, 0, 1, 16, 0}";
},
{
name = strokelongcomb.case;
transform = "{1, 0, 0, 1, -27, 0}";
}
);
};
layerId = "443F1CD3-8514-4C65-8D84-A41CDF68FD19";
leftMetricsKey = "=+30";
rightMetricsKey = "=+30";
paths = (
{
closed = 1;
nodes = (
"796 635 LINE",
"796 705 LINE",
"571 705 LINE",
"571 625 LINE",
"331 625 LINE",
"331 705 LINE",
"106 705 LINE",
"106 635 LINE",
"30 635 LINE",
"30 495 LINE",
"106 495 LINE",
"106 0 LINE",
"331 0 LINE",
"331 232 LINE",
"571 232 LINE",
"571 0 LINE",
"796 0 LINE",
"796 495 LINE",
"872 495 LINE",
"872 635 LINE"
);
},
{
closed = 1;
nodes = (
"331 418 LINE",
"331 505 LINE",
"571 505 LINE",
"571 418 LINE"
);
}
);
width = 902;
},
{
layerId = "083469E7-71E8-468C-B15D-61E35EC0B921";
paths = (
{
closed = 1;
nodes = (
"739 605 LINE",
"739 705 LINE",
"605 705 LINE",
"605 599 LINE",
"249 599 LINE",
"249 705 LINE",
"115 705 LINE",
"115 605 LINE",
"22 605 LINE",
"22 503 LINE",
"115 503 LINE",
"115 0 LINE",
"249 0 LINE",
"249 286 LINE",
"605 286 LINE",
"605 0 LINE",
"739 0 LINE",
"739 503 LINE",
"832 503 LINE",
"832 605 LINE"
);
},
{
closed = 1;
nodes = (
"249 400 LINE",
"249 509 LINE",
"605 509 LINE",
"605 400 LINE"
);
}
);
width = 854.13295;
}
);
leftKerningGroup = H;
rightKerningGroup = H;
unicode = 0126;
userData = {
com.typemytype.robofont.layerData = {
b = {
anchors = (
);
components = (
);
contours = (
);
lib = {
};
name = Hbar;
unicodes = (
);
width = 1464;
};
};
};
},
{
color = 5;
glyphname = I;
lastChange = "2019-10-11 14:01:53 +0000";
layers = (
{
anchors = (
{
name = bottom;
position = "{148, 0}";
},
{
name = ogonek;
position = "{174, 0}";
},
{
name = top;
position = "{148, 705}";
},
{
name = topleft;
position = "{59, 705}";
}
);
background = {
paths = (
{
closed = 1;
nodes = (
"164 0 LINE",
"164 705 LINE",
"112 705 LINE",
"112 0 LINE"
);
},
{
closed = 1;
nodes = (
"-2 659 LINE",
"278 659 LINE",
"278 705 LINE",
"-2 705 LINE"
);
},
{
closed = 1;
nodes = (
"-2 0 LINE",
"278 0 LINE",
"278 46 LINE",
"-2 46 LINE"
);
}
);
};
layerId = "B0DFB0A8-5D2F-4351-A1F8-6629D0DA694C";
paths = (
{
closed = 1;
nodes = (
"174 0 LINE",
"174 705 LINE",
"122 705 LINE",
"122 0 LINE"
);
}
);
width = 296;
},
{
anchors = (
{
name = bottom;
position = "{192, 0}";
},
{
name = ogonek;
position = "{262, 0}";
},
{
name = top;
position = "{192, 705}";
},
{
name = topleft;
position = "{41, 705}";
}
);
background = {
anchors = (
{
name = bottom;
position = "{182, 0}";
},
{
name = ogonek;
position = "{249, 0}";
},
{
name = top;
position = "{182, 705}";
},
{
name = topleft;
position = "{36, 705}";
}
);
paths = (
{
closed = 1;
nodes = (
"290 0 LINE",
"290 705 LINE",
"75 705 LINE",
"75 0 LINE"
);
}
);
};
layerId = "443F1CD3-8514-4C65-8D84-A41CDF68FD19";
paths = (
{
closed = 1;
nodes = (
"305 0 LINE",
"305 705 LINE",
"80 705 LINE",
"80 0 LINE"
);
}
);
width = 385;
},
{
anchors = (
{
name = bottom;
position = "{169, 0}";
},
{
name = ogonek;
position = "{216, 0}";
},
{
name = top;
position = "{169, 705}";
},
{
name = topleft;
position = "{50, 705}";
}
);
layerId = "083469E7-71E8-468C-B15D-61E35EC0B921";
paths = (
{
closed = 1;
nodes = (
"236 0 LINE",
"236 705 LINE",
"102 705 LINE",
"102 0 LINE"
);
}
);
width = 338.18497;
}
);
leftKerningGroup = H;
leftMetricsKey = H;
rightKerningGroup = H;
rightMetricsKey = H;
unicode = 0049;
userData = {
anchors = (
);
b = {
};
com.typemytype.robofont.layerData = {
b = {
anchors = (
);
components = (
);
contours = (
);
lib = {
};
name = I;
unicodes = (
);
width = 592;
};
};
components = (
);
contours = (
);
lib = {
};
name = I;
unicodes = (
);
width = 637;
};
},
{
color = 5;
glyphname = J;
lastChange = "2019-10-11 14:01:53 +0000";
layers = (
{
anchors = (
{
name = bottom;
position = "{251, 0}";
},
{
name = top;
position = "{255, 705}";
}
);
background = {
anchors = (
{
name = bottom;
position = "{241, 0}";
},
{
name = top;
position = "{240, 705}";
}
);
paths = (
{
closed = 1;
nodes = (
"104 -2 LINE SMOOTH",
"205 5 OFFCURVE",
"261 70 OFFCURVE",
"261 177 CURVE SMOOTH",
"261 705 LINE",
"219 705 LINE",
"219 179 LINE SMOOTH",
"219 96 OFFCURVE",
"176 42 OFFCURVE",
"101 36 CURVE SMOOTH",
"50 32 LINE",
"54 -6 LINE"
);
}
);
};
layerId = "B0DFB0A8-5D2F-4351-A1F8-6629D0DA694C";
paths = (
{
closed = 1;
nodes = (
"94 -2 LINE SMOOTH",
"195 3 OFFCURVE",
"281 84 OFFCURVE",
"281 187 CURVE SMOOTH",
"281 705 LINE",
"229 705 LINE",
"229 189 LINE SMOOTH",
"229 106 OFFCURVE",
"166 52 OFFCURVE",
"91 48 CURVE SMOOTH",
"10 44 LINE",
"14 -6 LINE"
);
}
);
width = 403;
},
{
anchors = (
{
name = bottom;
position = "{280, 0}";
},
{
name = top;
position = "{280, 705}";
}
);
background = {
anchors = (
{
name = bottom;
position = "{275, 0}";
},
{
name = top;
position = "{275, 705}";
}
);
paths = (
{
closed = 1;
nodes = (
"146 -7 LINE SMOOTH",
"306 2 OFFCURVE",
"383 76 OFFCURVE",
"383 221 CURVE SMOOTH",
"383 705 LINE",
"166 705 LINE",
"166 217 LINE SMOOTH",
"166 177 OFFCURVE",
"152 166 OFFCURVE",
"109 164 CURVE SMOOTH",
"20 159 LINE",
"33 -12 LINE"
);
}
);
};
layerId = "443F1CD3-8514-4C65-8D84-A41CDF68FD19";
paths = (
{
closed = 1;
nodes = (
"156 -7 LINE SMOOTH",
"316 -1 OFFCURVE",
"393 79 OFFCURVE",
"393 221 CURVE SMOOTH",
"393 705 LINE",
"168 705 LINE",
"168 242 LINE SMOOTH",
"168 201 OFFCURVE",
"155 180 OFFCURVE",
"112 178 CURVE SMOOTH",
"10 173 LINE",
"23 -12 LINE"
);
}
);
width = 473;
},
{
anchors = (
{
name = bottom;
position = "{265, 0}";
},
{
name = top;
position = "{267, 705}";
}
);
layerId = "083469E7-71E8-468C-B15D-61E35EC0B921";
paths = (
{
closed = 1;
nodes = (
"123 -4 LINE SMOOTH",
"252 1 OFFCURVE",
"334 82 OFFCURVE",
"334 203 CURVE SMOOTH",
"334 705 LINE",
"200 705 LINE",
"200 214 LINE SMOOTH",
"200 151 OFFCURVE",
"161 113 OFFCURVE",
"101 110 CURVE SMOOTH",
"10 105 LINE",
"18 -9 LINE"
);
}
);
width = 436.17919;
}
);
leftKerningGroup = J;
rightKerningGroup = J;
rightMetricsKey = H;
unicode = 004A;
userData = {
anchors = (
);
b = {
};
com.typemytype.robofont.layerData = {
b = {
anchors = (
);
components = (
);
contours = (
);
lib = {
};
name = J;
unicodes = (
);
width = 1003;
};
};
components = (
);
contours = (
);
lib = {
};
name = J;
unicodes = (
);
width = 1126;
};
},
{
color = 5;
glyphname = K;
lastChange = "2019-10-11 14:01:53 +0000";
layers = (
{
anchors = (
{
name = bottom;
position = "{342, 0}";
},
{
name = top;
position = "{341, 705}";
},
{
name = topleft;
position = "{57, 705}";
}
);
background = {
anchors = (
{
name = bottom;
position = "{322, 0}";
},
{
name = top;
position = "{321, 705}";
},
{
name = topleft;
position = "{47, 705}";
}
);
paths = (
{
closed = 1;
nodes = (
"178 376 LINE",
"178 341 LINE",
"589 705 LINE",
"529 705 LINE",
"158 375 LINE",
"158 705 LINE",
"116 705 LINE",
"116 0 LINE",
"158 0 LINE",
"158 340 LINE",
"550 0 LINE",
"612 0 LINE"
);
}
);
};
layerId = "B0DFB0A8-5D2F-4351-A1F8-6629D0DA694C";
paths = (
{
closed = 1;
nodes = (
"211 376 LINE",
"209 341 LINE",
"610 705 LINE",
"538 705 LINE",
"178 377 LINE",
"174 377 LINE",
"174 705 LINE",
"122 705 LINE",
"122 0 LINE",
"174 0 LINE",
"174 338 LINE",
"178 338 LINE",
"559 0 LINE",
"635 0 LINE"
);
}
);
width = 649;
},
{
anchors = (
{
name = bottom;
position = "{400, 0}";
},
{
name = top;
position = "{400, 705}";
},
{
name = topleft;
position = "{41, 705}";
}
);
background = {
anchors = (
{
name = bottom;
position = "{375, 0}";
},
{
name = top;
position = "{375, 705}";
},
{
name = topleft;
position = "{31, 705}";
}
);
paths = (
{
closed = 1;
nodes = (
"452 418 LINE",
"435 312 LINE",
"786 705 LINE",
"536 705 LINE",
"281 406 LINE",
"281 705 LINE",
"70 705 LINE",
"70 0 LINE",
"281 0 LINE",
"281 317 LINE",
"541 0 LINE",
"794 0 LINE"
);
}
);
};
layerId = "443F1CD3-8514-4C65-8D84-A41CDF68FD19";
paths = (
{
closed = 1;
nodes = (
"489 418 LINE",
"464 312 LINE",
"815 705 LINE",
"560 705 LINE",
"313 423 LINE",
"305 423 LINE",
"305 705 LINE",
"80 705 LINE",
"80 0 LINE",
"305 0 LINE",
"305 309 LINE",
"313 309 LINE",
"565 0 LINE",
"841 0 LINE"
);
}
);
width = 822;
},
{
anchors = (
{
name = bottom;
position = "{369, 0}";
},
{
name = top;
position = "{369, 705}";
},
{
name = topleft;
position = "{49, 705}";
}
);
layerId = "083469E7-71E8-468C-B15D-61E35EC0B921";
paths = (
{
closed = 1;
nodes = (
"343 396 LINE",
"330 327 LINE",
"707 705 LINE",
"548 705 LINE",
"242 399 LINE",
"236 399 LINE",
"236 705 LINE",
"102 705 LINE",
"102 0 LINE",
"236 0 LINE",
"236 324 LINE",
"242 324 LINE",
"562 0 LINE",
"733 0 LINE"
);
}
);
width = 731;
}
);
leftKerningGroup = H;
leftMetricsKey = H;
rightKerningGroup = K;
unicode = 004B;
userData = {
anchors = (
);
b = {
};
com.typemytype.robofont.layerData = {
b = {
anchors = (
);
components = (
);
contours = (
);
lib = {
};
name = K;
unicodes = (
);
width = 1210;
};
};
components = (
);
contours = (
);
lib = {
};
name = K;
unicodes = (
);
width = 1329;
};
},
{
color = 5;
glyphname = L;
lastChange = "2019-10-11 14:01:53 +0000";
layers = (
{
anchors = (
{
name = bottom;
position = "{342, 0}";
},
{
name = center;
position = "{197, 387}";
},
{
name = dot;
position = "{415, 386}";
},
{
name = top;
position = "{150, 705}";
},
{
name = topright;
position = "{296, 705}";
}
);
background = {
anchors = (
{
name = bottom;
position = "{332, 0}";
},
{
name = center;
position = "{187, 387}";
},
{
name = dot;
position = "{405, 386}";
},
{
name = top;
position = "{143, 705}";
},
{
name = topright;
position = "{286, 705}";
}
);
paths = (
{
closed = 1;
nodes = (
"538 0 LINE",
"538 40 LINE",
"164 40 LINE",
"164 705 LINE",
"122 705 LINE",
"122 0 LINE"
);
}
);
};
layerId = "B0DFB0A8-5D2F-4351-A1F8-6629D0DA694C";
paths = (
{
closed = 1;
nodes = (
"548 0 LINE",
"548 50 LINE",
"174 50 LINE",
"174 705 LINE",
"122 705 LINE",
"122 0 LINE"
);
}
);
width = 583;
},
{
anchors = (
{
name = bottom;
position = "{339, 0}";
},
{
name = center;
position = "{235, 387}";
},
{
name = dot;
position = "{479, 402}";
},
{
name = top;
position = "{187, 705}";
},
{
name = topright;
position = "{385, 705}";
}
);
background = {
anchors = (
{
name = bottom;
position = "{329, 0}";
},
{
name = center;
position = "{225, 387}";
},
{
name = dot;
position = "{469, 402}";
},
{
name = top;
position = "{177, 705}";
},
{
name = topright;
position = "{375, 705}";
}
);
paths = (
{
closed = 1;
nodes = (
"569 0 LINE",
"569 173 LINE",
"285 173 LINE",
"285 705 LINE",
"70 705 LINE",
"70 0 LINE"
);
}
);
};
layerId = "443F1CD3-8514-4C65-8D84-A41CDF68FD19";
paths = (
{
closed = 1;
nodes = (
"609 0 LINE",
"609 186 LINE",
"305 186 LINE",
"305 705 LINE",
"80 705 LINE",
"80 0 LINE"
);
}
);
width = 658;
},
{
anchors = (
{
name = bottom;
position = "{341, 0}";
},
{
name = center;
position = "{215, 387}";
},
{
name = dot;
position = "{445, 394}";
},
{
name = top;
position = "{168, 705}";
},
{
name = topright;
position = "{338, 705}";
}
);
layerId = "083469E7-71E8-468C-B15D-61E35EC0B921";
paths = (
{
closed = 1;
nodes = (
"577 0 LINE",
"577 114 LINE",
"236 114 LINE",
"236 705 LINE",
"102 705 LINE",
"102 0 LINE"
);
}
);
width = 618.54913;
}
);
leftKerningGroup = H;
leftMetricsKey = H;
rightKerningGroup = L;
unicode = 004C;
userData = {
anchors = (
);
b = {
};
com.typemytype.robofont.layerData = {
b = {
anchors = (
);
components = (
);
contours = (
{
points = (
{
segmentType = curve;
smooth = 1;
x = 266;
y = 0;
},
{
segmentType = line;
smooth = 1;
x = 1035;
y = 0;
},
{
smooth = 0;
x = 1084;
y = 0;
},
{
smooth = 0;
x = 1108;
y = 34;
},
{
segmentType = curve;
smooth = 1;
x = 1108;
y = 71;
},
{
smooth = 0;
x = 1108;
y = 107;
},
{
smooth = 0;
x = 1084;
y = 141;
},
{
segmentType = curve;
smooth = 1;
x = 1035;
y = 141;
},
{
segmentType = line;
smooth = 0;
x = 356;
y = 141;
},
{
segmentType = line;
smooth = 0;
x = 356;
y = 665;
},
{
segmentType = line;
smooth = 1;
x = 975;
y = 665;
},
{
smooth = 0;
x = 1024;
y = 665;
},
{
smooth = 0;
x = 1049;
y = 698;
},
{
segmentType = curve;
smooth = 1;
x = 1049;
y = 734;
},
{
smooth = 0;
x = 1049;
y = 770;
},
{
smooth = 0;
x = 1026;
y = 803;
},
{
segmentType = curve;
smooth = 1;
x = 975;
y = 803;
},
{
segmentType = line;
smooth = 0;
x = 356;
y = 803;
},
{
segmentType = line;
smooth = 0;
x = 356;
y = 1285;
},
{
segmentType = line;
smooth = 1;
x = 1007;
y = 1285;
},
{
smooth = 0;
x = 1056;
y = 1285;
},
{
smooth = 0;
x = 1080;
y = 1319;
},
{
segmentType = curve;
smooth = 1;
x = 1080;
y = 1356;
},
{
smooth = 0;
x = 1080;
y = 1392;
},
{
smooth = 0;
x = 1056;
y = 1426;
},
{
segmentType = curve;
smooth = 1;
x = 1007;
y = 1426;
},
{
segmentType = line;
smooth = 1;
x = 261;
y = 1426;
},
{
smooth = 0;
x = 213;
y = 1426;
},
{
smooth = 0;
x = 178;
y = 1383;
},
{
segmentType = curve;
smooth = 1;
x = 178;
y = 1340;
},
{
segmentType = line;
smooth = 1;
x = 178;
y = 86;
},
{
smooth = 0;
x = 178;
y = 41;
},
{
smooth = 0;
x = 222;
y = 0;
}
);
}
);
lib = {
};
name = L;
unicodes = (
);
width = 1095;
};
};
components = (
);
contours = (
);
lib = {
};
name = L;
unicodes = (
);
width = 1169;
};
},
{
color = 5;
glyphname = M;
lastChange = "2019-10-11 14:01:53 +0000";
layers = (
{
anchors = (
{
name = bottom;
position = "{453, 0}";
},
{
name = top;
position = "{453, 705}";
}
);
background = {
anchors = (
{
name = bottom;
position = "{443, 0}";
},
{
name = top;
position = "{443, 705}";
}
);
paths = (
{
closed = 1;
nodes = (
"158 0 LINE",
"158 666 LINE",
"133 666 LINE",
"427 110 LINE",
"462 110 LINE",
"752 665 LINE",
"728 665 LINE",
"728 0 LINE",
"767 0 LINE",
"767 705 LINE",
"731 705 LINE",
"430 127 LINE",
"458 127 LINE",
"155 705 LINE",
"119 705 LINE",
"119 0 LINE"
);
}
);
};
layerId = "B0DFB0A8-5D2F-4351-A1F8-6629D0DA694C";
paths = (
{
closed = 1;
nodes = (
"174 0 LINE",
"174 635 LINE",
"178 635 LINE",
"438 110 LINE",
"482 110 LINE",
"740 635 LINE",
"744 635 LINE",
"744 0 LINE",
"794 0 LINE",
"794 705 LINE",
"723 705 LINE",
"462 173 LINE",
"458 173 LINE",
"195 705 LINE",
"124 705 LINE",
"124 0 LINE"
);
}
);
width = 918;
},
{
anchors = (
{
name = bottom;
position = "{468, 0}";
},
{
name = top;
position = "{468, 705}";
}
);
background = {
anchors = (
{
name = bottom;
position = "{458, 0}";
},
{
name = top;
position = "{458, 705}";
}
);
paths = (
{
closed = 1;
nodes = (
"283 0 LINE",
"283 373 LINE",
"256 360 LINE",
"390 119 LINE",
"526 119 LINE",
"658 361 LINE",
"634 373 LINE",
"634 0 LINE",
"820 0 LINE",
"820 705 LINE",
"655 705 LINE",
"440 301 LINE",
"480 301 LINE",
"265 705 LINE",
"97 705 LINE",
"97 0 LINE"
);
}
);
};
layerId = "443F1CD3-8514-4C65-8D84-A41CDF68FD19";
paths = (
{
closed = 1;
nodes = (
"286 0 LINE",
"286 382 LINE",
"294 382 LINE",
"440 123 LINE",
"556 123 LINE",
"703 382 LINE",
"711 382 LINE",
"711 0 LINE",
"915 0 LINE",
"915 705 LINE",
"698 705 LINE",
"505 341 LINE",
"497 341 LINE",
"302 705 LINE",
"82 705 LINE",
"82 0 LINE"
);
}
);
width = 997;
},
{
anchors = (
{
name = bottom;
position = "{460, 0}";
},
{
name = top;
position = "{460, 705}";
}
);
layerId = "083469E7-71E8-468C-B15D-61E35EC0B921";
paths = (
{
closed = 1;
nodes = (
"227 0 LINE",
"227 515 LINE",
"233 515 LINE",
"439 116 LINE",
"517 116 LINE",
"722 515 LINE",
"728 515 LINE",
"728 0 LINE",
"851 0 LINE",
"851 705 LINE",
"711 705 LINE",
"482 253 LINE",
"476 253 LINE",
"246 705 LINE",
"104 705 LINE",
"104 0 LINE"
);
}
);
width = 955.44509;
}
);
leftKerningGroup = H;
leftMetricsKey = "=H+2";
rightKerningGroup = H;
rightMetricsKey = "=H+2";
unicode = 004D;
userData = {
anchors = (
);
b = {
};
com.typemytype.robofont.layerData = {
b = {
anchors = (
);
components = (
);
contours = (
);
lib = {
};
name = M;
unicodes = (
);
width = 1899;
};
};
components = (
);
contours = (
);
lib = {
};
name = M;
unicodes = (
);
width = 1984;
};
},
{
color = 5;
glyphname = N;
lastChange = "2019-10-11 14:01:53 +0000";
layers = (
{
anchors = (
{
name = bottom;
position = "{416, 0}";
},
{
name = top;
position = "{416, 705}";
}
);
background = {
anchors = (
{
name = bottom;
position = "{387, 0}";
},
{
name = top;
position = "{387, 705}";
}
);
paths = (
{
closed = 1;
nodes = (
"156 0 LINE",
"156 663 LINE",
"135 663 LINE",
"623 0 LINE",
"657 0 LINE",
"657 705 LINE",
"618 705 LINE",
"618 42 LINE",
"640 42 LINE",
"152 705 LINE",
"117 705 LINE",
"117 0 LINE"
);
}
);
};
layerId = "B0DFB0A8-5D2F-4351-A1F8-6629D0DA694C";
paths = (
{
closed = 1;
nodes = (
"172 0 LINE",
"172 621 LINE",
"176 621 LINE",
"650 0 LINE",
"702 0 LINE",
"702 705 LINE",
"652 705 LINE",
"652 84 LINE",
"648 84 LINE",
"175 705 LINE",
"122 705 LINE",
"122 0 LINE"
);
}
);
width = 824;
},
{
anchors = (
{
name = bottom;
position = "{425, 0}";
},
{
name = top;
position = "{434, 705}";
}
);
background = {
anchors = (
{
name = bottom;
position = "{395, 0}";
},
{
name = top;
position = "{394, 705}";
}
);
paths = (
{
closed = 1;
nodes = (
"272 0 LINE",
"272 419 LINE",
"241 388 LINE",
"560 0 LINE",
"719 0 LINE",
"719 705 LINE",
"517 705 LINE",
"517 286 LINE",
"547 316 LINE",
"225 705 LINE",
"70 705 LINE",
"70 0 LINE"
);
}
);
};
layerId = "443F1CD3-8514-4C65-8D84-A41CDF68FD19";
paths = (
{
closed = 1;
nodes = (
"286 0 LINE",
"286 355 LINE",
"294 355 LINE",
"600 0 LINE",
"769 0 LINE",
"769 705 LINE",
"563 705 LINE",
"563 334 LINE",
"555 334 LINE",
"235 705 LINE",
"80 705 LINE",
"80 0 LINE"
);
}
);
width = 849;
},
{
anchors = (
{
name = bottom;
position = "{420, 0}";
},
{
name = top;
position = "{425, 705}";
}
);
layerId = "083469E7-71E8-468C-B15D-61E35EC0B921";
paths = (
{
closed = 1;
nodes = (
"226 0 LINE",
"226 495 LINE",
"232 495 LINE",
"626 0 LINE",
"734 0 LINE",
"734 705 LINE",
"610 705 LINE",
"610 202 LINE",
"604 202 LINE",
"203 705 LINE",
"102 705 LINE",
"102 0 LINE"
);
}
);
width = 835.84971;
}
);
leftKerningGroup = H;
leftMetricsKey = H;
rightKerningGroup = H;
rightMetricsKey = H;
unicode = 004E;
userData = {
anchors = (
);
b = {
};
com.typemytype.robofont.layerData = {
b = {
anchors = (
);
components = (
);
contours = (
);
lib = {
};
name = N;
unicodes = (
);
width = 1499;
};
};
components = (
);
contours = (
);
lib = {
};
name = N;
unicodes = (
);
width = 1557;
};
},
{
color = 5;
glyphname = Eng;
lastChange = "2019-10-11 14:01:53 +0000";
layers = (
{
anchors = (
{
name = bottom;
position = "{416, 0}";
},
{
name = top;
position = "{416, 705}";
}
);
background = {
anchors = (
{
name = bottom;
position = "{382, 0}";
},
{
name = top;
position = "{382, 705}";
}
);
paths = (
{
closed = 1;
nodes = (
"652 705 LINE",
"613 705 LINE",
"613 42 LINE",
"635 42 LINE",
"147 705 LINE",
"112 705 LINE",
"112 0 LINE",
"151 0 LINE",
"151 663 LINE",
"130 663 LINE",
"618 0 LINE",
"613 25 LINE",
"613 -22 LINE SMOOTH",
"613 -102 OFFCURVE",
"575 -147 OFFCURVE",
"505 -152 CURVE SMOOTH",
"464 -155 LINE",
"467 -193 LINE",
"510 -190 LINE SMOOTH",
"600 -184 OFFCURVE",
"652 -124 OFFCURVE",
"652 -21 CURVE SMOOTH"
);
}
);
};
layerId = "B0DFB0A8-5D2F-4351-A1F8-6629D0DA694C";
paths = (
{
closed = 1;
nodes = (
"702 705 LINE",
"652 705 LINE",
"652 84 LINE",
"648 84 LINE",
"174 705 LINE",
"122 705 LINE",
"122 0 LINE",
"172 0 LINE",
"172 621 LINE",
"176 621 LINE",
"660 -16 LINE",
"652 45 LINE",
"652 -23 LINE SMOOTH",
"652 -103 OFFCURVE",
"613 -131 OFFCURVE",
"545 -139 CURVE SMOOTH",
"504 -144 LINE",
"507 -193 LINE",
"550 -188 LINE SMOOTH",
"644 -177 OFFCURVE",
"702 -120 OFFCURVE",
"702 -21 CURVE SMOOTH"
);
}
);
width = 824;
},
{
anchors = (
{
name = bottom;
position = "{425, 0}";
},
{
name = top;
position = "{434, 705}";
}
);
background = {
paths = (
{
closed = 1;
nodes = (
"516 494 LINE",
"516 13 LINE SMOOTH",
"516 -19 OFFCURVE",
"503 -33 OFFCURVE",
"467 -37 CURVE SMOOTH",
"417 -43 LINE",
"431 -188 LINE",
"475 -185 LINE SMOOTH",
"665 -172 OFFCURVE",
"724 -115 OFFCURVE",
"724 44 CURVE SMOOTH",
"724 494 LINE"
);
}
);
};
layerId = "443F1CD3-8514-4C65-8D84-A41CDF68FD19";
paths = (
{
closed = 1;
nodes = (
"769 705 LINE",
"563 705 LINE",
"563 342 LINE",
"555 342 LINE",
"235 705 LINE",
"80 705 LINE",
"80 0 LINE",
"286 0 LINE",
"286 359 LINE",
"294 359 LINE",
"590 26 LINE",
"564 73 LINE",
"564 6 LINE SMOOTH",
"564 -24 OFFCURVE",
"545 -33 OFFCURVE",
"512 -37 CURVE SMOOTH",
"462 -43 LINE",
"476 -188 LINE",
"520 -185 LINE SMOOTH",
"769 -168 OFFCURVE",
"769 -54 OFFCURVE",
"769 44 CURVE SMOOTH"
);
}
);
width = 849;
},
{
anchors = (
{
name = bottom;
position = "{420, 0}";
},
{
name = top;
position = "{425, 705}";
}
);
layerId = "083469E7-71E8-468C-B15D-61E35EC0B921";
paths = (
{
closed = 1;
nodes = (
"734 705 LINE",
"610 705 LINE",
"610 206 LINE",
"604 206 LINE",
"203 705 LINE",
"102 705 LINE",
"102 0 LINE",
"226 0 LINE",
"226 497 LINE",
"232 497 LINE",
"627 4 LINE",
"610 58 LINE",
"610 -9 LINE SMOOTH",
"610 -66 OFFCURVE",
"581 -85 OFFCURVE",
"529 -91 CURVE SMOOTH",
"484 -96 LINE",
"492 -191 LINE",
"536 -187 LINE SMOOTH",
"703 -173 OFFCURVE",
"734 -89 OFFCURVE",
"734 10 CURVE SMOOTH"
);
}
);
width = 835.84971;
}
);
leftKerningGroup = H;
leftMetricsKey = N;
widthMetricsKey = N;
rightKerningGroup = H;
unicode = 014A;
userData = {
com.typemytype.robofont.layerData = {
b = {
anchors = (
);
components = (
);
contours = (
);
lib = {
};
name = Eng;
unicodes = (
);
width = 1495;
};
};
};
},
{
color = 5;
glyphname = O;
lastChange = "2019-10-11 14:01:53 +0000";
layers = (
{
anchors = (
{
name = Qtail;
position = "{415, -8}";
},
{
name = bottom;
position = "{404, 0}";
},
{
name = center;
position = "{416, 359}";
},
{
name = ogonek;
position = "{474, 0}";
},
{
name = top;
position = "{404, 705}";
},
{
name = topleft;
position = "{38, 705}";
},
{
name = topright;
position = "{477, 705}";
}
);
background = {
anchors = (
{
name = Qtail;
position = "{375, -8}";
},
{
name = bottom;
position = "{375, 0}";
},
{
name = center;
position = "{376, 353}";
},
{
name = ogonek;
position = "{430, 0}";
},
{
name = top;
position = "{375, 705}";
},
{
name = topleft;
position = "{26, 705}";
},
{
name = topright;
position = "{449, 705}";
}
);
paths = (
{
closed = 1;
nodes = (
"566 -8 OFFCURVE",
"684 130 OFFCURVE",
"684 353 CURVE SMOOTH",
"684 576 OFFCURVE",
"567 713 OFFCURVE",
"375 713 CURVE SMOOTH",
"183 713 OFFCURVE",
"67 576 OFFCURVE",
"67 352 CURVE SMOOTH",
"67 130 OFFCURVE",
"185 -8 OFFCURVE",
"375 -8 CURVE SMOOTH"
);
},
{
closed = 1;
nodes = (
"208 33 OFFCURVE",
"112 151 OFFCURVE",
"112 353 CURVE SMOOTH",
"112 555 OFFCURVE",
"208 672 OFFCURVE",
"375 672 CURVE SMOOTH",
"544 672 OFFCURVE",
"639 556 OFFCURVE",
"639 353 CURVE SMOOTH",
"639 150 OFFCURVE",
"543 33 OFFCURVE",
"375 33 CURVE SMOOTH"
);
}
);
};
layerId = "B0DFB0A8-5D2F-4351-A1F8-6629D0DA694C";
paths = (
{
closed = 1;
nodes = (
"603 -8 OFFCURVE",
"720 126 OFFCURVE",
"720 353 CURVE SMOOTH",
"720 579 OFFCURVE",
"604 713 OFFCURVE",
"404 713 CURVE SMOOTH",
"204 713 OFFCURVE",
"89 579 OFFCURVE",
"89 352 CURVE SMOOTH",
"89 126 OFFCURVE",
"206 -8 OFFCURVE",
"404 -8 CURVE SMOOTH"
);
},
{
closed = 1;
nodes = (
"240 43 OFFCURVE",
"144 148 OFFCURVE",
"144 353 CURVE SMOOTH",
"144 558 OFFCURVE",
"240 662 OFFCURVE",
"404 662 CURVE SMOOTH",
"570 662 OFFCURVE",
"665 559 OFFCURVE",
"665 353 CURVE SMOOTH",
"665 147 OFFCURVE",
"569 43 OFFCURVE",
"404 43 CURVE SMOOTH"
);
}
);
width = 809;
},
{
anchors = (
{
name = Qtail;
position = "{439, -10}";
},
{
name = bottom;
position = "{439, 0}";
},
{
name = center;
position = "{439, 353}";
},
{
name = ogonek;
position = "{504, 0}";
},
{
name = top;
position = "{438, 705}";
},
{
name = topleft;
position = "{48, 705}";
},
{
name = topright;
position = "{525, 705}";
}
);
background = {
anchors = (
{
name = Qtail;
position = "{417, -10}";
},
{
name = bottom;
position = "{417, 0}";
},
{
name = center;
position = "{417, 353}";
},
{
name = ogonek;
position = "{487, 37}";
},
{
name = top;
position = "{416, 705}";
},
{
name = topleft;
position = "{33, 705}";
},
{
name = topright;
position = "{480, 705}";
}
);
paths = (
{
closed = 1;
nodes = (
"652 -10 OFFCURVE",
"790 133 OFFCURVE",
"790 353 CURVE SMOOTH",
"790 573 OFFCURVE",
"652 715 OFFCURVE",
"429 715 CURVE SMOOTH",
"206 715 OFFCURVE",
"66 573 OFFCURVE",
"66 354 CURVE SMOOTH",
"66 133 OFFCURVE",
"205 -10 OFFCURVE",
"429 -10 CURVE SMOOTH"
);
},
{
closed = 1;
nodes = (
"340 154 OFFCURVE",
"281 216 OFFCURVE",
"281 353 CURVE SMOOTH",
"281 490 OFFCURVE",
"340 551 OFFCURVE",
"429 551 CURVE SMOOTH",
"517 551 OFFCURVE",
"577 488 OFFCURVE",
"577 353 CURVE SMOOTH",
"577 218 OFFCURVE",
"518 154 OFFCURVE",
"429 154 CURVE SMOOTH"
);
}
);
};
layerId = "443F1CD3-8514-4C65-8D84-A41CDF68FD19";
paths = (
{
closed = 1;
nodes = (
"660 -12 OFFCURVE",
"818 133 OFFCURVE",
"818 354 CURVE SMOOTH",
"818 573 OFFCURVE",
"659 717 OFFCURVE",
"439 717 CURVE SMOOTH",
"219 717 OFFCURVE",
"60 573 OFFCURVE",
"60 354 CURVE SMOOTH",
"60 133 OFFCURVE",
"218 -12 OFFCURVE",
"439 -12 CURVE SMOOTH"
);
},
{
closed = 1;
nodes = (
"344 178 OFFCURVE",
"288 244 OFFCURVE",
"288 353 CURVE SMOOTH",
"288 463 OFFCURVE",
"344 527 OFFCURVE",
"439 527 CURVE SMOOTH",
"534 527 OFFCURVE",
"590 463 OFFCURVE",
"590 353 CURVE SMOOTH",
"590 244 OFFCURVE",
"534 178 OFFCURVE",
"439 178 CURVE SMOOTH"
);
}
);
width = 878;
},
{
anchors = (
{
name = Qtail;
position = "{426, -9}";
},
{
name = bottom;
position = "{421, 0}";
},
{
name = center;
position = "{427, 356}";
},
{
name = ogonek;
position = "{488, 0}";
},
{
name = top;
position = "{420, 705}";
},
{
name = topleft;
position = "{43, 705}";
},
{
name = topright;
position = "{500, 705}";
}
);
layerId = "083469E7-71E8-468C-B15D-61E35EC0B921";
paths = (
{
closed = 1;
nodes = (
"630 -10 OFFCURVE",
"766 129 OFFCURVE",
"766 353 CURVE SMOOTH",
"766 576 OFFCURVE",
"630 715 OFFCURVE",
"421 715 CURVE SMOOTH",
"211 715 OFFCURVE",
"75 576 OFFCURVE",
"75 353 CURVE SMOOTH",
"75 129 OFFCURVE",
"212 -10 OFFCURVE",
"421 -10 CURVE SMOOTH"
);
},
{
closed = 1;
nodes = (
"289 107 OFFCURVE",
"212 194 OFFCURVE",
"212 353 CURVE SMOOTH",
"212 513 OFFCURVE",
"289 598 OFFCURVE",
"421 598 CURVE SMOOTH",
"553 598 OFFCURVE",
"629 513 OFFCURVE",
"629 353 CURVE SMOOTH",
"629 193 OFFCURVE",
"552 107 OFFCURVE",
"421 107 CURVE SMOOTH"
);
}
);
width = 841.7052;
}
);
leftKerningGroup = O;
rightKerningGroup = O;
unicode = 004F;
userData = {
anchors = (
);
b = {
};
com.typemytype.robofont.guides = (
);
com.typemytype.robofont.layerData = {
b = {
anchors = (
);
components = (
);
contours = (
);
lib = {
};
name = O;
unicodes = (
);
width = 1597;
};
};
components = (
);
contours = (
);
lib = {
};
name = O;
unicodes = (
);
width = 1604;
};
},
{
color = 2;
glyphname = Oslash;
lastChange = "2019-10-11 14:01:53 +0000";
layers = (
{
background = {
components = (
{
name = O;
},
{
name = slashlongcomb.case;
}
);
};
components = (
{
name = O;
},
{
name = slashlongcomb.case;
transform = "{1, 0, 0, 1, 40, 6}";
}
);
layerId = "B0DFB0A8-5D2F-4351-A1F8-6629D0DA694C";
width = 809;
},
{
background = {
paths = (
{
closed = 1;
nodes = (
"627 -10 OFFCURVE",
"765 133 OFFCURVE",
"765 353 CURVE SMOOTH",
"765 573 OFFCURVE",
"627 715 OFFCURVE",
"404 715 CURVE SMOOTH",
"181 715 OFFCURVE",
"41 573 OFFCURVE",
"41 354 CURVE SMOOTH",
"41 133 OFFCURVE",
"180 -10 OFFCURVE",
"404 -10 CURVE SMOOTH"
);
},
{
closed = 1;
nodes = (
"315 154 OFFCURVE",
"256 216 OFFCURVE",
"256 353 CURVE SMOOTH",
"256 490 OFFCURVE",
"315 551 OFFCURVE",
"404 551 CURVE SMOOTH",
"492 551 OFFCURVE",
"552 488 OFFCURVE",
"552 353 CURVE SMOOTH",
"552 218 OFFCURVE",
"493 154 OFFCURVE",
"404 154 CURVE SMOOTH"
);
},
{
closed = 1;
nodes = (
"201 709 LINE",
"67 789 LINE",
"-394 -4 LINE",
"-261 -84 LINE"
);
},
{
closed = 1;
nodes = (
"320 54 LINE",
"359 139 LINE",
"701 709 LINE",
"567 789 LINE",
"246 219 LINE",
"187 134 LINE",
"106 -4 LINE",
"239 -84 LINE"
);
}
);
};
components = (
{
name = O;
},
{
name = slashlongcomb.case;
transform = "{1, 0, 0, 1, 35, 0}";
}
);
layerId = "443F1CD3-8514-4C65-8D84-A41CDF68FD19";
width = 878;
},
{
components = (
{
name = O;
},
{
name = slashlongcomb.case;
transform = "{1, 0, 0, 1, 38, 3}";
}
);
layerId = "083469E7-71E8-468C-B15D-61E35EC0B921";
width = 842;
}
);
leftKerningGroup = O;
rightKerningGroup = O;
unicode = 00D8;
userData = {
com.typemytype.robofont.layerData = {
b = {
anchors = (
);
components = (
);
contours = (
);
lib = {
};
name = Oslash;
unicodes = (
);
width = 1597;
};
};
};
},
{
color = 5;
glyphname = OE;
lastChange = "2019-10-11 14:01:53 +0000";
layers = (
{
anchors = (
{
name = bottom;
position = "{631, 0}";
},
{
name = top;
position = "{631, 705}";
}
);
background = {
anchors = (
{
name = bottom;
position = "{621, 0}";
},
{
name = top;
position = "{621, 705}";
}
);
paths = (
{
closed = 1;
nodes = (
"1023 705 LINE",
"459 705 LINE SMOOTH",
"223 705 OFFCURVE",
"101 580 OFFCURVE",
"101 353 CURVE SMOOTH",
"101 127 OFFCURVE",
"224 0 OFFCURVE",
"459 0 CURVE SMOOTH",
"1023 0 LINE",
"1023 39 LINE",
"641 39 LINE",
"641 338 LINE",
"1003 338 LINE",
"1003 377 LINE",
"641 377 LINE",
"641 666 LINE",
"1023 666 LINE"
);
},
{
closed = 1;
nodes = (
"457 39 LINE SMOOTH",
"247 39 OFFCURVE",
"146 145 OFFCURVE",
"146 353 CURVE SMOOTH",
"146 562 OFFCURVE",
"246 666 OFFCURVE",
"457 666 CURVE SMOOTH",
"599 666 LINE",
"599 39 LINE"
);
}
);
};
layerId = "B0DFB0A8-5D2F-4351-A1F8-6629D0DA694C";
paths = (
{
closed = 1;
nodes = (
"1053 705 LINE",
"434 705 LINE SMOOTH",
"214 705 OFFCURVE",
"89 578 OFFCURVE",
"89 352 CURVE SMOOTH",
"89 126 OFFCURVE",
"212 0 OFFCURVE",
"434 0 CURVE SMOOTH",
"1053 0 LINE",
"1053 50 LINE",
"661 50 LINE",
"661 332 LINE",
"1033 332 LINE",
"1033 382 LINE",
"661 382 LINE",
"661 655 LINE",
"1053 655 LINE"
);
},
{
closed = 1;
nodes = (
"435 50 LINE SMOOTH",
"245 50 OFFCURVE",
"144 144 OFFCURVE",
"144 352 CURVE SMOOTH",
"144 560 OFFCURVE",
"246 655 OFFCURVE",
"435 655 CURVE SMOOTH",
"609 655 LINE",
"609 50 LINE"
);
}
);
width = 1143;
},
{
anchors = (
{
name = bottom;
position = "{620, 0}";
},
{
name = top;
position = "{620, 705}";
}
);
background = {
paths = (
{
closed = 1;
nodes = (
"1050 705 LINE",
"505 705 LINE",
"505 0 LINE",
"1050 0 LINE",
"1050 180 LINE",
"727 180 LINE",
"727 268 LINE",
"1027 268 LINE",
"1027 444 LINE",
"727 444 LINE",
"727 525 LINE",
"1050 525 LINE"
);
}
);
};
layerId = "443F1CD3-8514-4C65-8D84-A41CDF68FD19";
paths = (
{
closed = 1;
nodes = (
"1055 705 LINE",
"443 705 LINE SMOOTH",
"186 705 OFFCURVE",
"60 542 OFFCURVE",
"60 353 CURVE SMOOTH",
"60 164 OFFCURVE",
"186 0 OFFCURVE",
"443 0 CURVE SMOOTH",
"1055 0 LINE",
"1055 176 LINE",
"730 176 LINE",
"730 270 LINE",
"1032 270 LINE",
"1032 442 LINE",
"730 442 LINE",
"730 529 LINE",
"1055 529 LINE"
);
},
{
closed = 1;
nodes = (
"458 186 LINE SMOOTH",
"340 186 OFFCURVE",
"288 253 OFFCURVE",
"288 353 CURVE SMOOTH",
"288 453 OFFCURVE",
"340 519 OFFCURVE",
"458 519 CURVE SMOOTH",
"515 519 LINE",
"515 186 LINE"
);
}
);
width = 1128;
},
{
anchors = (
{
name = bottom;
position = "{626, 0}";
},
{
name = top;
position = "{626, 705}";
}
);
layerId = "083469E7-71E8-468C-B15D-61E35EC0B921";
paths = (
{
closed = 1;
nodes = (
"1054 705 LINE",
"438 705 LINE SMOOTH",
"201 705 OFFCURVE",
"75 561 OFFCURVE",
"75 352 CURVE SMOOTH",
"75 144 OFFCURVE",
"200 0 OFFCURVE",
"438 0 CURVE SMOOTH",
"1054 0 LINE",
"1054 110 LINE",
"694 110 LINE",
"694 303 LINE",
"1033 303 LINE",
"1033 410 LINE",
"694 410 LINE",
"694 595 LINE",
"1054 595 LINE"
);
},
{
closed = 1;
nodes = (
"446 114 LINE SMOOTH",
"290 114 OFFCURVE",
"212 196 OFFCURVE",
"212 352 CURVE SMOOTH",
"212 509 OFFCURVE",
"291 591 OFFCURVE",
"446 591 CURVE SMOOTH",
"564 591 LINE",
"564 114 LINE"
);
}
);
width = 1135.89017;
}
);
leftKerningGroup = O;
leftMetricsKey = O;
rightKerningGroup = E;
rightMetricsKey = E;
unicode = 0152;
},
{
color = 5;
glyphname = P;
lastChange = "2019-10-11 14:01:53 +0000";
layers = (
{
anchors = (
{
name = bottom;
position = "{346, 0}";
},
{
name = top;
position = "{346, 705}";
}
);
background = {
anchors = (
{
name = bottom;
position = "{336, 0}";
},
{
name = top;
position = "{336, 705}";
}
);
paths = (
{
closed = 1;
nodes = (
"116 705 LINE",
"116 0 LINE",
"158 0 LINE",
"158 303 LINE",
"370 303 LINE SMOOTH",
"517 303 OFFCURVE",
"599 376 OFFCURVE",
"599 505 CURVE SMOOTH",
"599 634 OFFCURVE",
"518 705 OFFCURVE",
"370 705 CURVE SMOOTH"
);
},
{
closed = 1;
nodes = (
"158 342 LINE",
"158 666 LINE",
"369 666 LINE SMOOTH",
"493 666 OFFCURVE",
"555 611 OFFCURVE",
"555 505 CURVE SMOOTH",
"555 399 OFFCURVE",
"493 342 OFFCURVE",
"369 342 CURVE SMOOTH"
);
}
);
};
layerId = "B0DFB0A8-5D2F-4351-A1F8-6629D0DA694C";
paths = (
{
closed = 1;
nodes = (
"122 705 LINE",
"122 0 LINE",
"174 0 LINE",
"174 293 LINE",
"392 293 LINE SMOOTH",
"539 293 OFFCURVE",
"626 371 OFFCURVE",
"626 500 CURVE SMOOTH",
"626 629 OFFCURVE",
"540 705 OFFCURVE",
"392 705 CURVE SMOOTH"
);
},
{
closed = 1;
nodes = (
"174 343 LINE",
"174 655 LINE",
"386 655 LINE SMOOTH",
"508 655 OFFCURVE",
"572 606 OFFCURVE",
"572 500 CURVE SMOOTH",
"572 394 OFFCURVE",
"508 343 OFFCURVE",
"386 343 CURVE SMOOTH"
);
}
);
width = 698;
},
{
anchors = (
{
name = bottom;
position = "{371, 0}";
},
{
name = top;
position = "{370, 705}";
}
);
background = {
anchors = (
{
name = bottom;
position = "{361, 0}";
},
{
name = top;
position = "{360, 705}";
}
);
paths = (
{
closed = 1;
nodes = (
"70 705 LINE",
"70 0 LINE",
"285 0 LINE",
"285 245 LINE",
"430 245 LINE SMOOTH",
"587 245 OFFCURVE",
"681 332 OFFCURVE",
"681 474 CURVE SMOOTH",
"681 618 OFFCURVE",
"588 705 OFFCURVE",
"430 705 CURVE SMOOTH"
);
},
{
closed = 1;
nodes = (
"285 404 LINE",
"285 544 LINE",
"400 544 LINE SMOOTH",
"455 544 OFFCURVE",
"481 522 OFFCURVE",
"481 473 CURVE SMOOTH",
"481 425 OFFCURVE",
"454 404 OFFCURVE",
"400 404 CURVE SMOOTH"
);
}
);
};
layerId = "443F1CD3-8514-4C65-8D84-A41CDF68FD19";
paths = (
{
closed = 1;
nodes = (
"80 705 LINE",
"80 0 LINE",
"305 0 LINE",
"305 221 LINE",
"460 221 LINE SMOOTH",
"617 221 OFFCURVE",
"721 323 OFFCURVE",
"721 467 CURVE SMOOTH",
"721 613 OFFCURVE",
"618 705 OFFCURVE",
"460 705 CURVE SMOOTH"
);
},
{
closed = 1;
nodes = (
"305 391 LINE",
"305 535 LINE",
"419 535 LINE SMOOTH",
"474 535 OFFCURVE",
"500 509 OFFCURVE",
"500 462 CURVE SMOOTH",
"500 415 OFFCURVE",
"473 391 OFFCURVE",
"419 391 CURVE SMOOTH"
);
}
);
width = 763;
},
{
anchors = (
{
name = bottom;
position = "{358, 0}";
},
{
name = top;
position = "{357, 705}";
}
);
layerId = "083469E7-71E8-468C-B15D-61E35EC0B921";
paths = (
{
closed = 1;
nodes = (
"102 705 LINE",
"102 0 LINE",
"236 0 LINE",
"236 259 LINE",
"424 259 LINE SMOOTH",
"576 259 OFFCURVE",
"671 348 OFFCURVE",
"671 484 CURVE SMOOTH",
"671 621 OFFCURVE",
"577 705 OFFCURVE",
"424 705 CURVE SMOOTH"
);
},
{
closed = 1;
nodes = (
"236 366 LINE",
"236 598 LINE",
"402 598 LINE SMOOTH",
"492 598 OFFCURVE",
"538 560 OFFCURVE",
"538 482 CURVE SMOOTH",
"538 404 OFFCURVE",
"491 366 OFFCURVE",
"402 366 CURVE SMOOTH"
);
}
);
width = 728.80925;
}
);
leftKerningGroup = H;
leftMetricsKey = H;
rightKerningGroup = P;
unicode = 0050;
userData = {
anchors = (
);
b = {
};
com.typemytype.robofont.layerData = {
b = {
anchors = (
);
components = (
);
contours = (
{
points = (
{
segmentType = curve;
smooth = 1;
x = 266;
y = 0;
},
{
segmentType = line;
smooth = 1;
x = 1035;
y = 0;
},
{
smooth = 0;
x = 1084;
y = 0;
},
{
smooth = 0;
x = 1108;
y = 34;
},
{
segmentType = curve;
smooth = 1;
x = 1108;
y = 71;
},
{
smooth = 0;
x = 1108;
y = 107;
},
{
smooth = 0;
x = 1084;
y = 141;
},
{
segmentType = curve;
smooth = 1;
x = 1035;
y = 141;
},
{
segmentType = line;
smooth = 0;
x = 356;
y = 141;
},
{
segmentType = line;
smooth = 0;
x = 356;
y = 665;
},
{
segmentType = line;
smooth = 1;
x = 975;
y = 665;
},
{
smooth = 0;
x = 1024;
y = 665;
},
{
smooth = 0;
x = 1049;
y = 698;
},
{
segmentType = curve;
smooth = 1;
x = 1049;
y = 734;
},
{
smooth = 0;
x = 1049;
y = 770;
},
{
smooth = 0;
x = 1026;
y = 803;
},
{
segmentType = curve;
smooth = 1;
x = 975;
y = 803;
},
{
segmentType = line;
smooth = 0;
x = 356;
y = 803;
},
{
segmentType = line;
smooth = 0;
x = 356;
y = 1285;
},
{
segmentType = line;
smooth = 1;
x = 1007;
y = 1285;
},
{
smooth = 0;
x = 1056;
y = 1285;
},
{
smooth = 0;
x = 1080;
y = 1319;
},
{
segmentType = curve;
smooth = 1;
x = 1080;
y = 1356;
},
{
smooth = 0;
x = 1080;
y = 1392;
},
{
smooth = 0;
x = 1056;
y = 1426;
},
{
segmentType = curve;
smooth = 1;
x = 1007;
y = 1426;
},
{
segmentType = line;
smooth = 1;
x = 261;
y = 1426;
},
{
smooth = 0;
x = 213;
y = 1426;
},
{
smooth = 0;
x = 178;
y = 1383;
},
{
segmentType = curve;
smooth = 1;
x = 178;
y = 1340;
},
{
segmentType = line;
smooth = 1;
x = 178;
y = 86;
},
{
smooth = 0;
x = 178;
y = 41;
},
{
smooth = 0;
x = 222;
y = 0;
}
);
}
);
lib = {
};
name = P;
unicodes = (
);
width = 1201;
};
};
components = (
);
contours = (
);
lib = {
};
name = P;
unicodes = (
);
width = 1319;
};
},
{
color = 5;
glyphname = Thorn;
lastChange = "2019-10-11 14:01:53 +0000";
layers = (
{
anchors = (
{
name = bottom;
position = "{342, 0}";
},
{
name = top;
position = "{342, 705}";
}
);
background = {
paths = (
{
closed = 1;
nodes = (
"154 566 LINE",
"154 705 LINE",
"112 705 LINE",
"112 0 LINE",
"154 0 LINE",
"154 164 LINE",
"366 164 LINE SMOOTH",
"513 164 OFFCURVE",
"595 237 OFFCURVE",
"595 366 CURVE SMOOTH",
"595 495 OFFCURVE",
"514 566 OFFCURVE",
"366 566 CURVE SMOOTH"
);
},
{
closed = 1;
nodes = (
"154 203 LINE",
"154 527 LINE",
"365 527 LINE SMOOTH",
"489 527 OFFCURVE",
"551 472 OFFCURVE",
"551 366 CURVE SMOOTH",
"551 260 OFFCURVE",
"489 203 OFFCURVE",
"365 203 CURVE SMOOTH"
);
}
);
};
layerId = "B0DFB0A8-5D2F-4351-A1F8-6629D0DA694C";
paths = (
{
closed = 1;
nodes = (
"174 568 LINE",
"174 705 LINE",
"122 705 LINE",
"122 0 LINE",
"174 0 LINE",
"174 164 LINE",
"392 164 LINE SMOOTH",
"539 164 OFFCURVE",
"626 238 OFFCURVE",
"626 367 CURVE SMOOTH",
"626 496 OFFCURVE",
"540 568 OFFCURVE",
"392 568 CURVE SMOOTH"
);
},
{
closed = 1;
nodes = (
"174 214 LINE",
"174 518 LINE",
"386 518 LINE SMOOTH",
"508 518 OFFCURVE",
"572 473 OFFCURVE",
"572 367 CURVE SMOOTH",
"572 261 OFFCURVE",
"508 214 OFFCURVE",
"386 214 CURVE SMOOTH"
);
}
);
width = 682;
},
{
anchors = (
{
name = bottom;
position = "{391, 0}";
},
{
name = top;
position = "{390, 705}";
}
);
background = {
paths = (
{
closed = 0;
nodes = (
"281 142 LINE",
"426 142 LINE SMOOTH",
"583 142 OFFCURVE",
"681 224 OFFCURVE",
"681 357 CURVE SMOOTH",
"681 492 OFFCURVE",
"585 574 OFFCURVE",
"426 574 CURVE SMOOTH",
"281 574 LINE"
);
},
{
closed = 1;
nodes = (
"281 303 LINE",
"281 413 LINE",
"387 413 LINE SMOOTH",
"453 413 OFFCURVE",
"481 397 OFFCURVE",
"481 357 CURVE SMOOTH",
"481 317 OFFCURVE",
"453 303 OFFCURVE",
"387 303 CURVE SMOOTH"
);
}
);
};
layerId = "443F1CD3-8514-4C65-8D84-A41CDF68FD19";
paths = (
{
closed = 1;
nodes = (
"305 605 LINE",
"305 705 LINE",
"80 705 LINE",
"80 0 LINE",
"305 0 LINE",
"305 121 LINE",
"460 121 LINE SMOOTH",
"617 121 OFFCURVE",
"721 223 OFFCURVE",
"721 367 CURVE SMOOTH",
"721 513 OFFCURVE",
"618 605 OFFCURVE",
"460 605 CURVE SMOOTH"
);
},
{
closed = 1;
nodes = (
"305 291 LINE",
"305 435 LINE",
"419 435 LINE SMOOTH",
"474 435 OFFCURVE",
"500 409 OFFCURVE",
"500 362 CURVE SMOOTH",
"500 315 OFFCURVE",
"473 291 OFFCURVE",
"419 291 CURVE SMOOTH"
);
}
);
width = 763;
},
{
anchors = (
{
name = bottom;
position = "{365, 0}";
},
{
name = top;
position = "{365, 705}";
}
);
layerId = "083469E7-71E8-468C-B15D-61E35EC0B921";
paths = (
{
closed = 1;
nodes = (
"236 586 LINE",
"236 705 LINE",
"102 705 LINE",
"102 0 LINE",
"236 0 LINE",
"236 144 LINE",
"424 144 LINE SMOOTH",
"576 144 OFFCURVE",
"671 231 OFFCURVE",
"671 367 CURVE SMOOTH",
"671 504 OFFCURVE",
"577 586 OFFCURVE",
"424 586 CURVE SMOOTH"
);
},
{
closed = 1;
nodes = (
"236 250 LINE",
"236 479 LINE",
"402 479 LINE SMOOTH",
"492 479 OFFCURVE",
"538 443 OFFCURVE",
"538 365 CURVE SMOOTH",
"538 287 OFFCURVE",
"491 250 OFFCURVE",
"402 250 CURVE SMOOTH"
);
}
);
width = 720.39306;
}
);
leftKerningGroup = H;
leftMetricsKey = H;
rightKerningGroup = THORN;
unicode = 00DE;
},
{
color = 5;
glyphname = R;
lastChange = "2019-10-11 14:01:53 +0000";
layers = (
{
anchors = (
{
name = bottom;
position = "{364, 0}";
},
{
name = top;
position = "{364, 705}";
}
);
background = {
paths = (
{
closed = 1;
nodes = (
"164 0 LINE",
"164 307 LINE",
"326 307 LINE SMOOTH",
"404 307 OFFCURVE",
"441 291 OFFCURVE",
"475 226 CURVE SMOOTH",
"594 0 LINE",
"652 0 LINE",
"524 242 LINE SMOOTH",
"489 308 OFFCURVE",
"449 322 OFFCURVE",
"397 322 CURVE SMOOTH",
"393 322 LINE",
"393 311 LINE",
"537 311 OFFCURVE",
"614 387 OFFCURVE",
"614 510 CURVE SMOOTH",
"614 639 OFFCURVE",
"530 705 OFFCURVE",
"386 705 CURVE SMOOTH",
"112 705 LINE",
"112 0 LINE"
);
},
{
closed = 1;
nodes = (
"164 655 LINE",
"382 655 LINE SMOOTH",
"506 655 OFFCURVE",
"560 615 OFFCURVE",
"560 511 CURVE SMOOTH",
"560 405 OFFCURVE",
"511 356 OFFCURVE",
"390 356 CURVE SMOOTH",
"164 356 LINE"
);
}
);
};
layerId = "B0DFB0A8-5D2F-4351-A1F8-6629D0DA694C";
paths = (
{
closed = 1;
nodes = (
"174 0 LINE",
"174 307 LINE",
"336 307 LINE SMOOTH",
"414 307 OFFCURVE",
"451 291 OFFCURVE",
"485 226 CURVE SMOOTH",
"604 0 LINE",
"662 0 LINE",
"534 242 LINE SMOOTH",
"512 283 OFFCURVE",
"494 300 OFFCURVE",
"470 310 CURVE SMOOTH",
"465 312 LINE",
"465 316 LINE",
"565 335 OFFCURVE",
"624 402 OFFCURVE",
"624 510 CURVE SMOOTH",
"624 639 OFFCURVE",
"540 705 OFFCURVE",
"396 705 CURVE SMOOTH",
"122 705 LINE",
"122 0 LINE"
);
},
{
closed = 1;
nodes = (
"174 655 LINE",
"392 655 LINE SMOOTH",
"516 655 OFFCURVE",
"570 615 OFFCURVE",
"570 511 CURVE SMOOTH",
"570 405 OFFCURVE",
"521 356 OFFCURVE",
"400 356 CURVE SMOOTH",
"174 356 LINE"
);
}
);
width = 728;
},
{
anchors = (
{
name = bottom;
position = "{391, 0}";
},
{
name = top;
position = "{390, 705}";
}
);
background = {
paths = (
{
closed = 1;
nodes = (
"293 0 LINE",
"293 232 LINE",
"340 232 LINE SMOOTH",
"368 232 OFFCURVE",
"389 224 OFFCURVE",
"403 197 CURVE SMOOTH",
"507 0 LINE",
"752 0 LINE",
"639 212 LINE SMOOTH",
"615 257 OFFCURVE",
"591 281 OFFCURVE",
"574 286 CURVE SMOOTH",
"567 288 LINE",
"567 296 LINE",
"634 311 OFFCURVE",
"709 376 OFFCURVE",
"709 481 CURVE SMOOTH",
"709 623 OFFCURVE",
"613 705 OFFCURVE",
"434 705 CURVE SMOOTH",
"68 705 LINE",
"68 0 LINE"
);
}
);
};
layerId = "443F1CD3-8514-4C65-8D84-A41CDF68FD19";
paths = (
{
closed = 1;
nodes = (
"305 0 LINE",
"305 232 LINE",
"352 232 LINE SMOOTH",
"381 232 OFFCURVE",
"401 223 OFFCURVE",
"415 197 CURVE SMOOTH",
"519 0 LINE",
"764 0 LINE",
"651 212 LINE SMOOTH",
"627 257 OFFCURVE",
"607 275 OFFCURVE",
"586 285 CURVE SMOOTH",
"579 288 LINE",
"579 296 LINE",
"646 321 OFFCURVE",
"721 376 OFFCURVE",
"721 481 CURVE SMOOTH",
"721 623 OFFCURVE",
"625 705 OFFCURVE",
"446 705 CURVE SMOOTH",
"80 705 LINE",
"80 0 LINE"
);
},
{
closed = 1;
nodes = (
"305 535 LINE",
"419 535 LINE SMOOTH",
"474 535 OFFCURVE",
"500 511 OFFCURVE",
"500 464 CURVE SMOOTH",
"500 417 OFFCURVE",
"473 395 OFFCURVE",
"419 395 CURVE SMOOTH",
"305 395 LINE"
);
}
);
width = 784;
},
{
anchors = (
{
name = bottom;
position = "{377, 0}";
},
{
name = top;
position = "{376, 705}";
}
);
layerId = "083469E7-71E8-468C-B15D-61E35EC0B921";
paths = (
{
closed = 1;
nodes = (
"236 0 LINE",
"236 271 LINE",
"344 271 LINE SMOOTH",
"398 271 OFFCURVE",
"427 259 OFFCURVE",
"452 212 CURVE SMOOTH",
"564 0 LINE",
"710 0 LINE",
"589 228 LINE SMOOTH",
"567 271 OFFCURVE",
"548 288 OFFCURVE",
"525 298 CURVE SMOOTH",
"519 301 LINE",
"519 307 LINE",
"603 328 OFFCURVE",
"670 390 OFFCURVE",
"670 496 CURVE SMOOTH",
"670 631 OFFCURVE",
"580 705 OFFCURVE",
"420 705 CURVE SMOOTH",
"102 705 LINE",
"102 0 LINE"
);
},
{
closed = 1;
nodes = (
"236 598 LINE",
"405 598 LINE SMOOTH",
"496 598 OFFCURVE",
"537 566 OFFCURVE",
"537 489 CURVE SMOOTH",
"537 411 OFFCURVE",
"498 374 OFFCURVE",
"409 374 CURVE SMOOTH",
"236 374 LINE"
);
}
);
width = 754.54335;
}
);
leftKerningGroup = H;
leftMetricsKey = H;
rightKerningGroup = R;
unicode = 0052;
userData = {
anchors = (
);
b = {
};
com.typemytype.robofont.guides = (
);
com.typemytype.robofont.layerData = {
b = {
anchors = (
);
components = (
);
contours = (
{
points = (
{
segmentType = curve;
smooth = 1;
x = 267;
y = 0;
},
{
smooth = 0;
x = 311;
y = 0;
},
{
smooth = 0;
x = 356;
y = 27;
},
{
segmentType = curve;
smooth = 1;
x = 356;
y = 84;
},
{
segmentType = line;
smooth = 0;
x = 356;
y = 628;
},
{
segmentType = line;
smooth = 1;
x = 669;
y = 628;
},
{
smooth = 0;
x = 962;
y = 628;
},
{
smooth = 0;
x = 1182;
y = 722;
},
{
segmentType = curve;
smooth = 1;
x = 1182;
y = 1026;
},
{
smooth = 0;
x = 1182;
y = 1324;
},
{
smooth = 0;
x = 993;
y = 1426;
},
{
segmentType = curve;
smooth = 1;
x = 684;
y = 1426;
},
{
segmentType = line;
smooth = 1;
x = 268;
y = 1426;
},
{
smooth = 0;
x = 217;
y = 1426;
},
{
smooth = 0;
x = 178;
y = 1387;
},
{
segmentType = curve;
smooth = 1;
x = 178;
y = 1339;
},
{
segmentType = line;
smooth = 1;
x = 178;
y = 84;
},
{
smooth = 0;
x = 178;
y = 28;
},
{
smooth = 0;
x = 222;
y = 0;
}
);
},
{
points = (
{
segmentType = line;
smooth = 0;
x = 356;
y = 764;
},
{
segmentType = line;
smooth = 0;
x = 356;
y = 1285;
},
{
segmentType = line;
smooth = 1;
x = 684;
y = 1285;
},
{
smooth = 0;
x = 914;
y = 1285;
},
{
smooth = 0;
x = 1008;
y = 1210;
},
{
segmentType = curve;
smooth = 1;
x = 1008;
y = 1026;
},
{
smooth = 0;
x = 1008;
y = 838;
},
{
smooth = 0;
x = 901;
y = 764;
},
{
segmentType = curve;
smooth = 1;
x = 670;
y = 764;
}
);
}
);
lib = {
};
name = R;
unicodes = (
);
width = 1363;
};
};
components = (
);
contours = (
);
lib = {
};
name = R;
unicodes = (
);
width = 1408;
};
},
{
color = 5;
glyphname = S;
lastChange = "2019-10-11 14:01:53 +0000";
layers = (
{
anchors = (
{
name = bottom;
position = "{325, 0}";
},
{
name = top;
position = "{347, 705}";
}
);
background = {
paths = (
{
closed = 1;
nodes = (
"477 -8 OFFCURVE",
"569 69 OFFCURVE",
"569 180 CURVE SMOOTH",
"569 294 OFFCURVE",
"478 331 OFFCURVE",
"370 353 CURVE SMOOTH",
"271 373 LINE SMOOTH",
"170 393 OFFCURVE",
"126 435 OFFCURVE",
"126 513 CURVE SMOOTH",
"126 609 OFFCURVE",
"205 672 OFFCURVE",
"323 672 CURVE SMOOTH",
"408 672 OFFCURVE",
"471 647 OFFCURVE",
"534 586 CURVE",
"554 622 LINE",
"497 682 OFFCURVE",
"418 713 OFFCURVE",
"323 713 CURVE SMOOTH",
"182 713 OFFCURVE",
"84 632 OFFCURVE",
"84 513 CURVE SMOOTH",
"84 413 OFFCURVE",
"144 356 OFFCURVE",
"269 331 CURVE SMOOTH",
"368 311 LINE SMOOTH",
"480 288 OFFCURVE",
"527 252 OFFCURVE",
"527 179 CURVE SMOOTH",
"527 91 OFFCURVE",
"458 33 OFFCURVE",
"325 33 CURVE SMOOTH",
"220 33 OFFCURVE",
"157 58 OFFCURVE",
"87 115 CURVE",
"67 79 LINE",
"131 22 OFFCURVE",
"215 -8 OFFCURVE",
"325 -8 CURVE SMOOTH"
);
}
);
};
layerId = "B0DFB0A8-5D2F-4351-A1F8-6629D0DA694C";
paths = (
{
closed = 1;
nodes = (
"493 -8 OFFCURVE",
"589 78 OFFCURVE",
"589 193 CURVE SMOOTH",
"589 283 OFFCURVE",
"528 340 OFFCURVE",
"390 368 CURVE SMOOTH",
"271 392 LINE SMOOTH",
"172 412 OFFCURVE",
"136 450 OFFCURVE",
"136 517 CURVE SMOOTH",
"136 612 OFFCURVE",
"230 662 OFFCURVE",
"347 662 CURVE SMOOTH",
"431 662 OFFCURVE",
"496 641 OFFCURVE",
"554 577 CURVE",
"580 622 LINE",
"522 682 OFFCURVE",
"449 713 OFFCURVE",
"347 713 CURVE SMOOTH",
"197 713 OFFCURVE",
"84 637 OFFCURVE",
"84 519 CURVE SMOOTH",
"84 429 OFFCURVE",
"130 369 OFFCURVE",
"258 342 CURVE SMOOTH",
"378 317 LINE SMOOTH",
"487 294 OFFCURVE",
"537 264 OFFCURVE",
"537 192 CURVE SMOOTH",
"537 100 OFFCURVE",
"464 43 OFFCURVE",
"348 43 CURVE SMOOTH",
"245 43 OFFCURVE",
"163 59 OFFCURVE",
"92 124 CURVE",
"67 79 LINE",
"129 18 OFFCURVE",
"228 -8 OFFCURVE",
"348 -8 CURVE SMOOTH"
);
}
);
width = 657;
},
{
anchors = (
{
name = bottom;
position = "{374, 0}";
},
{
name = top;
position = "{385, 705}";
}
);
background = {
paths = (
{
closed = 1;
nodes = (
"530 -12 OFFCURVE",
"648 84 OFFCURVE",
"648 228 CURVE SMOOTH",
"648 331 OFFCURVE",
"589 407 OFFCURVE",
"442 429 CURVE SMOOTH",
"363 441 LINE SMOOTH",
"285 453 OFFCURVE",
"276 468 OFFCURVE",
"276 491 CURVE SMOOTH",
"276 518 OFFCURVE",
"306 529 OFFCURVE",
"359 529 CURVE SMOOTH",
"424 529 OFFCURVE",
"492 516 OFFCURVE",
"558 483 CURVE",
"621 664 LINE",
"566 697 OFFCURVE",
"458 715 OFFCURVE",
"358 715 CURVE SMOOTH",
"182 715 OFFCURVE",
"55 626 OFFCURVE",
"55 490 CURVE SMOOTH",
"55 381 OFFCURVE",
"112 296 OFFCURVE",
"270 272 CURVE SMOOTH",
"349 260 LINE SMOOTH",
"406 251 OFFCURVE",
"427 242 OFFCURVE",
"427 215 CURVE SMOOTH",
"427 184 OFFCURVE",
"388 174 OFFCURVE",
"331 174 CURVE SMOOTH",
"258 174 OFFCURVE",
"175 190 OFFCURVE",
"107 221 CURVE",
"43 39 LINE",
"107 6 OFFCURVE",
"226 -12 OFFCURVE",
"328 -12 CURVE SMOOTH"
);
}
);
};
layerId = "443F1CD3-8514-4C65-8D84-A41CDF68FD19";
paths = (
{
closed = 1;
nodes = (
"569 -12 OFFCURVE",
"698 84 OFFCURVE",
"698 228 CURVE SMOOTH",
"698 342 OFFCURVE",
"628 407 OFFCURVE",
"491 426 CURVE SMOOTH",
"376 442 LINE SMOOTH",
"314 451 OFFCURVE",
"293 465 OFFCURVE",
"293 492 CURVE SMOOTH",
"293 519 OFFCURVE",
"333 537 OFFCURVE",
"398 537 CURVE SMOOTH",
"474 537 OFFCURVE",
"549 524 OFFCURVE",
"604 491 CURVE",
"669 662 LINE",
"612 695 OFFCURVE",
"503 717 OFFCURVE",
"400 717 CURVE SMOOTH",
"206 717 OFFCURVE",
"73 627 OFFCURVE",
"73 491 CURVE SMOOTH",
"73 373 OFFCURVE",
"137 298 OFFCURVE",
"282 278 CURVE SMOOTH",
"398 262 LINE SMOOTH",
"454 254 OFFCURVE",
"478 246 OFFCURVE",
"478 215 CURVE SMOOTH",
"478 184 OFFCURVE",
"443 168 OFFCURVE",
"368 168 CURVE SMOOTH",
"285 168 OFFCURVE",
"191 181 OFFCURVE",
"125 210 CURVE",
"60 39 LINE",
"130 6 OFFCURVE",
"252 -12 OFFCURVE",
"367 -12 CURVE SMOOTH"
);
}
);
width = 741;
},
{
anchors = (
{
name = bottom;
position = "{348, 0}";
},
{
name = top;
position = "{365, 705}";
}
);
layerId = "083469E7-71E8-468C-B15D-61E35EC0B921";
paths = (
{
closed = 1;
nodes = (
"529 -10 OFFCURVE",
"641 81 OFFCURVE",
"641 210 CURVE SMOOTH",
"641 311 OFFCURVE",
"575 372 OFFCURVE",
"438 395 CURVE SMOOTH",
"321 416 LINE SMOOTH",
"239 430 OFFCURVE",
"210 457 OFFCURVE",
"210 505 CURVE SMOOTH",
"210 568 OFFCURVE",
"279 603 OFFCURVE",
"371 603 CURVE SMOOTH",
"451 603 OFFCURVE",
"521 586 OFFCURVE",
"578 536 CURVE",
"622 641 LINE",
"565 688 OFFCURVE",
"475 715 OFFCURVE",
"372 715 CURVE SMOOTH",
"201 715 OFFCURVE",
"79 632 OFFCURVE",
"79 506 CURVE SMOOTH",
"79 402 OFFCURVE",
"133 335 OFFCURVE",
"269 312 CURVE SMOOTH",
"387 291 LINE SMOOTH",
"471 275 OFFCURVE",
"509 255 OFFCURVE",
"509 203 CURVE SMOOTH",
"509 140 OFFCURVE",
"454 102 OFFCURVE",
"357 102 CURVE SMOOTH",
"264 102 OFFCURVE",
"176 117 OFFCURVE",
"108 165 CURVE",
"64 60 LINE",
"129 12 OFFCURVE",
"239 -10 OFFCURVE",
"357 -10 CURVE SMOOTH"
);
}
);
width = 696.81503;
}
);
leftKerningGroup = S;
rightKerningGroup = S;
unicode = 0053;
userData = {
anchors = (
);
b = {
};
com.typemytype.robofont.layerData = {
b = {
anchors = (
);
components = (
);
contours = (
);
lib = {
};
name = S;
unicodes = (
);
width = 1274;
};
};
components = (
);
contours = (
);
lib = {
};
name = S;
unicodes = (
);
width = 1317;
};
},
{
color = 5;
glyphname = Germandbls;
lastChange = "2019-10-11 14:03:33 +0000";
layers = (
{
background = {
paths = (
{
closed = 1;
nodes = (
"154 0 LINE",
"154 457 LINE SMOOTH",
"154 604 OFFCURVE",
"234 672 OFFCURVE",
"373 672 CURVE SMOOTH",
"490 672 OFFCURVE",
"559 619 OFFCURVE",
"559 529 CURVE SMOOTH",
"559 430 OFFCURVE",
"493 377 OFFCURVE",
"391 377 CURVE SMOOTH",
"271 377 LINE",
"271 338 LINE",
"418 338 LINE SMOOTH",
"538 338 OFFCURVE",
"604 288 OFFCURVE",
"604 192 CURVE SMOOTH",
"604 96 OFFCURVE",
"539 33 OFFCURVE",
"429 33 CURVE SMOOTH",
"359 33 OFFCURVE",
"306 50 OFFCURVE",
"254 97 CURVE",
"232 62 LINE",
"278 16 OFFCURVE",
"348 -7 OFFCURVE",
"426 -7 CURVE SMOOTH",
"563 -7 OFFCURVE",
"642 72 OFFCURVE",
"642 191 CURVE SMOOTH",
"642 290 OFFCURVE",
"587 353 OFFCURVE",
"470 371 CURVE",
"470 358 LINE",
"548 375 OFFCURVE",
"601 440 OFFCURVE",
"601 529 CURVE SMOOTH",
"601 643 OFFCURVE",
"510 713 OFFCURVE",
"372 713 CURVE SMOOTH",
"210 713 OFFCURVE",
"112 630 OFFCURVE",
"112 464 CURVE SMOOTH",
"112 0 LINE"
);
}
);
};
layerId = "B0DFB0A8-5D2F-4351-A1F8-6629D0DA694C";
paths = (
{
closed = 1;
nodes = (
"172 0 LINE",
"172 457 LINE SMOOTH",
"172 604 OFFCURVE",
"245 662 OFFCURVE",
"394 662 CURVE SMOOTH",
"509 662 OFFCURVE",
"577 619 OFFCURVE",
"577 529 CURVE SMOOTH",
"577 430 OFFCURVE",
"498 383 OFFCURVE",
"409 383 CURVE SMOOTH",
"299 383 LINE",
"299 333 LINE",
"436 333 LINE SMOOTH",
"556 333 OFFCURVE",
"622 288 OFFCURVE",
"622 192 CURVE SMOOTH",
"622 96 OFFCURVE",
"557 43 OFFCURVE",
"447 43 CURVE SMOOTH",
"377 43 OFFCURVE",
"334 60 OFFCURVE",
"272 107 CURVE",
"250 61 LINE",
"306 15 OFFCURVE",
"366 -8 OFFCURVE",
"444 -8 CURVE SMOOTH",
"591 -8 OFFCURVE",
"675 72 OFFCURVE",
"675 193 CURVE SMOOTH",
"675 286 OFFCURVE",
"613 348 OFFCURVE",
"528 363 CURVE",
"528 367 LINE",
"585 393 OFFCURVE",
"630 452 OFFCURVE",
"630 529 CURVE SMOOTH",
"630 643 OFFCURVE",
"543 713 OFFCURVE",
"393 713 CURVE SMOOTH",
"221 713 OFFCURVE",
"122 630 OFFCURVE",
"122 464 CURVE SMOOTH",
"122 0 LINE"
);
}
);
width = 768;
},
{
layerId = "443F1CD3-8514-4C65-8D84-A41CDF68FD19";
paths = (
{
closed = 1;
nodes = (
"305 0 LINE",
"305 438 LINE SMOOTH",
"305 506 OFFCURVE",
"345 537 OFFCURVE",
"425 537 CURVE SMOOTH",
"497 537 OFFCURVE",
"520 515 OFFCURVE",
"520 482 CURVE SMOOTH",
"520 451 OFFCURVE",
"498 428 OFFCURVE",
"458 428 CURVE SMOOTH",
"406 428 LINE",
"406 273 LINE",
"498 273 LINE SMOOTH",
"544 273 OFFCURVE",
"573 260 OFFCURVE",
"573 221 CURVE SMOOTH",
"573 183 OFFCURVE",
"549 164 OFFCURVE",
"512 164 CURVE SMOOTH",
"480 164 OFFCURVE",
"453 167 OFFCURVE",
"414 185 CURVE",
"359 21 LINE",
"419 -6 OFFCURVE",
"473 -12 OFFCURVE",
"549 -12 CURVE SMOOTH",
"695 -12 OFFCURVE",
"783 84 OFFCURVE",
"783 200 CURVE SMOOTH",
"783 283 OFFCURVE",
"725 342 OFFCURVE",
"655 364 CURVE",
"655 372 LINE",
"702 403 OFFCURVE",
"736 453 OFFCURVE",
"736 520 CURVE SMOOTH",
"736 635 OFFCURVE",
"621 717 OFFCURVE",
"432 717 CURVE SMOOTH",
"178 717 OFFCURVE",
"80 608 OFFCURVE",
"80 430 CURVE SMOOTH",
"80 0 LINE"
);
}
);
width = 837;
},
{
layerId = "083469E7-71E8-468C-B15D-61E35EC0B921";
paths = (
{
closed = 1;
nodes = (
"235 0 LINE",
"235 448 LINE SMOOTH",
"235 558 OFFCURVE",
"292 603 OFFCURVE",
"409 603 CURVE SMOOTH",
"503 603 OFFCURVE",
"550 570 OFFCURVE",
"550 507 CURVE SMOOTH",
"550 440 OFFCURVE",
"498 404 OFFCURVE",
"432 404 CURVE SMOOTH",
"350 404 LINE",
"350 305 LINE",
"465 305 LINE SMOOTH",
"550 305 OFFCURVE",
"599 275 OFFCURVE",
"599 206 CURVE SMOOTH",
"599 137 OFFCURVE",
"553 100 OFFCURVE",
"478 100 CURVE SMOOTH",
"426 100 OFFCURVE",
"390 111 OFFCURVE",
"339 144 CURVE",
"302 42 LINE",
"360 5 OFFCURVE",
"417 -10 OFFCURVE",
"494 -10 CURVE SMOOTH",
"640 -10 OFFCURVE",
"726 78 OFFCURVE",
"726 196 CURVE SMOOTH",
"726 285 OFFCURVE",
"666 345 OFFCURVE",
"588 363 CURVE",
"588 369 LINE",
"640 398 OFFCURVE",
"680 452 OFFCURVE",
"680 525 CURVE SMOOTH",
"680 639 OFFCURVE",
"580 715 OFFCURVE",
"411 715 CURVE SMOOTH",
"201 715 OFFCURVE",
"102 620 OFFCURVE",
"102 448 CURVE SMOOTH",
"102 0 LINE"
);
}
);
width = 800;
}
);
leftKerningGroup = H;
leftMetricsKey = H;
rightKerningGroup = Germandbls;
rightMetricsKey = B;
unicode = 1E9E;
},
{
color = 5;
glyphname = Schwa;
lastChange = "2019-10-11 14:03:33 +0000";
layers = (
{
anchors = (
{
name = bottom;
position = "{404, 0}";
},
{
name = top;
position = "{395, 705}";
}
);
background = {
paths = (
{
closed = 1;
nodes = (
"593 -8 OFFCURVE",
"710 126 OFFCURVE",
"710 353 CURVE SMOOTH",
"710 579 OFFCURVE",
"594 713 OFFCURVE",
"394 713 CURVE SMOOTH",
"194 713 OFFCURVE",
"79 579 OFFCURVE",
"79 352 CURVE SMOOTH",
"79 126 OFFCURVE",
"196 -8 OFFCURVE",
"394 -8 CURVE SMOOTH"
);
},
{
closed = 1;
nodes = (
"230 43 OFFCURVE",
"134 148 OFFCURVE",
"134 353 CURVE SMOOTH",
"134 558 OFFCURVE",
"230 662 OFFCURVE",
"394 662 CURVE SMOOTH",
"560 662 OFFCURVE",
"655 559 OFFCURVE",
"655 353 CURVE SMOOTH",
"655 147 OFFCURVE",
"559 43 OFFCURVE",
"394 43 CURVE SMOOTH"
);
}
);
};
layerId = "B0DFB0A8-5D2F-4351-A1F8-6629D0DA694C";
paths = (
{
closed = 1;
nodes = (
"588 -8 OFFCURVE",
"720 129 OFFCURVE",
"720 353 CURVE SMOOTH",
"720 596 OFFCURVE",
"594 713 OFFCURVE",
"395 713 CURVE SMOOTH",
"298 713 OFFCURVE",
"174 678 OFFCURVE",
"115 618 CURVE",
"136 573 LINE",
"202 634 OFFCURVE",
"307 663 OFFCURVE",
"397 663 CURVE SMOOTH",
"577 663 OFFCURVE",
"666 551 OFFCURVE",
"666 353 CURVE SMOOTH",
"666 151 OFFCURVE",
"564 43 OFFCURVE",
"404 43 CURVE SMOOTH",
"246 43 OFFCURVE",
"143 146 OFFCURVE",
"143 353 CURVE",
"121 332 LINE",
"703 332 LINE",
"703 381 LINE",
"89 381 LINE",
"89 348 LINE SMOOTH",
"89 128 OFFCURVE",
"222 -8 OFFCURVE",
"404 -8 CURVE SMOOTH"
);
}
);
width = 809;
},
{
anchors = (
{
name = bottom;
position = "{444, 0}";
},
{
name = top;
position = "{444, 703}";
}
);
background = {
components = (
{
name = O;
}
);
};
layerId = "443F1CD3-8514-4C65-8D84-A41CDF68FD19";
paths = (
{
closed = 1;
nodes = (
"658 -12 OFFCURVE",
"816 135 OFFCURVE",
"816 351 CURVE SMOOTH",
"816 570 OFFCURVE",
"678 717 OFFCURVE",
"410 717 CURVE SMOOTH",
"300 717 OFFCURVE",
"184 694 OFFCURVE",
"121 662 CURVE",
"185 486 LINE",
"243 515 OFFCURVE",
"303 533 OFFCURVE",
"389 533 CURVE SMOOTH",
"515 533 OFFCURVE",
"590 473 OFFCURVE",
"590 351 CURVE SMOOTH",
"590 232 OFFCURVE",
"531 170 OFFCURVE",
"441 170 CURVE SMOOTH",
"342 170 OFFCURVE",
"290 233 OFFCURVE",
"290 351 CURVE",
"220 277 LINE",
"679 277 LINE",
"679 434 LINE",
"60 434 LINE",
"60 358 LINE SMOOTH",
"60 125 OFFCURVE",
"220 -12 OFFCURVE",
"446 -12 CURVE SMOOTH"
);
}
);
width = 876;
},
{
anchors = (
{
name = bottom;
position = "{423, 0}";
},
{
name = top;
position = "{418, 704}";
}
);
layerId = "083469E7-71E8-468C-B15D-61E35EC0B921";
paths = (
{
closed = 1;
nodes = (
"621 -10 OFFCURVE",
"766 132 OFFCURVE",
"766 352 CURVE SMOOTH",
"766 584 OFFCURVE",
"634 715 OFFCURVE",
"402 715 CURVE SMOOTH",
"299 715 OFFCURVE",
"179 686 OFFCURVE",
"118 639 CURVE",
"159 532 LINE",
"221 578 OFFCURVE",
"305 601 OFFCURVE",
"393 601 CURVE SMOOTH",
"548 601 OFFCURVE",
"630 514 OFFCURVE",
"630 352 CURVE SMOOTH",
"630 189 OFFCURVE",
"548 103 OFFCURVE",
"422 103 CURVE SMOOTH",
"292 103 OFFCURVE",
"213 187 OFFCURVE",
"213 352 CURVE",
"168 306 LINE",
"692 306 LINE",
"692 406 LINE",
"75 406 LINE",
"75 353 LINE SMOOTH",
"75 127 OFFCURVE",
"221 -10 OFFCURVE",
"424 -10 CURVE SMOOTH"
);
}
);
width = 842;
}
);
leftKerningGroup = O;
leftMetricsKey = O;
rightKerningGroup = O;
rightMetricsKey = O;
unicode = 018F;
},
{
color = 5;
glyphname = T;
lastChange = "2019-10-11 14:01:53 +0000";
layers = (
{
anchors = (
{
name = bottom;
position = "{320, 0}";
},
{
name = center;
position = "{320, 358}";
},
{
name = top;
position = "{320, 705}";
}
);
background = {
anchors = (
{
name = bottom;
position = "{310, 0}";
},
{
name = center;
position = "{310, 358}";
},
{
name = top;
position = "{310, 705}";
}
);
paths = (
{
closed = 1;
nodes = (
"331 0 LINE",
"331 666 LINE",
"590 666 LINE",
"590 705 LINE",
"30 705 LINE",
"30 666 LINE",
"289 666 LINE",
"289 0 LINE"
);
}
);
};
layerId = "B0DFB0A8-5D2F-4351-A1F8-6629D0DA694C";
paths = (
{
closed = 1;
nodes = (
"346 0 LINE",
"346 655 LINE",
"610 655 LINE",
"610 705 LINE",
"30 705 LINE",
"30 655 LINE",
"294 655 LINE",
"294 0 LINE"
);
}
);
width = 640;
},
{
anchors = (
{
name = bottom;
position = "{361, 0}";
},
{
name = center;
position = "{360, 289}";
},
{
name = top;
position = "{360, 705}";
}
);
background = {
anchors = (
{
name = bottom;
position = "{351, 0}";
},
{
name = center;
position = "{350, 358}";
},
{
name = top;
position = "{350, 705}";
}
);
paths = (
{
closed = 1;
nodes = (
"459 0 LINE",
"459 532 LINE",
"659 532 LINE",
"659 705 LINE",
"42 705 LINE",
"42 532 LINE",
"242 532 LINE",
"242 0 LINE"
);
}
);
};
layerId = "443F1CD3-8514-4C65-8D84-A41CDF68FD19";
paths = (
{
closed = 1;
nodes = (
"473 0 LINE",
"473 519 LINE",
"689 519 LINE",
"689 705 LINE",
"32 705 LINE",
"32 519 LINE",
"248 519 LINE",
"248 0 LINE"
);
}
);
width = 721;
},
{
anchors = (
{
name = bottom;
position = "{339, 0}";
},
{
name = center;
position = "{339, 325}";
},
{
name = top;
position = "{339, 705}";
}
);
layerId = "083469E7-71E8-468C-B15D-61E35EC0B921";
paths = (
{
closed = 1;
nodes = (
"406 0 LINE",
"406 591 LINE",
"647 591 LINE",
"647 705 LINE",
"31 705 LINE",
"31 591 LINE",
"272 591 LINE",
"272 0 LINE"
);
}
);
width = 678.39306;
}
);
leftKerningGroup = T;
rightKerningGroup = T;
unicode = 0054;
userData = {
anchors = (
);
b = {
};
com.typemytype.robofont.layerData = {
b = {
anchors = (
);
components = (
);
contours = (
{
points = (
{
segmentType = curve;
smooth = 1;
x = 581;
y = 0;
},
{
segmentType = line;
smooth = 1;
x = 1350;
y = 0;
},
{
smooth = 0;
x = 1399;
y = 0;
},
{
smooth = 0;
x = 1423;
y = 34;
},
{
segmentType = curve;
smooth = 1;
x = 1423;
y = 71;
},
{
smooth = 0;
x = 1423;
y = 107;
},
{
smooth = 0;
x = 1399;
y = 141;
},
{
segmentType = curve;
smooth = 1;
x = 1350;
y = 141;
},
{
segmentType = line;
smooth = 0;
x = 671;
y = 141;
},
{
segmentType = line;
smooth = 0;
x = 671;
y = 665;
},
{
segmentType = line;
smooth = 1;
x = 1290;
y = 665;
},
{
smooth = 0;
x = 1339;
y = 665;
},
{
smooth = 0;
x = 1364;
y = 698;
},
{
segmentType = curve;
smooth = 1;
x = 1364;
y = 734;
},
{
smooth = 0;
x = 1364;
y = 770;
},
{
smooth = 0;
x = 1341;
y = 803;
},
{
segmentType = curve;
smooth = 1;
x = 1290;
y = 803;
},
{
segmentType = line;
smooth = 0;
x = 671;
y = 803;
},
{
segmentType = line;
smooth = 0;
x = 671;
y = 1285;
},
{
segmentType = line;
smooth = 1;
x = 1322;
y = 1285;
},
{
smooth = 0;
x = 1371;
y = 1285;
},
{
smooth = 0;
x = 1395;
y = 1319;
},
{
segmentType = curve;
smooth = 1;
x = 1395;
y = 1356;
},
{
smooth = 0;
x = 1395;
y = 1392;
},
{
smooth = 0;
x = 1371;
y = 1426;
},
{
segmentType = curve;
smooth = 1;
x = 1322;
y = 1426;
},
{
segmentType = line;
smooth = 1;
x = 576;
y = 1426;
},
{
smooth = 0;
x = 528;
y = 1426;
},
{
smooth = 0;
x = 493;
y = 1383;
},
{
segmentType = curve;
smooth = 1;
x = 493;
y = 1340;
},
{
segmentType = line;
smooth = 1;
x = 493;
y = 86;
},
{
smooth = 0;
x = 493;
y = 41;
},
{
smooth = 0;
x = 537;
y = 0;
}
);
}
);
lib = {
};
name = T;
unicodes = (
);
width = 1158;
};
};
components = (
);
contours = (
);
lib = {
};
name = T;
unicodes = (
);
width = 1199;
};
},
{
color = 5;
glyphname = U;
lastChange = "2019-10-11 14:01:53 +0000";
layers = (
{
anchors = (
{
name = bottom;
position = "{378, 0}";
},
{
name = ogonek;
position = "{435, 0}";
},
{
name = top;
position = "{378, 705}";
},
{
name = topright;
position = "{592, 705}";
}
);
background = {
anchors = (
{
name = bottom;
position = "{368, 0}";
},
{
name = ogonek;
position = "{425, 0}";
},
{
name = top;
position = "{368, 705}";
},
{
name = topright;
position = "{594, 705}";
}
);
paths = (
{
closed = 1;
nodes = (
"543 -8 OFFCURVE",
"635 86 OFFCURVE",
"635 267 CURVE SMOOTH",
"635 705 LINE",
"593 705 LINE",
"593 260 LINE SMOOTH",
"593 109 OFFCURVE",
"516 33 OFFCURVE",
"368 33 CURVE SMOOTH",
"218 33 OFFCURVE",
"143 109 OFFCURVE",
"143 260 CURVE SMOOTH",
"143 705 LINE",
"101 705 LINE",
"101 267 LINE SMOOTH",
"101 86 OFFCURVE",
"192 -8 OFFCURVE",
"368 -8 CURVE SMOOTH"
);
}
);
};
layerId = "B0DFB0A8-5D2F-4351-A1F8-6629D0DA694C";
paths = (
{
closed = 1;
nodes = (
"553 -8 OFFCURVE",
"645 86 OFFCURVE",
"645 267 CURVE SMOOTH",
"645 705 LINE",
"592 705 LINE",
"592 260 LINE SMOOTH",
"592 109 OFFCURVE",
"516 44 OFFCURVE",
"378 44 CURVE SMOOTH",
"238 44 OFFCURVE",
"163 109 OFFCURVE",
"163 260 CURVE SMOOTH",
"163 705 LINE",
"111 705 LINE",
"111 267 LINE SMOOTH",
"111 86 OFFCURVE",
"202 -8 OFFCURVE",
"378 -8 CURVE SMOOTH"
);
}
);
width = 756;
},
{
anchors = (
{
name = bottom;
position = "{406, 0}";
},
{
name = ogonek;
position = "{464, 0}";
},
{
name = top;
position = "{406, 705}";
},
{
name = topright;
position = "{576, 705}";
}
);
background = {
anchors = (
{
name = bottom;
position = "{389, 0}";
},
{
name = ogonek;
position = "{527, 37}";
},
{
name = top;
position = "{389, 705}";
},
{
name = topright;
position = "{566, 705}";
}
);
paths = (
{
closed = 1;
nodes = (
"597 -10 OFFCURVE",
"711 94 OFFCURVE",
"711 289 CURVE SMOOTH",
"711 705 LINE",
"500 705 LINE",
"500 281 LINE SMOOTH",
"500 202 OFFCURVE",
"459 156 OFFCURVE",
"389 156 CURVE SMOOTH",
"317 156 OFFCURVE",
"277 200 OFFCURVE",
"277 281 CURVE SMOOTH",
"277 705 LINE",
"66 705 LINE",
"66 289 LINE SMOOTH",
"66 91 OFFCURVE",
"177 -10 OFFCURVE",
"389 -10 CURVE SMOOTH"
);
}
);
};
layerId = "443F1CD3-8514-4C65-8D84-A41CDF68FD19";
paths = (
{
closed = 1;
nodes = (
"614 -12 OFFCURVE",
"739 93 OFFCURVE",
"739 288 CURVE SMOOTH",
"739 705 LINE",
"514 705 LINE",
"514 307 LINE SMOOTH",
"514 228 OFFCURVE",
"483 183 OFFCURVE",
"406 183 CURVE SMOOTH",
"334 183 OFFCURVE",
"297 226 OFFCURVE",
"297 307 CURVE SMOOTH",
"297 705 LINE",
"72 705 LINE",
"72 288 LINE SMOOTH",
"72 90 OFFCURVE",
"194 -12 OFFCURVE",
"406 -12 CURVE SMOOTH"
);
}
);
width = 811;
},
{
anchors = (
{
name = bottom;
position = "{391, 0}";
},
{
name = ogonek;
position = "{449, 0}";
},
{
name = top;
position = "{391, 705}";
},
{
name = topright;
position = "{584, 705}";
}
);
layerId = "083469E7-71E8-468C-B15D-61E35EC0B921";
paths = (
{
closed = 1;
nodes = (
"582 -10 OFFCURVE",
"690 89 OFFCURVE",
"690 277 CURVE SMOOTH",
"690 705 LINE",
"555 705 LINE",
"555 282 LINE SMOOTH",
"555 165 OFFCURVE",
"500 110 OFFCURVE",
"391 110 CURVE SMOOTH",
"284 110 OFFCURVE",
"227 164 OFFCURVE",
"227 282 CURVE SMOOTH",
"227 705 LINE",
"93 705 LINE",
"93 277 LINE SMOOTH",
"93 88 OFFCURVE",
"198 -10 OFFCURVE",
"391 -10 CURVE SMOOTH"
);
}
);
width = 782.06936;
}
);
leftKerningGroup = U;
rightKerningGroup = U;
unicode = 0055;
userData = {
anchors = (
);
b = {
};
com.typemytype.robofont.layerData = {
b = {
anchors = (
);
components = (
);
contours = (
);
lib = {
};
name = U;
unicodes = (
);
width = 1490;
};
};
components = (
);
contours = (
);
lib = {
};
name = U;
unicodes = (
);
width = 1513;
};
},
{
color = 5;
glyphname = V;
lastChange = "2019-10-11 14:01:53 +0000";
layers = (
{
anchors = (
{
name = bottom;
position = "{337, 0}";
},
{
name = top;
position = "{336, 705}";
}
);
background = {
anchors = (
{
name = bottom;
position = "{327, 0}";
},
{
name = top;
position = "{326, 705}";
}
);
paths = (
{
closed = 1;
nodes = (
"348 0 LINE",
"652 705 LINE",
"606 705 LINE",
"314 24 LINE",
"338 24 LINE",
"46 705 LINE",
"1 705 LINE",
"303 0 LINE"
);
}
);
};
layerId = "B0DFB0A8-5D2F-4351-A1F8-6629D0DA694C";
paths = (
{
closed = 1;
nodes = (
"360 0 LINE",
"660 705 LINE",
"604 705 LINE",
"338 73 LINE",
"334 73 LINE",
"68 705 LINE",
"12 705 LINE",
"312 0 LINE"
);
}
);
width = 672;
},
{
anchors = (
{
name = bottom;
position = "{388, 0}";
},
{
name = top;
position = "{387, 705}";
}
);
background = {
paths = (
{
closed = 1;
nodes = (
"462 0 LINE",
"787 705 LINE",
"569 705 LINE",
"352 203 LINE",
"407 203 LINE",
"191 705 LINE",
"-32 705 LINE",
"293 0 LINE"
);
}
);
};
layerId = "443F1CD3-8514-4C65-8D84-A41CDF68FD19";
paths = (
{
closed = 1;
nodes = (
"482 0 LINE",
"797 705 LINE",
"554 705 LINE",
"392 283 LINE",
"384 283 LINE",
"222 705 LINE",
"-22 705 LINE",
"293 0 LINE"
);
}
);
width = 775;
},
{
anchors = (
{
name = bottom;
position = "{361, 0}";
},
{
name = top;
position = "{360, 705}";
}
);
layerId = "083469E7-71E8-468C-B15D-61E35EC0B921";
paths = (
{
closed = 1;
nodes = (
"418 0 LINE",
"725 705 LINE",
"580 705 LINE",
"364 173 LINE",
"358 173 LINE",
"140.994 705 LINE",
"-4 705 LINE",
"302.994 0 LINE"
);
}
);
width = 720.82081;
}
);
leftKerningGroup = V;
rightKerningGroup = V;
unicode = 0056;
userData = {
anchors = (
);
b = {
};
com.typemytype.robofont.guides = (
);
com.typemytype.robofont.layerData = {
b = {
anchors = (
);
components = (
);
contours = (
{
points = (
{
segmentType = curve;
smooth = 1;
x = 644;
y = "-5";
},
{
smooth = 0;
x = 712;
y = "-5";
},
{
smooth = 0;
x = 764;
y = 38;
},
{
segmentType = curve;
smooth = 1;
x = 793;
y = 117;
},
{
segmentType = line;
smooth = 1;
x = 1243;
y = 1324;
},
{
smooth = 0;
x = 1247;
y = 1335;
},
{
smooth = 0;
x = 1248;
y = 1342;
},
{
segmentType = curve;
smooth = 1;
x = 1248;
y = 1351;
},
{
smooth = 0;
x = 1248;
y = 1395;
},
{
smooth = 0;
x = 1203;
y = 1427;
},
{
segmentType = curve;
smooth = 1;
x = 1160;
y = 1427;
},
{
smooth = 0;
x = 1125;
y = 1427;
},
{
smooth = 0;
x = 1090;
y = 1408;
},
{
segmentType = curve;
smooth = 1;
x = 1076;
y = 1369;
},
{
segmentType = line;
smooth = 0;
x = 651;
y = 192;
},
{
segmentType = line;
smooth = 0;
x = 650;
y = 190;
},
{
segmentType = line;
smooth = 1;
x = 214;
y = 1370;
},
{
smooth = 0;
x = 200;
y = 1407;
},
{
smooth = 0;
x = 170;
y = 1427;
},
{
segmentType = curve;
smooth = 1;
x = 135;
y = 1427;
},
{
smooth = 0;
x = 90;
y = 1427;
},
{
smooth = 0;
x = 43;
y = 1392;
},
{
segmentType = curve;
smooth = 1;
x = 43;
y = 1344;
},
{
smooth = 0;
x = 43;
y = 1336;
},
{
smooth = 0;
x = 44;
y = 1326;
},
{
segmentType = curve;
smooth = 0;
x = 48;
y = 1318;
},
{
segmentType = line;
smooth = 1;
x = 501;
y = 117;
},
{
smooth = 0;
x = 532;
y = 35;
},
{
smooth = 0;
x = 581;
y = "-5";
}
);
}
);
lib = {
};
name = V;
unicodes = (
);
width = 1289;
};
};
components = (
);
contours = (
);
lib = {
};
name = V;
unicodes = (
);
width = 1365;
};
},
{
color = 5;
glyphname = W;
lastChange = "2019-10-11 14:01:53 +0000";
layers = (
{
anchors = (
{
name = bottom;
position = "{546, 0}";
},
{
name = top;
position = "{545, 705}";
}
);
background = {
paths = (
{
closed = 1;
nodes = (
"328 0 LINE",
"546 671 LINE",
"526 671 LINE",
"741 0 LINE",
"799 0 LINE",
"1033 705 LINE",
"984 705 LINE",
"757 19 LINE",
"781 19 LINE",
"560 705 LINE",
"511 705 LINE",
"288 19 LINE",
"314 19 LINE",
"88 705 LINE",
"38 705 LINE",
"272 0 LINE"
);
}
);
};
guideLines = (
{
position = "{309, 65}";
}
);
layerId = "B0DFB0A8-5D2F-4351-A1F8-6629D0DA694C";
paths = (
{
closed = 1;
nodes = (
"328 0 LINE",
"544 623 LINE",
"548 623 LINE",
"763 0 LINE",
"819 0 LINE",
"1033 705 LINE",
"980 705 LINE",
"792 75 LINE",
"788 75 LINE",
"570 705 LINE",
"520 705 LINE",
"303 75 LINE",
"299 75 LINE",
"112 705 LINE",
"58 705 LINE",
"272 0 LINE"
);
}
);
width = 1091;
},
{
anchors = (
{
name = bottom;
position = "{591, 0}";
},
{
name = top;
position = "{592, 705}";
}
);
background = {
paths = (
{
closed = 1;
nodes = (
"447 0 LINE",
"596 412 LINE",
"570 412 LINE",
"715 0 LINE",
"885 0 LINE",
"1139 705 LINE",
"935 705 LINE",
"778 234 LINE",
"816 234 LINE",
"662 705 LINE",
"515 705 LINE",
"348 234 LINE",
"394 234 LINE",
"242 705 LINE",
"24 705 LINE",
"276 0 LINE"
);
}
);
};
layerId = "443F1CD3-8514-4C65-8D84-A41CDF68FD19";
paths = (
{
closed = 1;
nodes = (
"452 0 LINE",
"588 388 LINE",
"596 388 LINE",
"720 0 LINE",
"925 0 LINE",
"1149 705 LINE",
"922 705 LINE",
"812 289 LINE",
"804 289 LINE",
"679 705 LINE",
"518 705 LINE",
"385 291 LINE",
"379 291 LINE",
"275 705 LINE",
"34 705 LINE",
"256 0 LINE"
);
}
);
width = 1183;
},
{
anchors = (
{
name = bottom;
position = "{567, 0}";
},
{
name = top;
position = "{567, 705}";
}
);
layerId = "083469E7-71E8-468C-B15D-61E35EC0B921";
paths = (
{
closed = 1;
nodes = (
"387 0 LINE",
"565 512 LINE",
"571 512 LINE",
"743 0 LINE",
"869 0 LINE",
"1088 705 LINE",
"953 705 LINE",
"801 176 LINE",
"796 176 LINE",
"622 705 LINE",
"519 705 LINE",
"342 177 LINE",
"337 177 LINE",
"189 705 LINE",
"47 705 LINE",
"264 0 LINE"
);
}
);
width = 1134.60694;
}
);
leftKerningGroup = V;
rightKerningGroup = V;
unicode = 0057;
userData = {
anchors = (
);
b = {
};
com.typemytype.robofont.layerData = {
b = {
anchors = (
);
components = (
);
contours = (
);
lib = {
};
name = W;
unicodes = (
);
width = 2126;
};
};
components = (
);
contours = (
);
lib = {
};
name = W;
unicodes = (
);
width = 2070;
};
},
{
color = 5;
glyphname = X;
lastChange = "2019-10-11 14:01:53 +0000";
layers = (
{
anchors = (
{
name = bottom;
position = "{334, 0}";
},
{
name = top;
position = "{334, 705}";
}
);
background = {
paths = (
{
closed = 1;
nodes = (
"613 705 LINE",
"554 705 LINE",
"334 400 LINE",
"330 400 LINE",
"115 705 LINE",
"54 705 LINE",
"304 351 LINE",
"304 376 LINE",
"38 0 LINE",
"98 0 LINE",
"330 328 LINE",
"334 328 LINE",
"567 0 LINE",
"628 0 LINE",
"365 371 LINE",
"365 361 LINE"
);
}
);
};
layerId = "B0DFB0A8-5D2F-4351-A1F8-6629D0DA694C";
paths = (
{
closed = 1;
nodes = (
"613 705 LINE",
"553 705 LINE",
"335 396 LINE",
"331 396 LINE",
"115 705 LINE",
"54 705 LINE",
"297 357 LINE",
"296 371 LINE",
"38 0 LINE",
"98 0 LINE",
"329 333 LINE",
"333 333 LINE",
"567 0 LINE",
"628 0 LINE",
"367 372 LINE",
"367 357 LINE"
);
}
);
width = 666;
},
{
anchors = (
{
name = bottom;
position = "{383, 0}";
},
{
name = top;
position = "{381, 705}";
}
);
background = {
anchors = (
{
name = bottom;
position = "{373, 0}";
},
{
name = top;
position = "{371, 705}";
}
);
paths = (
{
closed = 1;
nodes = (
"761 705 LINE",
"511 705 LINE",
"336 461 LINE",
"406 460 LINE",
"233 705 LINE",
"-17 705 LINE",
"287 305 LINE",
"287 404 LINE",
"-20 0 LINE",
"229 0 LINE",
"405 244 LINE",
"338 246 LINE",
"512 0 LINE",
"763 0 LINE",
"457 403 LINE",
"457 307 LINE"
);
}
);
};
layerId = "443F1CD3-8514-4C65-8D84-A41CDF68FD19";
paths = (
{
closed = 1;
nodes = (
"746 705 LINE",
"491 705 LINE",
"385 476 LINE",
"377 476 LINE",
"273 705 LINE",
"18 705 LINE",
"237 305 LINE",
"237 404 LINE",
"10 0 LINE",
"264 0 LINE",
"378 233 LINE",
"386 233 LINE",
"497 0 LINE",
"753 0 LINE",
"527 403 LINE",
"527 307 LINE"
);
}
);
width = 763;
},
{
anchors = (
{
name = bottom;
position = "{357, 0}";
},
{
name = top;
position = "{356, 705}";
}
);
layerId = "083469E7-71E8-468C-B15D-61E35EC0B921";
paths = (
{
closed = 1;
nodes = (
"676 705 LINE",
"524 705 LINE",
"359 434 LINE",
"353 434 LINE",
"190 705 LINE",
"37 705 LINE",
"269 332 LINE",
"268 387 LINE",
"25 0 LINE",
"177 0 LINE",
"352 286 LINE",
"358 286 LINE",
"534 0 LINE",
"687 0 LINE",
"443 387 LINE",
"443 333 LINE"
);
}
);
width = 711.97688;
}
);
leftKerningGroup = X;
rightKerningGroup = X;
unicode = 0058;
userData = {
anchors = (
);
b = {
};
com.typemytype.robofont.layerData = {
b = {
anchors = (
);
components = (
);
contours = (
{
points = (
{
segmentType = curve;
smooth = 1;
x = 151;
y = 0;
},
{
smooth = 0;
x = 176;
y = 0;
},
{
smooth = 0;
x = 201;
y = 12;
},
{
segmentType = curve;
smooth = 1;
x = 222;
y = 41;
},
{
segmentType = line;
smooth = 0;
x = 641;
y = 616;
},
{
segmentType = line;
smooth = 0;
x = 746;
y = 734;
},
{
segmentType = line;
smooth = 1;
x = 1175;
y = 1310;
},
{
smooth = 0;
x = 1186;
y = 1325;
},
{
smooth = 0;
x = 1190;
y = 1338;
},
{
segmentType = curve;
smooth = 1;
x = 1190;
y = 1353;
},
{
smooth = 0;
x = 1190;
y = 1393;
},
{
smooth = 0;
x = 1153;
y = 1426;
},
{
segmentType = curve;
smooth = 1;
x = 1110;
y = 1426;
},
{
smooth = 0;
x = 1083;
y = 1426;
},
{
smooth = 0;
x = 1058;
y = 1414;
},
{
segmentType = curve;
smooth = 1;
x = 1037;
y = 1385;
},
{
segmentType = line;
smooth = 0;
x = 648;
y = 844;
},
{
segmentType = line;
smooth = 0;
x = 542;
y = 732;
},
{
segmentType = line;
smooth = 1;
x = 84;
y = 121;
},
{
smooth = 0;
x = 73;
y = 106;
},
{
smooth = 0;
x = 68;
y = 91;
},
{
segmentType = curve;
smooth = 1;
x = 68;
y = 76;
},
{
smooth = 0;
x = 68;
y = 35;
},
{
smooth = 0;
x = 108;
y = 0;
}
);
},
{
points = (
{
segmentType = curve;
smooth = 1;
x = 1104;
y = 0;
},
{
smooth = 0;
x = 1151;
y = 0;
},
{
smooth = 0;
x = 1200;
y = 40;
},
{
segmentType = curve;
smooth = 1;
x = 1200;
y = 85;
},
{
smooth = 0;
x = 1200;
y = 98;
},
{
smooth = 0;
x = 1195;
y = 113;
},
{
segmentType = curve;
smooth = 0;
x = 1186;
y = 126;
},
{
segmentType = line;
smooth = 0;
x = 272;
y = 1385;
},
{
smooth = 0;
x = 252;
y = 1414;
},
{
smooth = 0;
x = 225;
y = 1426;
},
{
segmentType = curve;
smooth = 1;
x = 197;
y = 1426;
},
{
smooth = 0;
x = 149;
y = 1426;
},
{
smooth = 0;
x = 100;
y = 1388;
},
{
segmentType = curve;
smooth = 1;
x = 100;
y = 1343;
},
{
smooth = 0;
x = 100;
y = 1328;
},
{
smooth = 0;
x = 105;
y = 1315;
},
{
segmentType = curve;
smooth = 0;
x = 114;
y = 1303;
},
{
segmentType = line;
smooth = 0;
x = 1033;
y = 40;
},
{
smooth = 0;
x = 1052;
y = 13;
},
{
smooth = 0;
x = 1076;
y = 0;
}
);
}
);
lib = {
};
name = X;
unicodes = (
);
width = 1274;
};
};
components = (
);
contours = (
);
lib = {
};
name = X;
unicodes = (
);
width = 1322;
};
},
{
color = 5;
glyphname = Y;
lastChange = "2019-10-11 14:01:53 +0000";
layers = (
{
anchors = (
{
name = bottom;
position = "{305, 0}";
},
{
name = top;
position = "{305, 705}";
},
{
name = topleft;
position = "{54, 705}";
}
);
background = {
anchors = (
{
name = bottom;
position = "{295, 0}";
},
{
name = top;
position = "{295, 705}";
},
{
name = topleft;
position = "{24, 705}";
}
);
paths = (
{
closed = 1;
nodes = (
"316 0 LINE",
"316 367 LINE",
"306 328 LINE",
"584 705 LINE",
"537 705 LINE",
"289 368 LINE",
"304 368 LINE",
"55 705 LINE",
"6 705 LINE",
"285 328 LINE",
"274 367 LINE",
"274 0 LINE"
);
}
);
};
layerId = "B0DFB0A8-5D2F-4351-A1F8-6629D0DA694C";
paths = (
{
closed = 1;
nodes = (
"331 0 LINE",
"331 367 LINE",
"322 318 LINE",
"594 705 LINE",
"533 705 LINE",
"308 384 LINE",
"304 384 LINE",
"78 705 LINE",
"16 705 LINE",
"289 318 LINE",
"279 367 LINE",
"279 0 LINE"
);
}
);
width = 610;
},
{
anchors = (
{
name = bottom;
position = "{355, 0}";
},
{
name = top;
position = "{355, 705}";
},
{
name = topleft;
position = "{80, 705}";
}
);
background = {
anchors = (
{
name = bottom;
position = "{345, 0}";
},
{
name = top;
position = "{343, 705}";
},
{
name = topleft;
position = "{30, 705}";
}
);
paths = (
{
closed = 1;
nodes = (
"452 0 LINE",
"452 367 LINE",
"408 251 LINE",
"756 705 LINE",
"511 705 LINE",
"321 449 LINE",
"362 449 LINE",
"176 705 LINE",
"-66 705 LINE",
"279 251 LINE",
"236 367 LINE",
"236 0 LINE"
);
}
);
};
layerId = "443F1CD3-8514-4C65-8D84-A41CDF68FD19";
paths = (
{
closed = 1;
nodes = (
"466 0 LINE",
"466 367 LINE",
"428 216 LINE",
"736 705 LINE",
"493 705 LINE",
"359 469 LINE",
"351 469 LINE",
"218 705 LINE",
"-26 705 LINE",
"279 216 LINE",
"241 367 LINE",
"241 0 LINE"
);
}
);
width = 710;
},
{
anchors = (
{
name = bottom;
position = "{329, 0}";
},
{
name = top;
position = "{329, 705}";
},
{
name = topleft;
position = "{66, 705}";
}
);
layerId = "083469E7-71E8-468C-B15D-61E35EC0B921";
paths = (
{
closed = 1;
nodes = (
"395 0 LINE",
"395 367 LINE",
"372 270 LINE",
"661 705 LINE",
"514 705 LINE",
"332 424 LINE",
"326 424 LINE",
"144 705 LINE",
"-4 705 LINE",
"284 270 LINE",
"261 367 LINE",
"261 0 LINE"
);
}
);
width = 657.39884;
}
);
leftKerningGroup = Y;
rightKerningGroup = Y;
unicode = 0059;
userData = {
anchors = (
);
b = {
};
com.typemytype.robofont.guides = (
);
com.typemytype.robofont.layerData = {
b = {
anchors = (
);
components = (
);
contours = (
{
points = (
{
segmentType = curve;
smooth = 1;
x = 641;
y = 0;
},
{
smooth = 0;
x = 685;
y = 0;
},
{
smooth = 0;
x = 730;
y = 29;
},
{
segmentType = curve;
smooth = 1;
x = 730;
y = 85;
},
{
segmentType = line;
smooth = 0;
x = 730;
y = 1285;
},
{
segmentType = line;
smooth = 1;
x = 1115;
y = 1285;
},
{
smooth = 0;
x = 1164;
y = 1285;
},
{
smooth = 0;
x = 1190;
y = 1319;
},
{
segmentType = curve;
smooth = 1;
x = 1190;
y = 1355;
},
{
smooth = 0;
x = 1190;
y = 1392;
},
{
smooth = 0;
x = 1166;
y = 1426;
},
{
segmentType = curve;
smooth = 1;
x = 1115;
y = 1426;
},
{
segmentType = line;
smooth = 1;
x = 160;
y = 1426;
},
{
smooth = 0;
x = 111;
y = 1426;
},
{
smooth = 0;
x = 86;
y = 1392;
},
{
segmentType = curve;
smooth = 1;
x = 86;
y = 1355;
},
{
smooth = 0;
x = 86;
y = 1319;
},
{
smooth = 0;
x = 111;
y = 1285;
},
{
segmentType = curve;
smooth = 1;
x = 160;
y = 1285;
},
{
segmentType = line;
smooth = 0;
x = 552;
y = 1285;
},
{
segmentType = line;
smooth = 1;
x = 552;
y = 85;
},
{
smooth = 0;
x = 552;
y = 29;
},
{
smooth = 0;
x = 596;
y = 0;
}
);
}
);
lib = {
};
name = Y;
unicodes = (
);
width = 1278;
};
};
components = (
);
contours = (
);
lib = {
};
name = Y;
unicodes = (
);
width = 1321;
};
},
{
color = 5;
glyphname = Z;
lastChange = "2019-10-11 14:01:53 +0000";
layers = (
{
anchors = (
{
name = bottom;
position = "{305, 0}";
},
{
name = top;
position = "{296, 705}";
}
);
background = {
anchors = (
{
name = bottom;
position = "{295, 0}";
},
{
name = top;
position = "{286, 705}";
}
);
paths = (
{
closed = 1;
nodes = (
"539 0 LINE",
"539 39 LINE",
"79 39 LINE",
"79 16 LINE",
"529 674 LINE",
"529 705 LINE",
"40 705 LINE",
"40 666 LINE",
"490 666 LINE",
"490 689 LINE",
"40 31 LINE",
"40 0 LINE"
);
}
);
};
layerId = "B0DFB0A8-5D2F-4351-A1F8-6629D0DA694C";
paths = (
{
closed = 1;
nodes = (
"549 0 LINE",
"549 50 LINE",
"89 50 LINE",
"100 16 LINE",
"539 674 LINE",
"539 705 LINE",
"50 705 LINE",
"50 655 LINE",
"500 655 LINE",
"489 689 LINE",
"50 31 LINE",
"50 0 LINE"
);
}
);
width = 595;
},
{
anchors = (
{
name = bottom;
position = "{355, 0}";
},
{
name = top;
position = "{351, 705}";
}
);
background = {
paths = (
{
closed = 1;
nodes = (
"619 0 LINE",
"619 170 LINE",
"253 170 LINE",
"253 114 LINE",
"607 550 LINE",
"607 705 LINE",
"55 705 LINE",
"55 535 LINE",
"406 535 LINE",
"406 591 LINE",
"55 158 LINE",
"55 0 LINE"
);
}
);
};
layerId = "443F1CD3-8514-4C65-8D84-A41CDF68FD19";
paths = (
{
closed = 1;
nodes = (
"659 0 LINE",
"659 186 LINE",
"263 186 LINE",
"283 114 LINE",
"647 550 LINE",
"647 705 LINE",
"65 705 LINE",
"65 519 LINE",
"446 519 LINE",
"426 591 LINE",
"65 158 LINE",
"65 0 LINE"
);
}
);
width = 701;
},
{
anchors = (
{
name = bottom;
position = "{329, 0}";
},
{
name = top;
position = "{322, 705}";
}
);
layerId = "083469E7-71E8-468C-B15D-61E35EC0B921";
paths = (
{
closed = 1;
nodes = (
"601 0 LINE",
"601 114 LINE",
"171 114 LINE",
"187 62 LINE",
"590 615 LINE",
"590 705 LINE",
"57 705 LINE",
"57 591 LINE",
"474 591 LINE",
"459 643 LINE",
"57 91 LINE",
"57 0 LINE"
);
}
);
width = 645.24277;
}
);
leftKerningGroup = Z;
rightKerningGroup = Z;
unicode = 005A;
userData = {
anchors = (
);
b = {
};
com.typemytype.robofont.layerData = {
b = {
anchors = (
);
components = (
);
contours = (
{
points = (
{
segmentType = curve;
smooth = 1;
x = 266;
y = 0;
},
{
segmentType = line;
smooth = 1;
x = 1035;
y = 0;
},
{
smooth = 0;
x = 1084;
y = 0;
},
{
smooth = 0;
x = 1108;
y = 34;
},
{
segmentType = curve;
smooth = 1;
x = 1108;
y = 71;
},
{
smooth = 0;
x = 1108;
y = 107;
},
{
smooth = 0;
x = 1084;
y = 141;
},
{
segmentType = curve;
smooth = 1;
x = 1035;
y = 141;
},
{
segmentType = line;
smooth = 0;
x = 356;
y = 141;
},
{
segmentType = line;
smooth = 0;
x = 356;
y = 665;
},
{
segmentType = line;
smooth = 1;
x = 975;
y = 665;
},
{
smooth = 0;
x = 1024;
y = 665;
},
{
smooth = 0;
x = 1049;
y = 698;
},
{
segmentType = curve;
smooth = 1;
x = 1049;
y = 734;
},
{
smooth = 0;
x = 1049;
y = 770;
},
{
smooth = 0;
x = 1026;
y = 803;
},
{
segmentType = curve;
smooth = 1;
x = 975;
y = 803;
},
{
segmentType = line;
smooth = 0;
x = 356;
y = 803;
},
{
segmentType = line;
smooth = 0;
x = 356;
y = 1285;
},
{
segmentType = line;
smooth = 1;
x = 1007;
y = 1285;
},
{
smooth = 0;
x = 1056;
y = 1285;
},
{
smooth = 0;
x = 1080;
y = 1319;
},
{
segmentType = curve;
smooth = 1;
x = 1080;
y = 1356;
},
{
smooth = 0;
x = 1080;
y = 1392;
},
{
smooth = 0;
x = 1056;
y = 1426;
},
{
segmentType = curve;
smooth = 1;
x = 1007;
y = 1426;
},
{
segmentType = line;
smooth = 1;
x = 261;
y = 1426;
},
{
smooth = 0;
x = 213;
y = 1426;
},
{
smooth = 0;
x = 178;
y = 1383;
},
{
segmentType = curve;
smooth = 1;
x = 178;
y = 1340;
},
{
segmentType = line;
smooth = 1;
x = 178;
y = 86;
},
{
smooth = 0;
x = 178;
y = 41;
},
{
smooth = 0;
x = 222;
y = 0;
}
);
}
);
lib = {
};
name = Z;
unicodes = (
);
width = 1165;
};
};
components = (
);
contours = (
);
lib = {
};
name = Z;
unicodes = (
);
width = 1222;
};
},
{
color = 5;
glyphname = a;
lastChange = "2019-10-11 14:41:42 +0000";
layers = (
{
anchors = (
{
name = bottom;
position = "{264, 0}";
},
{
name = ogonek;
position = "{507, 0}";
},
{
name = top;
position = "{314, 484}";
}
);
background = {
paths = (
{
closed = 1;
nodes = (
"337 -7 OFFCURVE",
"403 43 OFFCURVE",
"425 124 CURVE",
"414 124 LINE",
"414 0 LINE",
"457 0 LINE",
"457 324 LINE SMOOTH",
"457 447 OFFCURVE",
"402 504 OFFCURVE",
"288 504 CURVE SMOOTH",
"221 504 OFFCURVE",
"148 482 OFFCURVE",
"95 445 CURVE",
"116 408 LINE",
"175 447 OFFCURVE",
"227 462 OFFCURVE",
"290 462 CURVE SMOOTH",
"375 462 OFFCURVE",
"413 420 OFFCURVE",
"413 324 CURVE SMOOTH",
"413 205 LINE SMOOTH",
"413 106 OFFCURVE",
"346 35 OFFCURVE",
"251 35 CURVE SMOOTH",
"172 35 OFFCURVE",
"121 79 OFFCURVE",
"121 142 CURVE SMOOTH",
"121 221 OFFCURVE",
"177 240 OFFCURVE",
"383 240 CURVE SMOOTH",
"424 240 LINE",
"424 282 LINE",
"381 282 LINE SMOOTH",
"146 282 OFFCURVE",
"74 247 OFFCURVE",
"74 138 CURVE SMOOTH",
"74 57 OFFCURVE",
"150 -7 OFFCURVE",
"248 -7 CURVE SMOOTH"
);
}
);
};
layerId = "B0DFB0A8-5D2F-4351-A1F8-6629D0DA694C";
paths = (
{
closed = 1;
nodes = (
"366 -8 OFFCURVE",
"433 55 OFFCURVE",
"463 110 CURVE",
"468 110 LINE",
"468 0 LINE",
"517 0 LINE",
"517 324 LINE SMOOTH",
"517 447 OFFCURVE",
"429 502 OFFCURVE",
"311 502 CURVE SMOOTH",
"241 502 OFFCURVE",
"164 481 OFFCURVE",
"106 443 CURVE",
"128 399 LINE",
"189 438 OFFCURVE",
"247 453 OFFCURVE",
"311 453 CURVE SMOOTH",
"410 453 OFFCURVE",
"465 409 OFFCURVE",
"465 324 CURVE SMOOTH",
"465 205 LINE SMOOTH",
"465 118 OFFCURVE",
"375 41 OFFCURVE",
"271 41 CURVE SMOOTH",
"197 41 OFFCURVE",
"138 74 OFFCURVE",
"138 137 CURVE SMOOTH",
"138 217 OFFCURVE",
"216 234 OFFCURVE",
"389 234 CURVE SMOOTH",
"477 234 LINE",
"477 281 LINE",
"387 281 LINE SMOOTH",
"193 281 OFFCURVE",
"85 253 OFFCURVE",
"85 133 CURVE SMOOTH",
"85 52 OFFCURVE",
"163 -8 OFFCURVE",
"268 -8 CURVE SMOOTH"
);
}
);
width = 621;
},
{
anchors = (
{
name = bottom;
position = "{324, 0}";
},
{
name = ogonek;
position = "{570, 0}";
},
{
name = top;
position = "{346, 484}";
}
);
background = {
paths = (
{
closed = 1;
nodes = (
"1155 -12 OFFCURVE",
"1201 24 OFFCURVE",
"1244 92 CURVE",
"1252 92 LINE",
"1252 0 LINE",
"1422 0 LINE",
"1422 275 LINE SMOOTH",
"1422 446 OFFCURVE",
"1330 524 OFFCURVE",
"1139 524 CURVE SMOOTH",
"1051 524 OFFCURVE",
"949 506 OFFCURVE",
"869 470 CURVE",
"921 328 LINE",
"989 358 OFFCURVE",
"1060 368 OFFCURVE",
"1120 368 CURVE SMOOTH",
"1177 368 OFFCURVE",
"1205 354 OFFCURVE",
"1205 320 CURVE SMOOTH",
"1205 221 LINE SMOOTH",
"1205 164 OFFCURVE",
"1167 128 OFFCURVE",
"1119 128 CURVE SMOOTH",
"1089 128 OFFCURVE",
"1065 149 OFFCURVE",
"1065 176 CURVE SMOOTH",
"1065 209 OFFCURVE",
"1107 225 OFFCURVE",
"1184 225 CURVE SMOOTH",
"1231 225 LINE",
"1231 311 LINE",
"1148 311 LINE SMOOTH",
"938 311 OFFCURVE",
"848 264 OFFCURVE",
"848 164 CURVE SMOOTH",
"848 64 OFFCURVE",
"927 -12 OFFCURVE",
"1058 -12 CURVE SMOOTH"
);
},
{
closed = 1;
nodes = (
"355 -12 OFFCURVE",
"401 24 OFFCURVE",
"444 92 CURVE",
"452 92 LINE",
"452 0 LINE",
"622 0 LINE",
"622 275 LINE SMOOTH",
"622 446 OFFCURVE",
"530 524 OFFCURVE",
"339 524 CURVE SMOOTH",
"251 524 OFFCURVE",
"149 506 OFFCURVE",
"69 470 CURVE",
"118 338 LINE",
"186 368 OFFCURVE",
"260 378 OFFCURVE",
"320 378 CURVE SMOOTH",
"377 378 OFFCURVE",
"405 364 OFFCURVE",
"405 330 CURVE SMOOTH",
"405 216 LINE SMOOTH",
"405 159 OFFCURVE",
"367 120 OFFCURVE",
"319 120 CURVE SMOOTH",
"289 120 OFFCURVE",
"265 137 OFFCURVE",
"265 168 CURVE SMOOTH",
"265 209 OFFCURVE",
"307 220 OFFCURVE",
"384 220 CURVE SMOOTH",
"431 220 LINE",
"431 316 LINE",
"348 316 LINE SMOOTH",
"138 316 OFFCURVE",
"48 264 OFFCURVE",
"48 164 CURVE SMOOTH",
"48 64 OFFCURVE",
"127 -12 OFFCURVE",
"258 -12 CURVE SMOOTH"
);
}
);
};
layerId = "443F1CD3-8514-4C65-8D84-A41CDF68FD19";
paths = (
{
closed = 1;
nodes = (
"355 -12 OFFCURVE",
"401 24 OFFCURVE",
"440 94 CURVE",
"448 94 LINE",
"448 0 LINE",
"622 0 LINE",
"622 282 LINE SMOOTH",
"622 457 OFFCURVE",
"520 524 OFFCURVE",
"355 524 CURVE SMOOTH",
"247 524 OFFCURVE",
"161 506 OFFCURVE",
"73 466 CURVE",
"116 336 LINE",
"190 369 OFFCURVE",
"254 381 OFFCURVE",
"302 381 CURVE SMOOTH",
"371 381 OFFCURVE",
"405 366 OFFCURVE",
"405 316 CURVE SMOOTH",
"405 222 LINE SMOOTH",
"405 160 OFFCURVE",
"367 129 OFFCURVE",
"326 129 CURVE SMOOTH",
"289 129 OFFCURVE",
"269 148 OFFCURVE",
"269 174 CURVE SMOOTH",
"269 215 OFFCURVE",
"311 225 OFFCURVE",
"384 225 CURVE SMOOTH",
"431 225 LINE",
"431 316 LINE",
"368 316 LINE SMOOTH",
"142 316 OFFCURVE",
"52 264 OFFCURVE",
"52 164 CURVE SMOOTH",
"52 64 OFFCURVE",
"141 -12 OFFCURVE",
"260 -12 CURVE SMOOTH"
);
}
);
width = 683;
},
{
anchors = (
{
name = bottom;
position = "{292, 0}";
},
{
name = ogonek;
position = "{537, 0}";
},
{
name = top;
position = "{329, 484}";
}
);
background = {
paths = (
{
closed = 1;
nodes = (
"361 -10 OFFCURVE",
"418 40 OFFCURVE",
"452 102 CURVE",
"459 102 LINE",
"459 0 LINE",
"567 0 LINE",
"567 304 LINE SMOOTH",
"567 452 OFFCURVE",
"472 512 OFFCURVE",
"332 512 CURVE SMOOTH",
"244 512 OFFCURVE",
"163 493 OFFCURVE",
"90 454 CURVE",
"122 369 LINE",
"189 405 OFFCURVE",
"250 419 OFFCURVE",
"307 419 CURVE SMOOTH",
"392 419 OFFCURVE",
"437 389 OFFCURVE",
"437 320 CURVE SMOOTH",
"437 213 LINE SMOOTH",
"437 138 OFFCURVE",
"371 83 OFFCURVE",
"297 83 CURVE SMOOTH",
"241 83 OFFCURVE",
"200 109 OFFCURVE",
"200 155 CURVE SMOOTH",
"200 216 OFFCURVE",
"261 230 OFFCURVE",
"387 230 CURVE SMOOTH",
"455 230 LINE",
"455 298 LINE",
"378 298 LINE SMOOTH",
"169 298 OFFCURVE",
"69 258 OFFCURVE",
"69 148 CURVE SMOOTH",
"69 58 OFFCURVE",
"153 -10 OFFCURVE",
"264 -10 CURVE SMOOTH"
);
}
);
};
layerId = "083469E7-71E8-468C-B15D-61E35EC0B921";
paths = (
{
closed = 1;
nodes = (
"361 -9 OFFCURVE",
"414 32 OFFCURVE",
"452 92 CURVE",
"459 92 LINE",
"459 0 LINE",
"567 0 LINE",
"567 304 LINE SMOOTH",
"567 452 OFFCURVE",
"472 512 OFFCURVE",
"332 512 CURVE SMOOTH",
"244 512 OFFCURVE",
"163 493 OFFCURVE",
"90 454 CURVE",
"125 360 LINE",
"192 396 OFFCURVE",
"250 409 OFFCURVE",
"307 409 CURVE SMOOTH",
"392 409 OFFCURVE",
"437 389 OFFCURVE",
"437 320 CURVE SMOOTH",
"437 213 LINE SMOOTH",
"437 138 OFFCURVE",
"371 84 OFFCURVE",
"297 84 CURVE SMOOTH",
"241 84 OFFCURVE",
"200 103 OFFCURVE",
"200 149 CURVE SMOOTH",
"200 200 OFFCURVE",
"261 217 OFFCURVE",
"387 217 CURVE SMOOTH",
"455 217 LINE",
"455 299 LINE",
"378 299 LINE SMOOTH",
"169 299 OFFCURVE",
"69 258 OFFCURVE",
"69 148 CURVE SMOOTH",
"69 58 OFFCURVE",
"153 -9 OFFCURVE",
"264 -9 CURVE SMOOTH"
);
}
);
width = 651;
}
);
leftKerningGroup = a;
rightKerningGroup = n;
rightMetricsKey = n;
unicode = 0061;
userData = {
anchors = (
);
b = {
};
com.typemytype.robofont.layerData = {
b = {
anchors = (
);
components = (
);
contours = (
);
lib = {
};
name = a;
unicodes = (
);
width = 1040;
};
};
components = (
);
contours = (
);
lib = {
};
name = a;
unicodes = (
);
width = 1101;
};
},
{
color = 5;
glyphname = ae;
lastChange = "2019-10-11 14:55:33 +0000";
layers = (
{
anchors = (
{
name = bottom;
position = "{484, 0}";
},
{
name = top;
position = "{504, 484}";
}
);
background = {
components = (
{
name = a;
}
);
};
layerId = "B0DFB0A8-5D2F-4351-A1F8-6629D0DA694C";
paths = (
{
closed = 1;
nodes = (
"921 234 LINE",
"921 248 LINE SMOOTH",
"921 399 OFFCURVE",
"849 502 OFFCURVE",
"703 502 CURVE SMOOTH",
"613 502 OFFCURVE",
"546 465 OFFCURVE",
"507 392 CURVE",
"503 392 LINE",
"480 454 OFFCURVE",
"410 502 OFFCURVE",
"313 502 CURVE SMOOTH",
"243 502 OFFCURVE",
"164 481 OFFCURVE",
"106 443 CURVE",
"128 399 LINE",
"189 438 OFFCURVE",
"249 453 OFFCURVE",
"313 453 CURVE SMOOTH",
"409 453 OFFCURVE",
"465 409 OFFCURVE",
"465 324 CURVE SMOOTH",
"465 205 LINE SMOOTH",
"465 119 OFFCURVE",
"378 41 OFFCURVE",
"265 41 CURVE SMOOTH",
"196 41 OFFCURVE",
"138 76 OFFCURVE",
"138 137 CURVE SMOOTH",
"138 216 OFFCURVE",
"211 234 OFFCURVE",
"394 234 CURVE SMOOTH",
"489 234 LINE",
"489 281 LINE",
"392 281 LINE SMOOTH",
"188 281 OFFCURVE",
"85 253 OFFCURVE",
"85 133 CURVE SMOOTH",
"85 54 OFFCURVE",
"161 -8 OFFCURVE",
"262 -8 CURVE SMOOTH",
"384 -8 OFFCURVE",
"457 59 OFFCURVE",
"492 133 CURVE",
"497 133 LINE",
"521 48 OFFCURVE",
"598 -8 OFFCURVE",
"718 -8 CURVE SMOOTH",
"793 -8 OFFCURVE",
"866 13 OFFCURVE",
"913 57 CURVE",
"888 97 LINE",
"833 56 OFFCURVE",
"788 41 OFFCURVE",
"716 41 CURVE SMOOTH",
"588 41 OFFCURVE",
"515 125 OFFCURVE",
"515 245 CURVE",
"515 253 LINE SMOOTH",
"515 376 OFFCURVE",
"588 454 OFFCURVE",
"702 454 CURVE SMOOTH",
"814 454 OFFCURVE",
"872 368 OFFCURVE",
"872 256 CURVE",
"897 281 LINE",
"495 281 LINE",
"495 234 LINE"
);
}
);
width = 995;
},
{
anchors = (
{
name = bottom;
position = "{479, 0}";
},
{
name = top;
position = "{530, 484}";
}
);
background = {
components = (
{
name = e;
transform = "{1, 0, 0, 1, 368, 0}";
}
);
};
layerId = "443F1CD3-8514-4C65-8D84-A41CDF68FD19";
paths = (
{
closed = 1;
nodes = (
"979 203 LINE",
"979 255 LINE SMOOTH",
"979 428 OFFCURVE",
"855 524 OFFCURVE",
"701 524 CURVE SMOOTH",
"633 524 OFFCURVE",
"569 502 OFFCURVE",
"534 465 CURVE",
"526 465 LINE",
"484 502 OFFCURVE",
"433 524 OFFCURVE",
"343 524 CURVE SMOOTH",
"245 524 OFFCURVE",
"152 503 OFFCURVE",
"73 466 CURVE",
"116 336 LINE",
"184 367 OFFCURVE",
"246 381 OFFCURVE",
"309 381 CURVE SMOOTH",
"371 381 OFFCURVE",
"405 363 OFFCURVE",
"405 320 CURVE SMOOTH",
"405 221 LINE SMOOTH",
"405 164 OFFCURVE",
"374 129 OFFCURVE",
"326 129 CURVE SMOOTH",
"296 129 OFFCURVE",
"269 142 OFFCURVE",
"269 174 CURVE SMOOTH",
"269 215 OFFCURVE",
"311 225 OFFCURVE",
"388 225 CURVE SMOOTH",
"435 225 LINE",
"435 316 LINE",
"367 316 LINE SMOOTH",
"167 316 OFFCURVE",
"52 276 OFFCURVE",
"52 164 CURVE SMOOTH",
"52 63 OFFCURVE",
"141 -12 OFFCURVE",
"262 -12 CURVE SMOOTH",
"359 -12 OFFCURVE",
"430 15 OFFCURVE",
"478 82 CURVE",
"486 82 LINE",
"544 16 OFFCURVE",
"606 -12 OFFCURVE",
"737 -12 CURVE SMOOTH",
"821 -12 OFFCURVE",
"899 2 OFFCURVE",
"957 33 CURVE",
"909 168 LINE",
"867 149 OFFCURVE",
"810 137 OFFCURVE",
"760 137 CURVE SMOOTH",
"652 137 OFFCURVE",
"615 175 OFFCURVE",
"615 249 CURVE SMOOTH",
"615 289 LINE SMOOTH",
"615 350 OFFCURVE",
"650 392 OFFCURVE",
"708 392 CURVE SMOOTH",
"763 392 OFFCURVE",
"797 359 OFFCURVE",
"797 298 CURVE",
"808 308 LINE",
"589 308 LINE",
"589 203 LINE"
);
}
);
width = 1017;
},
{
anchors = (
{
name = bottom;
position = "{482, 0}";
},
{
name = top;
position = "{516, 484}";
}
);
background = {
components = (
{
name = e;
transform = "{1, 0, 0, 1, 378, 0}";
}
);
};
layerId = "083469E7-71E8-468C-B15D-61E35EC0B921";
paths = (
{
closed = 1;
nodes = (
"948 207 LINE",
"948 251 LINE SMOOTH",
"948 413 OFFCURVE",
"852 512 OFFCURVE",
"702 512 CURVE SMOOTH",
"622 512 OFFCURVE",
"557 483 OFFCURVE",
"520 427 CURVE",
"514 427 LINE",
"482 477 OFFCURVE",
"421 512 OFFCURVE",
"327 512 CURVE SMOOTH",
"244 512 OFFCURVE",
"158 491 OFFCURVE",
"90 454 CURVE",
"125 360 LINE",
"190 395 OFFCURVE",
"248 409 OFFCURVE",
"311 409 CURVE SMOOTH",
"391 409 OFFCURVE",
"437 387 OFFCURVE",
"437 322 CURVE SMOOTH",
"437 213 LINE SMOOTH",
"437 140 OFFCURVE",
"376 84 OFFCURVE",
"294 84 CURVE SMOOTH",
"248 84 OFFCURVE",
"200 101 OFFCURVE",
"200 146 CURVE SMOOTH",
"200 201 OFFCURVE",
"258 217 OFFCURVE",
"391 217 CURVE SMOOTH",
"463 217 LINE",
"463 299 LINE",
"380 299 LINE SMOOTH",
"178 299 OFFCURVE",
"69 264 OFFCURVE",
"69 148 CURVE SMOOTH",
"69 58 OFFCURVE",
"154 -9 OFFCURVE",
"262 -9 CURVE SMOOTH",
"372 -9 OFFCURVE",
"442 28 OFFCURVE",
"483 99 CURVE",
"490 99 LINE",
"530 32 OFFCURVE",
"602 -9 OFFCURVE",
"727 -9 CURVE SMOOTH",
"806 -9 OFFCURVE",
"882 8 OFFCURVE",
"934 46 CURVE",
"893 141 LINE",
"844 108 OFFCURVE",
"798 97 OFFCURVE",
"737 97 CURVE SMOOTH",
"618 97 OFFCURVE",
"562 149 OFFCURVE",
"562 247 CURVE",
"562 270 LINE SMOOTH",
"562 364 OFFCURVE",
"617 415 OFFCURVE",
"705 415 CURVE SMOOTH",
"780 415 OFFCURVE",
"826 364 OFFCURVE",
"826 276 CURVE",
"855 294 LINE",
"540 294 LINE",
"540 207 LINE"
);
}
);
width = 1005.42775;
}
);
leftKerningGroup = a;
leftMetricsKey = a;
rightKerningGroup = e;
rightMetricsKey = e;
unicode = 00E6;
userData = {
com.typemytype.robofont.layerData = {
b = {
anchors = (
);
components = (
);
contours = (
);
lib = {
};
name = ae;
unicodes = (
);
width = 1734;
};
};
};
},
{
color = 5;
glyphname = a.ss01;
lastChange = "2019-10-11 14:53:50 +0000";
layers = (
{
anchors = (
{
name = bottom;
position = "{301, 0}";
},
{
name = ogonek;
position = "{547, 0}";
},
{
name = top;
position = "{301, 484}";
}
);
background = {
anchors = (
{
name = bottom;
position = "{285, 0}";
},
{
name = ogonek;
position = "{487, 0}";
},
{
name = top;
position = "{285, 484}";
}
);
paths = (
{
closed = 1;
nodes = (
"369 -7 OFFCURVE",
"434 42 OFFCURVE",
"456 131 CURVE",
"445 131 LINE",
"445 0 LINE",
"487 0 LINE",
"487 484 LINE",
"445 484 LINE",
"445 360 LINE",
"456 360 LINE",
"434 447 OFFCURVE",
"369 496 OFFCURVE",
"275 496 CURVE SMOOTH",
"145 496 OFFCURVE",
"59 395 OFFCURVE",
"59 243 CURVE SMOOTH",
"59 92 OFFCURVE",
"144 -7 OFFCURVE",
"275 -7 CURVE SMOOTH"
);
},
{
closed = 1;
nodes = (
"167 34 OFFCURVE",
"104 111 OFFCURVE",
"104 243 CURVE SMOOTH",
"104 376 OFFCURVE",
"168 455 OFFCURVE",
"275 455 CURVE SMOOTH",
"384 455 OFFCURVE",
"445 380 OFFCURVE",
"445 245 CURVE SMOOTH",
"445 111 OFFCURVE",
"384 34 OFFCURVE",
"276 34 CURVE SMOOTH"
);
}
);
};
layerId = "B0DFB0A8-5D2F-4351-A1F8-6629D0DA694C";
paths = (
{
closed = 1;
nodes = (
"392 -8 OFFCURVE",
"459 36 OFFCURVE",
"491 110 CURVE",
"496 110 LINE",
"496 0 LINE",
"545 0 LINE",
"545 494 LINE",
"496 494 LINE",
"496 384 LINE",
"491 384 LINE",
"461 457 OFFCURVE",
"391 502 OFFCURVE",
"306 502 CURVE SMOOTH",
"168 502 OFFCURVE",
"74 400 OFFCURVE",
"74 247 CURVE SMOOTH",
"74 94 OFFCURVE",
"168 -8 OFFCURVE",
"306 -8 CURVE SMOOTH"
);
},
{
closed = 1;
nodes = (
"197 41 OFFCURVE",
"127 123 OFFCURVE",
"127 246 CURVE SMOOTH",
"127 370 OFFCURVE",
"198 453 OFFCURVE",
"311 453 CURVE SMOOTH",
"423 453 OFFCURVE",
"493 370 OFFCURVE",
"493 246 CURVE SMOOTH",
"493 123 OFFCURVE",
"423 41 OFFCURVE",
"310 41 CURVE SMOOTH"
);
}
);
width = 651;
},
{
anchors = (
{
name = bottom;
position = "{298, 0}";
},
{
name = ogonek;
position = "{576, 0}";
},
{
name = top;
position = "{338, 484}";
}
);
background = {
paths = (
{
closed = 1;
nodes = (
"327 -12 OFFCURVE",
"394 17 OFFCURVE",
"442 86 CURVE",
"450 86 LINE",
"450 0 LINE",
"643 0 LINE",
"643 512 LINE",
"418 512 LINE",
"418 448 LINE",
"410 448 LINE",
"378 492 OFFCURVE",
"322 524 OFFCURVE",
"234 524 CURVE SMOOTH",
"88 524 OFFCURVE",
"9 410 OFFCURVE",
"9 256 CURVE SMOOTH",
"9 94 OFFCURVE",
"93 -12 OFFCURVE",
"244 -12 CURVE SMOOTH"
);
},
{
closed = 1;
nodes = (
"260 151 OFFCURVE",
"225 189 OFFCURVE",
"225 257 CURVE SMOOTH",
"225 324 OFFCURVE",
"260 361 OFFCURVE",
"323 361 CURVE SMOOTH",
"386 361 OFFCURVE",
"421 324 OFFCURVE",
"421 257 CURVE SMOOTH",
"421 189 OFFCURVE",
"385 151 OFFCURVE",
"322 151 CURVE SMOOTH"
);
}
);
};
layerId = "443F1CD3-8514-4C65-8D84-A41CDF68FD19";
paths = (
{
closed = 1;
nodes = (
"350 -12 OFFCURVE",
"398 17 OFFCURVE",
"446 86 CURVE",
"454 86 LINE",
"454 0 LINE",
"647 0 LINE",
"647 512 LINE",
"422 512 LINE",
"422 448 LINE",
"414 448 LINE",
"382 492 OFFCURVE",
"335 524 OFFCURVE",
"257 524 CURVE SMOOTH",
"111 524 OFFCURVE",
"41 410 OFFCURVE",
"41 256 CURVE SMOOTH",
"41 94 OFFCURVE",
"116 -12 OFFCURVE",
"267 -12 CURVE SMOOTH"
);
},
{
closed = 1;
nodes = (
"283 151 OFFCURVE",
"257 187 OFFCURVE",
"257 257 CURVE SMOOTH",
"257 325 OFFCURVE",
"287 361 OFFCURVE",
"341 361 CURVE SMOOTH",
"399 361 OFFCURVE",
"425 325 OFFCURVE",
"425 257 CURVE SMOOTH",
"425 187 OFFCURVE",
"398 151 OFFCURVE",
"340 151 CURVE SMOOTH"
);
}
);
width = 709;
},
{
anchors = (
{
name = bottom;
position = "{303, 0}";
},
{
name = ogonek;
position = "{564, 0}";
},
{
name = top;
position = "{322, 484}";
}
);
layerId = "083469E7-71E8-468C-B15D-61E35EC0B921";
paths = (
{
closed = 1;
nodes = (
"375 -10 OFFCURVE",
"433 27 OFFCURVE",
"473 99 CURVE",
"479 99 LINE",
"479 0 LINE",
"596 0 LINE",
"596 503 LINE",
"464 503 LINE",
"464 414 LINE",
"458 414 LINE",
"427 474 OFFCURVE",
"367 512 OFFCURVE",
"286 512 CURVE SMOOTH",
"144 512 OFFCURVE",
"58 405 OFFCURVE",
"58 251 CURVE SMOOTH",
"58 94 OFFCURVE",
"146 -10 OFFCURVE",
"291 -10 CURVE SMOOTH"
);
},
{
closed = 1;
nodes = (
"241 93 OFFCURVE",
"192 153 OFFCURVE",
"192 251 CURVE SMOOTH",
"192 349 OFFCURVE",
"243 409 OFFCURVE",
"328 409 CURVE SMOOTH",
"415 409 OFFCURVE",
"464 349 OFFCURVE",
"464 251 CURVE SMOOTH",
"464 153 OFFCURVE",
"414 93 OFFCURVE",
"327 93 CURVE SMOOTH"
);
}
);
width = 681;
}
);
leftKerningGroup = o;
leftMetricsKey = o;
rightKerningGroup = u;
rightMetricsKey = "=|n";
userData = {
anchors = (
);
b = {
};
com.typemytype.robofont.layerData = {
b = {
anchors = (
);
components = (
);
contours = (
);
lib = {
};
name = p;
unicodes = (
);
width = 1181;
};
};
components = (
);
contours = (
);
lib = {
};
name = p;
unicodes = (
);
width = 1207;
};
},
{
color = 5;
glyphname = b;
lastChange = "2019-10-11 15:02:41 +0000";
layers = (
{
anchors = (
{
name = bottom;
position = "{351, 0}";
},
{
name = top;
position = "{345, 705}";
}
);
background = {
paths = (
{
closed = 1;
nodes = (
"492 -8 OFFCURVE",
"577 87 OFFCURVE",
"577 247 CURVE SMOOTH",
"577 407 OFFCURVE",
"492 502 OFFCURVE",
"347 502 CURVE SMOOTH",
"262 502 OFFCURVE",
"193 459 OFFCURVE",
"163 386 CURVE",
"158 386 LINE",
"158 705 LINE",
"106 705 LINE",
"106 0 LINE",
"155 0 LINE",
"155 110 LINE",
"160 110 LINE",
"192 36 OFFCURVE",
"261 -8 OFFCURVE",
"347 -8 CURVE SMOOTH"
);
},
{
closed = 1;
nodes = (
"226 41 OFFCURVE",
"158 118 OFFCURVE",
"158 248 CURVE SMOOTH",
"158 377 OFFCURVE",
"226 453 OFFCURVE",
"341 453 CURVE SMOOTH",
"456 453 OFFCURVE",
"524 377 OFFCURVE",
"524 248 CURVE SMOOTH",
"524 118 OFFCURVE",
"456 41 OFFCURVE",
"340 41 CURVE SMOOTH"
);
}
);
};
layerId = "B0DFB0A8-5D2F-4351-A1F8-6629D0DA694C";
paths = (
{
closed = 1;
nodes = (
"483 -8 OFFCURVE",
"577 94 OFFCURVE",
"577 247 CURVE SMOOTH",
"577 400 OFFCURVE",
"483 502 OFFCURVE",
"345 502 CURVE SMOOTH",
"260 502 OFFCURVE",
"193 459 OFFCURVE",
"163 386 CURVE",
"158 386 LINE",
"158 705 LINE",
"106 705 LINE",
"106 0 LINE",
"155 0 LINE",
"155 110 LINE",
"160 110 LINE",
"192 36 OFFCURVE",
"259 -8 OFFCURVE",
"345 -8 CURVE SMOOTH"
);
},
{
closed = 1;
nodes = (
"228 41 OFFCURVE",
"158 123 OFFCURVE",
"158 246 CURVE SMOOTH",
"158 370 OFFCURVE",
"228 453 OFFCURVE",
"340 453 CURVE SMOOTH",
"453 453 OFFCURVE",
"524 370 OFFCURVE",
"524 246 CURVE SMOOTH",
"524 123 OFFCURVE",
"454 41 OFFCURVE",
"341 41 CURVE SMOOTH"
);
}
);
width = 651;
},
{
anchors = (
{
name = bottom;
position = "{326, 0}";
},
{
name = top;
position = "{367, 705}";
}
);
background = {
paths = (
{
closed = 1;
nodes = (
"593 -12 OFFCURVE",
"668 94 OFFCURVE",
"668 256 CURVE SMOOTH",
"668 410 OFFCURVE",
"598 524 OFFCURVE",
"452 524 CURVE SMOOTH",
"374 524 OFFCURVE",
"327 492 OFFCURVE",
"295 448 CURVE",
"287 448 LINE",
"287 705 LINE",
"62 705 LINE",
"62 0 LINE",
"255 0 LINE",
"255 86 LINE",
"263 86 LINE",
"311 17 OFFCURVE",
"359 -12 OFFCURVE",
"442 -12 CURVE SMOOTH"
);
},
{
closed = 1;
nodes = (
"311 151 OFFCURVE",
"284 187 OFFCURVE",
"284 257 CURVE SMOOTH",
"284 325 OFFCURVE",
"310 361 OFFCURVE",
"368 361 CURVE SMOOTH",
"426 361 OFFCURVE",
"452 325 OFFCURVE",
"452 257 CURVE SMOOTH",
"452 187 OFFCURVE",
"426 151 OFFCURVE",
"369 151 CURVE SMOOTH"
);
}
);
};
layerId = "443F1CD3-8514-4C65-8D84-A41CDF68FD19";
paths = (
{
closed = 1;
nodes = (
"593 -12 OFFCURVE",
"670 103 OFFCURVE",
"670 257 CURVE SMOOTH",
"670 403 OFFCURVE",
"592 524 OFFCURVE",
"444 524 CURVE SMOOTH",
"368 524 OFFCURVE",
"325 492 OFFCURVE",
"295 448 CURVE",
"287 448 LINE",
"287 705 LINE",
"62 705 LINE",
"62 0 LINE",
"255 0 LINE",
"255 90 LINE",
"263 90 LINE",
"301 19 OFFCURVE",
"357 -12 OFFCURVE",
"437 -12 CURVE SMOOTH"
);
},
{
closed = 1;
nodes = (
"313 151 OFFCURVE",
"284 191 OFFCURVE",
"284 257 CURVE SMOOTH",
"284 323 OFFCURVE",
"312 361 OFFCURVE",
"368 361 CURVE SMOOTH",
"426 361 OFFCURVE",
"452 323 OFFCURVE",
"452 257 CURVE SMOOTH",
"452 191 OFFCURVE",
"426 151 OFFCURVE",
"369 151 CURVE SMOOTH"
);
}
);
width = 711;
},
{
anchors = (
{
name = bottom;
position = "{339, 0}";
},
{
name = top;
position = "{355, 705}";
}
);
layerId = "083469E7-71E8-468C-B15D-61E35EC0B921";
paths = (
{
closed = 1;
nodes = (
"535 -9 OFFCURVE",
"623 98 OFFCURVE",
"623 252 CURVE SMOOTH",
"623 401 OFFCURVE",
"535 512 OFFCURVE",
"392 512 CURVE SMOOTH",
"311 512 OFFCURVE",
"256 475 OFFCURVE",
"226 415 CURVE",
"219 415 LINE",
"219 705 LINE",
"85 705 LINE",
"85 0 LINE",
"202 0 LINE",
"202 101 LINE",
"209 101 LINE",
"244 28 OFFCURVE",
"305 -9 OFFCURVE",
"389 -9 CURVE SMOOTH"
);
},
{
closed = 1;
nodes = (
"267 94 OFFCURVE",
"217 155 OFFCURVE",
"217 251 CURVE SMOOTH",
"217 348 OFFCURVE",
"267 409 OFFCURVE",
"352 409 CURVE SMOOTH",
"439 409 OFFCURVE",
"489 348 OFFCURVE",
"489 251 CURVE SMOOTH",
"489 155 OFFCURVE",
"440 94 OFFCURVE",
"353 94 CURVE SMOOTH"
);
}
);
width = 681;
}
);
leftKerningGroup = h;
leftMetricsKey = n;
rightKerningGroup = o;
rightMetricsKey = o;
unicode = 0062;
userData = {
anchors = (
);
b = {
};
com.typemytype.robofont.layerData = {
b = {
anchors = (
);
components = (
);
contours = (
{
points = (
{
segmentType = curve;
smooth = 1;
x = 238;
y = 1425;
},
{
smooth = 0;
x = 198;
y = 1425;
},
{
smooth = 0;
x = 158;
y = 1400;
},
{
segmentType = curve;
smooth = 1;
x = 158;
y = 1351;
},
{
segmentType = line;
smooth = 1;
x = 158;
y = 76;
},
{
smooth = 0;
x = 158;
y = 27;
},
{
smooth = 0;
x = 197;
y = 3;
},
{
segmentType = curve;
smooth = 1;
x = 237;
y = 3;
},
{
smooth = 0;
x = 297;
y = 3;
},
{
smooth = 0;
x = 318;
y = 38;
},
{
segmentType = curve;
smooth = 1;
x = 318;
y = 76;
},
{
segmentType = line;
smooth = 0;
x = 318;
y = 183;
},
{
smooth = 0;
x = 384;
y = 46;
},
{
smooth = 0;
x = 516;
y = "-20";
},
{
segmentType = curve;
smooth = 1;
x = 666;
y = "-20";
},
{
smooth = 0;
x = 957;
y = "-20";
},
{
smooth = 0;
x = 1095;
y = 225;
},
{
segmentType = curve;
smooth = 1;
x = 1095;
y = 502;
},
{
smooth = 0;
x = 1095;
y = 777;
},
{
smooth = 0;
x = 939;
y = 1013;
},
{
segmentType = curve;
smooth = 1;
x = 650;
y = 1013;
},
{
smooth = 0;
x = 503;
y = 1013;
},
{
smooth = 0;
x = 376;
y = 942;
},
{
segmentType = curve;
smooth = 0;
x = 318;
y = 814;
},
{
segmentType = line;
smooth = 1;
x = 318;
y = 1351;
},
{
smooth = 0;
x = 318;
y = 1400;
},
{
smooth = 0;
x = 278;
y = 1425;
}
);
},
{
points = (
{
segmentType = curve;
smooth = 1;
x = 632;
y = 903;
},
{
smooth = 0;
x = 859;
y = 903;
},
{
smooth = 0;
x = 935;
y = 685;
},
{
segmentType = curve;
smooth = 1;
x = 935;
y = 496;
},
{
smooth = 0;
x = 935;
y = 316;
},
{
smooth = 0;
x = 869;
y = 93;
},
{
segmentType = curve;
smooth = 0;
x = 645;
y = 90;
},
{
smooth = 0;
x = 395;
y = 90;
},
{
smooth = 0;
x = 319;
y = 279;
},
{
segmentType = curve;
smooth = 1;
x = 319;
y = 501;
},
{
smooth = 0;
x = 319;
y = 701;
},
{
smooth = 0;
x = 407;
y = 903;
}
);
}
);
lib = {
};
name = b;
unicodes = (
);
width = 1181;
};
};
components = (
);
contours = (
);
lib = {
};
name = b;
unicodes = (
);
width = 1203;
};
},
{
color = 5;
glyphname = c;
lastChange = "2019-10-11 14:53:58 +0000";
layers = (
{
anchors = (
{
name = bottom;
position = "{317, 0}";
},
{
name = top;
position = "{317, 484}";
}
);
background = {
components = (
{
name = o;
}
);
};
layerId = "B0DFB0A8-5D2F-4351-A1F8-6629D0DA694C";
paths = (
{
closed = 1;
nodes = (
"389 -8 OFFCURVE",
"450 17 OFFCURVE",
"487 58 CURVE",
"463 97 LINE",
"426 62 OFFCURVE",
"371 41 OFFCURVE",
"322 41 CURVE SMOOTH",
"204 41 OFFCURVE",
"127 117 OFFCURVE",
"127 245 CURVE SMOOTH",
"127 376 OFFCURVE",
"204 453 OFFCURVE",
"323 453 CURVE SMOOTH",
"372 453 OFFCURVE",
"427 431 OFFCURVE",
"467 393 CURVE",
"491 433 LINE",
"451 476 OFFCURVE",
"389 502 OFFCURVE",
"322 502 CURVE SMOOTH",
"173 502 OFFCURVE",
"74 404 OFFCURVE",
"74 246 CURVE SMOOTH",
"74 90 OFFCURVE",
"171 -8 OFFCURVE",
"321 -8 CURVE SMOOTH"
);
}
);
width = 522;
},
{
anchors = (
{
name = bottom;
position = "{316, 0}";
},
{
name = top;
position = "{316, 484}";
}
);
background = {
paths = (
{
closed = 1;
nodes = (
"416 -12 OFFCURVE",
"494 10 OFFCURVE",
"538 38 CURVE",
"485 193 LINE",
"451 175 OFFCURVE",
"404 162 OFFCURVE",
"362 162 CURVE SMOOTH",
"298 162 OFFCURVE",
"257 184 OFFCURVE",
"257 256 CURVE SMOOTH",
"257 328 OFFCURVE",
"298 350 OFFCURVE",
"362 350 CURVE SMOOTH",
"404 350 OFFCURVE",
"451 337 OFFCURVE",
"485 319 CURVE",
"538 474 LINE",
"494 502 OFFCURVE",
"416 524 OFFCURVE",
"329 524 CURVE SMOOTH",
"150 524 OFFCURVE",
"41 425 OFFCURVE",
"41 256 CURVE SMOOTH",
"41 87 OFFCURVE",
"150 -12 OFFCURVE",
"329 -12 CURVE SMOOTH"
);
}
);
};
layerId = "443F1CD3-8514-4C65-8D84-A41CDF68FD19";
paths = (
{
closed = 1;
nodes = (
"416 -12 OFFCURVE",
"494 10 OFFCURVE",
"538 38 CURVE",
"485 193 LINE",
"451 175 OFFCURVE",
"404 162 OFFCURVE",
"362 162 CURVE SMOOTH",
"296 162 OFFCURVE",
"257 195 OFFCURVE",
"257 256 CURVE SMOOTH",
"257 317 OFFCURVE",
"296 350 OFFCURVE",
"362 350 CURVE SMOOTH",
"404 350 OFFCURVE",
"451 337 OFFCURVE",
"485 319 CURVE",
"538 474 LINE",
"494 502 OFFCURVE",
"416 524 OFFCURVE",
"329 524 CURVE SMOOTH",
"156 524 OFFCURVE",
"41 417 OFFCURVE",
"41 256 CURVE SMOOTH",
"41 95 OFFCURVE",
"156 -12 OFFCURVE",
"329 -12 CURVE SMOOTH"
);
}
);
width = 556;
},
{
anchors = (
{
name = bottom;
position = "{320, 0}";
},
{
name = top;
position = "{320, 484}";
}
);
background = {
paths = (
{
closed = 1;
nodes = (
"405 -10 OFFCURVE",
"474 14 OFFCURVE",
"514 49 CURVE",
"476 143 LINE",
"441 116 OFFCURVE",
"390 98 OFFCURVE",
"344 98 CURVE SMOOTH",
"251 98 OFFCURVE",
"192 154 OFFCURVE",
"192 250 CURVE SMOOTH",
"192 348 OFFCURVE",
"251 404 OFFCURVE",
"344 404 CURVE SMOOTH",
"390 404 OFFCURVE",
"441 386 OFFCURVE",
"479 358 CURVE",
"516 452 LINE",
"474 488 OFFCURVE",
"405 512 OFFCURVE",
"328 512 CURVE SMOOTH",
"168 512 OFFCURVE",
"61 410 OFFCURVE",
"61 251 CURVE SMOOTH",
"61 92 OFFCURVE",
"167 -10 OFFCURVE",
"328 -10 CURVE SMOOTH"
);
}
);
};
layerId = "083469E7-71E8-468C-B15D-61E35EC0B921";
paths = (
{
closed = 1;
nodes = (
"405 -10 OFFCURVE",
"474 14 OFFCURVE",
"514 49 CURVE",
"472 151 LINE",
"437 124 OFFCURVE",
"390 108 OFFCURVE",
"344 108 CURVE SMOOTH",
"251 108 OFFCURVE",
"192 154 OFFCURVE",
"192 250 CURVE SMOOTH",
"192 348 OFFCURVE",
"251 394 OFFCURVE",
"344 394 CURVE SMOOTH",
"390 394 OFFCURVE",
"438 378 OFFCURVE",
"476 350 CURVE",
"516 452 LINE",
"474 488 OFFCURVE",
"405 512 OFFCURVE",
"328 512 CURVE SMOOTH",
"168 512 OFFCURVE",
"58 410 OFFCURVE",
"58 251 CURVE SMOOTH",
"58 92 OFFCURVE",
"167 -10 OFFCURVE",
"328 -10 CURVE SMOOTH"
);
}
);
width = 541;
}
);
leftKerningGroup = o;
leftMetricsKey = o;
rightKerningGroup = c;
unicode = 0063;
userData = {
anchors = (
);
b = {
};
com.typemytype.robofont.layerData = {
b = {
anchors = (
);
components = (
);
contours = (
);
lib = {
};
name = c;
unicodes = (
);
width = 956.14099;
};
};
components = (
);
contours = (
);
lib = {
};
name = c;
unicodes = (
);
width = 992;
};
},
{
color = 5;
glyphname = d;
lastChange = "2019-10-11 15:05:16 +0000";
layers = (
{
anchors = (
{
name = bottom;
position = "{306, 0}";
},
{
name = center;
position = "{273, 245}";
},
{
name = stroke;
position = "{461, 580}";
},
{
name = top;
position = "{306, 484}";
},
{
name = topright;
position = "{595, 705}";
}
);
background = {
paths = (
{
closed = 1;
nodes = (
"359 -8 OFFCURVE",
"422 44 OFFCURVE",
"453 110 CURVE",
"458 110 LINE",
"458 0 LINE",
"508 0 LINE",
"508 705 LINE",
"456 705 LINE",
"456 389 LINE",
"451 389 LINE",
"427 446 OFFCURVE",
"363 502 OFFCURVE",
"262 502 CURVE SMOOTH",
"123 502 OFFCURVE",
"25 404 OFFCURVE",
"25 251 CURVE SMOOTH",
"25 96 OFFCURVE",
"101 -8 OFFCURVE",
"262 -8 CURVE SMOOTH"
);
},
{
closed = 1;
nodes = (
"140 41 OFFCURVE",
"78 117 OFFCURVE",
"78 251 CURVE SMOOTH",
"78 383 OFFCURVE",
"153 453 OFFCURVE",
"263 453 CURVE SMOOTH",
"378 453 OFFCURVE",
"456 376 OFFCURVE",
"456 249 CURVE SMOOTH",
"456 120 OFFCURVE",
"384 41 OFFCURVE",
"261 41 CURVE SMOOTH"
);
}
);
};
layerId = "B0DFB0A8-5D2F-4351-A1F8-6629D0DA694C";
paths = (
{
closed = 1;
nodes = (
"392 -8 OFFCURVE",
"459 36 OFFCURVE",
"491 110 CURVE",
"496 110 LINE",
"496 0 LINE",
"545 0 LINE",
"545 705 LINE",
"493 705 LINE",
"493 386 LINE",
"488 386 LINE",
"458 459 OFFCURVE",
"391 502 OFFCURVE",
"306 502 CURVE SMOOTH",
"168 502 OFFCURVE",
"74 400 OFFCURVE",
"74 247 CURVE SMOOTH",
"74 94 OFFCURVE",
"168 -8 OFFCURVE",
"306 -8 CURVE SMOOTH"
);
},
{
closed = 1;
nodes = (
"197 41 OFFCURVE",
"127 123 OFFCURVE",
"127 246 CURVE SMOOTH",
"127 370 OFFCURVE",
"198 453 OFFCURVE",
"311 453 CURVE SMOOTH",
"423 453 OFFCURVE",
"493 370 OFFCURVE",
"493 246 CURVE SMOOTH",
"493 123 OFFCURVE",
"423 41 OFFCURVE",
"310 41 CURVE SMOOTH"
);
}
);
width = 651;
},
{
anchors = (
{
name = bottom;
position = "{327, 0}";
},
{
name = center;
position = "{343, 250}";
},
{
name = stroke;
position = "{479, 611}";
},
{
name = top;
position = "{344, 705}";
},
{
name = topright;
position = "{699, 705}";
}
);
background = {
paths = (
{
closed = 1;
nodes = (
"352 -12 OFFCURVE",
"400 17 OFFCURVE",
"448 86 CURVE",
"456 86 LINE",
"456 0 LINE",
"649 0 LINE",
"649 705 LINE",
"424 705 LINE",
"424 448 LINE",
"416 448 LINE",
"384 492 OFFCURVE",
"337 524 OFFCURVE",
"259 524 CURVE SMOOTH",
"113 524 OFFCURVE",
"43 410 OFFCURVE",
"43 256 CURVE SMOOTH",
"43 94 OFFCURVE",
"118 -12 OFFCURVE",
"269 -12 CURVE SMOOTH"
);
},
{
closed = 1;
nodes = (
"285 151 OFFCURVE",
"259 187 OFFCURVE",
"259 257 CURVE SMOOTH",
"259 325 OFFCURVE",
"289 361 OFFCURVE",
"343 361 CURVE SMOOTH",
"401 361 OFFCURVE",
"427 325 OFFCURVE",
"427 257 CURVE SMOOTH",
"427 187 OFFCURVE",
"400 151 OFFCURVE",
"342 151 CURVE SMOOTH"
);
}
);
};
layerId = "443F1CD3-8514-4C65-8D84-A41CDF68FD19";
paths = (
{
closed = 1;
nodes = (
"354 -12 OFFCURVE",
"410 19 OFFCURVE",
"448 90 CURVE",
"456 90 LINE",
"456 0 LINE",
"649 0 LINE",
"649 705 LINE",
"424 705 LINE",
"424 448 LINE",
"416 448 LINE",
"386 492 OFFCURVE",
"343 524 OFFCURVE",
"267 524 CURVE SMOOTH",
"119 524 OFFCURVE",
"41 403 OFFCURVE",
"41 257 CURVE SMOOTH",
"41 103 OFFCURVE",
"118 -12 OFFCURVE",
"274 -12 CURVE SMOOTH"
);
},
{
closed = 1;
nodes = (
"288 151 OFFCURVE",
"259 191 OFFCURVE",
"259 257 CURVE SMOOTH",
"259 323 OFFCURVE",
"287 361 OFFCURVE",
"343 361 CURVE SMOOTH",
"401 361 OFFCURVE",
"427 323 OFFCURVE",
"427 257 CURVE SMOOTH",
"427 191 OFFCURVE",
"401 151 OFFCURVE",
"344 151 CURVE SMOOTH"
);
}
);
width = 711;
},
{
anchors = (
{
name = bottom;
position = "{318, 0}";
},
{
name = center;
position = "{308, 247}";
},
{
name = stroke;
position = "{472, 595}";
},
{
name = top;
position = "{326, 589}";
},
{
name = topright;
position = "{646, 705}";
}
);
layerId = "083469E7-71E8-468C-B15D-61E35EC0B921";
paths = (
{
closed = 1;
nodes = (
"376 -9 OFFCURVE",
"438 28 OFFCURVE",
"473 101 CURVE",
"479 101 LINE",
"479 0 LINE",
"596 0 LINE",
"596 705 LINE",
"462 705 LINE",
"462 415 LINE",
"456 415 LINE",
"426 475 OFFCURVE",
"370 512 OFFCURVE",
"290 512 CURVE SMOOTH",
"147 512 OFFCURVE",
"58 401 OFFCURVE",
"58 252 CURVE SMOOTH",
"58 98 OFFCURVE",
"146 -9 OFFCURVE",
"293 -9 CURVE SMOOTH"
);
},
{
closed = 1;
nodes = (
"242 94 OFFCURVE",
"192 155 OFFCURVE",
"192 251 CURVE SMOOTH",
"192 348 OFFCURVE",
"242 409 OFFCURVE",
"328 409 CURVE SMOOTH",
"415 409 OFFCURVE",
"464 348 OFFCURVE",
"464 251 CURVE SMOOTH",
"464 155 OFFCURVE",
"415 94 OFFCURVE",
"328 94 CURVE SMOOTH"
);
}
);
width = 681;
}
);
leftKerningGroup = o;
leftMetricsKey = o;
rightKerningGroup = l;
rightMetricsKey = "=|n";
unicode = 0064;
userData = {
anchors = (
);
b = {
};
com.typemytype.robofont.layerData = {
b = {
anchors = (
);
components = (
);
contours = (
);
lib = {
};
name = d;
unicodes = (
);
width = 1181;
};
};
components = (
);
contours = (
);
lib = {
};
name = d;
unicodes = (
);
width = 1207;
};
},
{
color = 7;
glyphname = dcroat;
lastChange = "2019-10-11 14:54:28 +0000";
layers = (
{
background = {
components = (
{
name = d;
},
{
name = strokeshortcomb;
transform = "{1, 0, 0, 1, 259, 40}";
}
);
};
layerId = "B0DFB0A8-5D2F-4351-A1F8-6629D0DA694C";
paths = (
{
closed = 1;
nodes = (
"392 -8 OFFCURVE",
"459 36 OFFCURVE",
"491 110 CURVE",
"496 110 LINE",
"496 0 LINE",
"545 0 LINE",
"545 560 LINE",
"638 560 LINE",
"638 605 LINE",
"545 605 LINE",
"545 705 LINE",
"493 705 LINE",
"493 605 LINE",
"295 605 LINE",
"295 560 LINE",
"493 560 LINE",
"493 378 LINE",
"488 378 LINE",
"458 451 OFFCURVE",
"391 494 OFFCURVE",
"306 494 CURVE SMOOTH",
"168 494 OFFCURVE",
"74 392 OFFCURVE",
"74 243 CURVE SMOOTH",
"74 90 OFFCURVE",
"168 -8 OFFCURVE",
"306 -8 CURVE SMOOTH"
);
},
{
closed = 1;
nodes = (
"197 41 OFFCURVE",
"127 119 OFFCURVE",
"127 242 CURVE SMOOTH",
"127 362 OFFCURVE",
"198 445 OFFCURVE",
"311 445 CURVE SMOOTH",
"423 445 OFFCURVE",
"493 362 OFFCURVE",
"493 242 CURVE SMOOTH",
"493 119 OFFCURVE",
"423 41 OFFCURVE",
"310 41 CURVE SMOOTH"
);
}
);
width = 664;
},
{
background = {
components = (
{
name = d;
},
{
name = strokeshortcomb;
transform = "{1, 0, 0, 1, 290, -15}";
}
);
};
layerId = "443F1CD3-8514-4C65-8D84-A41CDF68FD19";
rightMetricsKey = "=+10";
paths = (
{
closed = 1;
nodes = (
"354 -12 OFFCURVE",
"413 24 OFFCURVE",
"448 90 CURVE",
"456 90 LINE",
"456 0 LINE",
"649 0 LINE",
"649 532 LINE",
"713 532 LINE",
"713 662 LINE",
"649 662 LINE",
"649 705 LINE",
"424 705 LINE",
"424 657 LINE",
"265 657 LINE",
"265 532 LINE",
"424 532 LINE",
"424 418 LINE",
"416 418 LINE",
"386 462 OFFCURVE",
"343 489 OFFCURVE",
"267 489 CURVE SMOOTH",
"119 489 OFFCURVE",
"41 373 OFFCURVE",
"41 237 CURVE SMOOTH",
"41 103 OFFCURVE",
"118 -12 OFFCURVE",
"274 -12 CURVE SMOOTH"
);
},
{
closed = 1;
nodes = (
"288 138 OFFCURVE",
"259 175 OFFCURVE",
"259 237 CURVE SMOOTH",
"259 299 OFFCURVE",
"287 335 OFFCURVE",
"343 335 CURVE SMOOTH",
"401 335 OFFCURVE",
"427 299 OFFCURVE",
"427 237 CURVE SMOOTH",
"427 175 OFFCURVE",
"401 138 OFFCURVE",
"344 138 CURVE SMOOTH"
);
}
);
width = 723;
},
{
layerId = "083469E7-71E8-468C-B15D-61E35EC0B921";
paths = (
{
closed = 1;
nodes = (
"376 -10 OFFCURVE",
"439 30 OFFCURVE",
"473 101 CURVE",
"479 101 LINE",
"479 0 LINE",
"596 0 LINE",
"596 547 LINE",
"676 547 LINE",
"676 634 LINE",
"596 634 LINE",
"596 705 LINE",
"462 705 LINE",
"462 632 LINE",
"283 632 LINE",
"283 547 LINE",
"462 547 LINE",
"462 397 LINE",
"456 397 LINE",
"426 456 OFFCURVE",
"370 492 OFFCURVE",
"290 492 CURVE SMOOTH",
"147 492 OFFCURVE",
"58 383 OFFCURVE",
"58 240 CURVE SMOOTH",
"58 96 OFFCURVE",
"146 -10 OFFCURVE",
"293 -10 CURVE SMOOTH"
);
},
{
closed = 1;
nodes = (
"242 87 OFFCURVE",
"192 146 OFFCURVE",
"192 240 CURVE SMOOTH",
"192 332 OFFCURVE",
"242 393 OFFCURVE",
"328 393 CURVE SMOOTH",
"415 393 OFFCURVE",
"464 332 OFFCURVE",
"464 240 CURVE SMOOTH",
"464 146 OFFCURVE",
"415 87 OFFCURVE",
"328 87 CURVE SMOOTH"
);
}
);
width = 694;
}
);
leftKerningGroup = o;
leftMetricsKey = d;
rightKerningGroup = l;
unicode = 0111;
userData = {
com.typemytype.robofont.layerData = {
b = {
anchors = (
);
components = (
);
contours = (
);
lib = {
};
name = dcroat;
unicodes = (
);
width = 1181;
};
};
};
},
{
color = 0;
glyphname = eth;
lastChange = "2019-10-11 14:54:57 +0000";
layers = (
{
background = {
paths = (
{
closed = 1;
nodes = (
"442 -7 OFFCURVE",
"517 91 OFFCURVE",
"517 282 CURVE SMOOTH",
"517 504 OFFCURVE",
"409 644 OFFCURVE",
"194 710 CURVE",
"182 677 LINE",
"381 618 OFFCURVE",
"477 481 OFFCURVE",
"475 287 CURVE",
"494 287 LINE",
"469 400 OFFCURVE",
"403 455 OFFCURVE",
"301 455 CURVE SMOOTH",
"169 455 OFFCURVE",
"82 364 OFFCURVE",
"82 224 CURVE SMOOTH",
"82 84 OFFCURVE",
"167 -7 OFFCURVE",
"298 -7 CURVE SMOOTH"
);
},
{
closed = 1;
nodes = (
"189 34 OFFCURVE",
"127 102 OFFCURVE",
"127 224 CURVE SMOOTH",
"127 343 OFFCURVE",
"191 414 OFFCURVE",
"298 414 CURVE SMOOTH",
"405 414 OFFCURVE",
"469 343 OFFCURVE",
"469 224 CURVE SMOOTH",
"469 105 OFFCURVE",
"404 34 OFFCURVE",
"297 34 CURVE SMOOTH"
);
},
{
closed = 1;
nodes = (
"465 677 LINE",
"451 710 LINE",
"149 583 LINE",
"163 550 LINE"
);
}
);
};
layerId = "B0DFB0A8-5D2F-4351-A1F8-6629D0DA694C";
paths = (
{
closed = 1;
nodes = (
"457 -7 OFFCURVE",
"545 100 OFFCURVE",
"545 282 CURVE SMOOTH",
"545 492 OFFCURVE",
"416 651 OFFCURVE",
"199 710 CURVE",
"183 665 LINE",
"362 613 OFFCURVE",
"475 495 OFFCURVE",
"488 360 CURVE",
"484 360 LINE",
"453 422 OFFCURVE",
"388 465 OFFCURVE",
"311 465 CURVE SMOOTH",
"169 465 OFFCURVE",
"74 371 OFFCURVE",
"74 229 CURVE SMOOTH",
"74 87 OFFCURVE",
"168 -7 OFFCURVE",
"308 -7 CURVE SMOOTH"
);
},
{
closed = 1;
nodes = (
"199 42 OFFCURVE",
"127 117 OFFCURVE",
"127 229 CURVE SMOOTH",
"127 341 OFFCURVE",
"199 416 OFFCURVE",
"308 416 CURVE SMOOTH",
"422 416 OFFCURVE",
"489 347 OFFCURVE",
"489 229 CURVE SMOOTH",
"489 111 OFFCURVE",
"421 42 OFFCURVE",
"307 42 CURVE SMOOTH"
);
},
{
closed = 1;
nodes = (
"475 667 LINE",
"456 710 LINE",
"154 583 LINE",
"173 540 LINE"
);
}
);
width = 605;
},
{
background = {
paths = (
{
closed = 1;
nodes = (
"518 -9 OFFCURVE",
"628 109 OFFCURVE",
"628 295 CURVE SMOOTH",
"628 453 OFFCURVE",
"495 678 OFFCURVE",
"173 719 CURVE",
"139 590 LINE",
"300 568 OFFCURVE",
"434 473 OFFCURVE",
"435 344 CURVE",
"483 305 LINE",
"457 416 OFFCURVE",
"399 455 OFFCURVE",
"305 455 CURVE SMOOTH",
"159 455 OFFCURVE",
"53 358 OFFCURVE",
"53 226 CURVE SMOOTH",
"53 87 OFFCURVE",
"166 -9 OFFCURVE",
"328 -9 CURVE SMOOTH"
);
},
{
closed = 1;
nodes = (
"287 145 OFFCURVE",
"262 176 OFFCURVE",
"262 226 CURVE SMOOTH",
"262 275 OFFCURVE",
"286 306 OFFCURVE",
"336 306 CURVE SMOOTH",
"386 306 OFFCURVE",
"410 275 OFFCURVE",
"410 226 CURVE SMOOTH",
"410 178 OFFCURVE",
"385 145 OFFCURVE",
"337 145 CURVE SMOOTH"
);
},
{
closed = 1;
nodes = (
"581 629 LINE",
"538 719 LINE",
"122 521 LINE",
"165 431 LINE"
);
}
);
};
layerId = "443F1CD3-8514-4C65-8D84-A41CDF68FD19";
paths = (
{
closed = 1;
nodes = (
"524 -12 OFFCURVE",
"647 118 OFFCURVE",
"647 324 CURVE SMOOTH",
"647 522 OFFCURVE",
"505 709 OFFCURVE",
"179 719 CURVE",
"155 620 LINE",
"374 613 OFFCURVE",
"472 492 OFFCURVE",
"475 371 CURVE",
"467 371 LINE",
"437 422 OFFCURVE",
"383 465 OFFCURVE",
"281 465 CURVE SMOOTH",
"135 465 OFFCURVE",
"41 366 OFFCURVE",
"41 226 CURVE SMOOTH",
"41 73 OFFCURVE",
"159 -12 OFFCURVE",
"334 -12 CURVE SMOOTH"
);
},
{
closed = 1;
nodes = (
"293 151 OFFCURVE",
"258 179 OFFCURVE",
"258 228 CURVE SMOOTH",
"258 277 OFFCURVE",
"293 307 OFFCURVE",
"342 307 CURVE SMOOTH",
"391 307 OFFCURVE",
"426 277 OFFCURVE",
"426 228 CURVE SMOOTH",
"426 179 OFFCURVE",
"391 151 OFFCURVE",
"342 151 CURVE SMOOTH"
);
},
{
closed = 1;
nodes = (
"603 629 LINE",
"564 719 LINE",
"150 564 LINE",
"188 474 LINE"
);
}
);
width = 678;
},
{
associatedMasterId = "443F1CD3-8514-4C65-8D84-A41CDF68FD19";
background = {
paths = (
{
closed = 1;
nodes = (
"552 627 LINE",
"509 719 LINE",
"103 526 LINE",
"146 435 LINE"
);
}
);
};
color = 11;
layerId = "952A4455-20D7-4C46-8FAB-D4E69B90A505";
name = "Bold [177]";
paths = (
{
closed = 1;
nodes = (
"524 -12 OFFCURVE",
"647 118 OFFCURVE",
"647 324 CURVE SMOOTH",
"647 522 OFFCURVE",
"505 709 OFFCURVE",
"179 719 CURVE",
"155 620 LINE",
"374 613 OFFCURVE",
"472 492 OFFCURVE",
"475 371 CURVE",
"467 371 LINE",
"437 422 OFFCURVE",
"383 465 OFFCURVE",
"281 465 CURVE SMOOTH",
"135 465 OFFCURVE",
"41 366 OFFCURVE",
"41 226 CURVE SMOOTH",
"41 73 OFFCURVE",
"159 -12 OFFCURVE",
"334 -12 CURVE SMOOTH"
);
},
{
closed = 1;
nodes = (
"293 151 OFFCURVE",
"258 179 OFFCURVE",
"258 228 CURVE SMOOTH",
"258 277 OFFCURVE",
"293 307 OFFCURVE",
"342 307 CURVE SMOOTH",
"391 307 OFFCURVE",
"426 277 OFFCURVE",
"426 228 CURVE SMOOTH",
"426 179 OFFCURVE",
"391 151 OFFCURVE",
"342 151 CURVE SMOOTH"
);
},
{
closed = 1;
nodes = (
"603 629 LINE",
"564 719 LINE",
"150 564 LINE",
"188 474 LINE"
);
}
);
width = 678;
},
{
background = {
paths = (
{
closed = 1;
nodes = (
"491 -9 OFFCURVE",
"595 109 OFFCURVE",
"595 302 CURVE SMOOTH",
"595 506 OFFCURVE",
"460 678 OFFCURVE",
"192 714 CURVE",
"172 644 LINE",
"370 613 OFFCURVE",
"476 494 OFFCURVE",
"484 365 CURVE",
"478 365 LINE",
"447 422 OFFCURVE",
"388 465 OFFCURVE",
"299 465 CURVE SMOOTH",
"155 465 OFFCURVE",
"60 369 OFFCURVE",
"60 228 CURVE SMOOTH",
"60 80 OFFCURVE",
"166 -9 OFFCURVE",
"322 -9 CURVE SMOOTH"
);
},
{
closed = 1;
nodes = (
"246 94 OFFCURVE",
"191 146 OFFCURVE",
"191 229 CURVE SMOOTH",
"191 311 OFFCURVE",
"246 364 OFFCURVE",
"326 364 CURVE SMOOTH",
"409 364 OFFCURVE",
"461 314 OFFCURVE",
"461 229 CURVE SMOOTH",
"461 143 OFFCURVE",
"409 94 OFFCURVE",
"326 94 CURVE SMOOTH"
);
},
{
closed = 1;
nodes = (
"538 649 LINE",
"509 714 LINE",
"154 574 LINE",
"182 509 LINE"
);
}
);
};
layerId = "083469E7-71E8-468C-B15D-61E35EC0B921";
paths = (
{
closed = 1;
nodes = (
"491 -9 OFFCURVE",
"597 109 OFFCURVE",
"597 302 CURVE SMOOTH",
"597 516 OFFCURVE",
"460 688 OFFCURVE",
"192 714 CURVE",
"168 634 LINE",
"366 603 OFFCURVE",
"476 494 OFFCURVE",
"484 365 CURVE",
"478 365 LINE",
"447 422 OFFCURVE",
"388 465 OFFCURVE",
"299 465 CURVE SMOOTH",
"155 465 OFFCURVE",
"58 369 OFFCURVE",
"58 228 CURVE SMOOTH",
"58 80 OFFCURVE",
"166 -9 OFFCURVE",
"322 -9 CURVE SMOOTH"
);
},
{
closed = 1;
nodes = (
"246 94 OFFCURVE",
"191 146 OFFCURVE",
"191 229 CURVE SMOOTH",
"191 311 OFFCURVE",
"246 364 OFFCURVE",
"326 364 CURVE SMOOTH",
"409 364 OFFCURVE",
"461 314 OFFCURVE",
"461 229 CURVE SMOOTH",
"461 143 OFFCURVE",
"409 94 OFFCURVE",
"326 94 CURVE SMOOTH"
);
},
{
closed = 1;
nodes = (
"542 641 LINE",
"509 714 LINE",
"156 564 LINE",
"188 491 LINE"
);
}
);
width = 644;
}
);
leftKerningGroup = o;
leftMetricsKey = o;
rightKerningGroup = o;
unicode = 00F0;
userData = {
com.typemytype.robofont.layerData = {
b = {
anchors = (
);
components = (
);
contours = (
);
lib = {
};
name = eth;
unicodes = (
);
width = 1230;
};
};
};
},
{
color = 5;
glyphname = e;
lastChange = "2019-10-11 14:55:15 +0000";
layers = (
{
anchors = (
{
name = bottom;
position = "{312, 0}";
},
{
name = ogonek;
position = "{380, 0}";
},
{
name = top;
position = "{312, 484}";
}
);
background = {
components = (
{
name = o;
}
);
};
layerId = "B0DFB0A8-5D2F-4351-A1F8-6629D0DA694C";
paths = (
{
closed = 1;
nodes = (
"396 -8 OFFCURVE",
"474 10 OFFCURVE",
"525 57 CURVE",
"500 97 LINE",
"446 51 OFFCURVE",
"383 41 OFFCURVE",
"328 41 CURVE SMOOTH",
"209 41 OFFCURVE",
"127 116 OFFCURVE",
"127 248 CURVE SMOOTH",
"127 256 LINE SMOOTH",
"127 379 OFFCURVE",
"206 454 OFFCURVE",
"310 454 CURVE SMOOTH",
"420 454 OFFCURVE",
"484 379 OFFCURVE",
"484 256 CURVE",
"509 281 LINE",
"108 281 LINE",
"108 234 LINE",
"533 234 LINE",
"533 248 LINE SMOOTH",
"533 398 OFFCURVE",
"464 502 OFFCURVE",
"311 502 CURVE SMOOTH",
"160 502 OFFCURVE",
"74 395 OFFCURVE",
"74 248 CURVE SMOOTH",
"74 83 OFFCURVE",
"177 -8 OFFCURVE",
"330 -8 CURVE SMOOTH"
);
}
);
width = 607;
},
{
anchors = (
{
name = bottom;
position = "{328, 0}";
},
{
name = ogonek;
position = "{427, 0}";
},
{
name = top;
position = "{336, 484}";
}
);
background = {
paths = (
{
closed = 1;
nodes = (
"451 -12 OFFCURVE",
"525 3 OFFCURVE",
"583 28 CURVE",
"539 158 LINE",
"497 145 OFFCURVE",
"453 135 OFFCURVE",
"403 135 CURVE SMOOTH",
"297 135 OFFCURVE",
"247 174 OFFCURVE",
"247 249 CURVE SMOOTH",
"247 286 LINE SMOOTH",
"247 346 OFFCURVE",
"279 379 OFFCURVE",
"335 379 CURVE SMOOTH",
"392 379 OFFCURVE",
"425 343 OFFCURVE",
"425 286 CURVE",
"430 298 LINE",
"221 298 LINE",
"221 202 LINE",
"611 202 LINE",
"611 255 LINE SMOOTH",
"611 423 OFFCURVE",
"486 524 OFFCURVE",
"333 524 CURVE SMOOTH",
"160 524 OFFCURVE",
"41 403 OFFCURVE",
"41 257 CURVE SMOOTH",
"41 94 OFFCURVE",
"146 -12 OFFCURVE",
"379 -12 CURVE SMOOTH"
);
}
);
};
guideLines = (
{
position = "{-103, 311}";
},
{
position = "{-219, 225}";
}
);
layerId = "443F1CD3-8514-4C65-8D84-A41CDF68FD19";
paths = (
{
closed = 1;
nodes = (
"451 -12 OFFCURVE",
"528 1 OFFCURVE",
"589 33 CURVE",
"541 168 LINE",
"506 151 OFFCURVE",
"444 137 OFFCURVE",
"395 137 CURVE SMOOTH",
"284 137 OFFCURVE",
"247 171 OFFCURVE",
"247 259 CURVE SMOOTH",
"247 284 LINE SMOOTH",
"247 352 OFFCURVE",
"283 392 OFFCURVE",
"339 392 CURVE SMOOTH",
"395 392 OFFCURVE",
"429 361 OFFCURVE",
"429 296 CURVE",
"434 308 LINE",
"221 308 LINE",
"221 203 LINE",
"611 203 LINE",
"611 252 LINE SMOOTH",
"611 431 OFFCURVE",
"484 524 OFFCURVE",
"336 524 CURVE SMOOTH",
"150 524 OFFCURVE",
"41 403 OFFCURVE",
"41 256 CURVE SMOOTH",
"41 94 OFFCURVE",
"146 -12 OFFCURVE",
"381 -12 CURVE SMOOTH"
);
}
);
width = 649;
},
{
anchors = (
{
name = bottom;
position = "{320, 0}";
},
{
name = ogonek;
position = "{402, 0}";
},
{
name = top;
position = "{323, 484}";
}
);
background = {
paths = (
{
closed = 1;
nodes = (
"422 -10 OFFCURVE",
"500 6 OFFCURVE",
"555 46 CURVE",
"519 131 LINE",
"474 98 OFFCURVE",
"412 87 OFFCURVE",
"360 87 CURVE SMOOTH",
"245 87 OFFCURVE",
"184 142 OFFCURVE",
"184 253 CURVE SMOOTH",
"184 269 LINE SMOOTH",
"184 366 OFFCURVE",
"242 425 OFFCURVE",
"324 425 CURVE SMOOTH",
"408 425 OFFCURVE",
"458 370 OFFCURVE",
"458 275 CURVE",
"473 294 LINE",
"162 294 LINE",
"162 219 LINE",
"570 219 LINE",
"570 250 LINE SMOOTH",
"570 414 OFFCURVE",
"473 512 OFFCURVE",
"323 512 CURVE SMOOTH",
"155 512 OFFCURVE",
"58 399 OFFCURVE",
"58 252 CURVE SMOOTH",
"58 88 OFFCURVE",
"162 -10 OFFCURVE",
"354 -10 CURVE SMOOTH"
);
}
);
};
layerId = "083469E7-71E8-468C-B15D-61E35EC0B921";
paths = (
{
closed = 1;
nodes = (
"422 -9 OFFCURVE",
"500 7 OFFCURVE",
"555 47 CURVE",
"515 142 LINE",
"470 109 OFFCURVE",
"412 98 OFFCURVE",
"360 98 CURVE SMOOTH",
"245 98 OFFCURVE",
"184 142 OFFCURVE",
"184 253 CURVE SMOOTH",
"184 269 LINE SMOOTH",
"184 366 OFFCURVE",
"242 415 OFFCURVE",
"324 415 CURVE SMOOTH",
"398 415 OFFCURVE",
"448 370 OFFCURVE",
"448 275 CURVE",
"473 294 LINE",
"162 294 LINE",
"162 207 LINE",
"570 207 LINE",
"570 250 LINE SMOOTH",
"570 414 OFFCURVE",
"473 512 OFFCURVE",
"323 512 CURVE SMOOTH",
"155 512 OFFCURVE",
"58 399 OFFCURVE",
"58 252 CURVE SMOOTH",
"58 88 OFFCURVE",
"162 -9 OFFCURVE",
"354 -9 CURVE SMOOTH"
);
}
);
width = 626.90751;
}
);
leftKerningGroup = o;
leftMetricsKey = o;
rightKerningGroup = e;
unicode = 0065;
userData = {
anchors = (
);
b = {
};
com.typemytype.robofont.layerData = {
b = {
anchors = (
);
components = (
);
contours = (
);
lib = {
};
name = e;
unicodes = (
);
width = 1132;
};
};
components = (
);
contours = (
);
lib = {
};
name = e;
unicodes = (
);
width = 1132;
};
},
{
color = 5;
glyphname = f;
lastChange = "2019-10-11 14:52:17 +0000";
layers = (
{
anchors = (
{
name = bottom;
position = "{162, 0}";
},
{
name = top;
position = "{152, 705}";
}
);
background = {
anchors = (
{
name = bottom;
position = "{126, 0}";
},
{
name = top;
position = "{126, 705}";
}
);
paths = (
{
closed = 1;
nodes = (
"147 611 OFFCURVE",
"186 661 OFFCURVE",
"270 667 CURVE SMOOTH",
"316 670 LINE",
"311 707 LINE",
"280 705 LINE SMOOTH",
"162 698 OFFCURVE",
"105 636 OFFCURVE",
"105 515 CURVE SMOOTH",
"105 473 LINE",
"115 484 LINE",
"8 484 LINE",
"8 448 LINE",
"105 448 LINE",
"105 0 LINE",
"147 0 LINE",
"147 448 LINE",
"293 448 LINE",
"293 484 LINE",
"147 484 LINE",
"147 515 LINE SMOOTH"
);
}
);
};
layerId = "B0DFB0A8-5D2F-4351-A1F8-6629D0DA694C";
paths = (
{
closed = 1;
nodes = (
"188 628 OFFCURVE",
"263 651 OFFCURVE",
"333 656 CURVE SMOOTH",
"387 660 LINE",
"382 707 LINE",
"335 704 LINE SMOOTH",
"209 696 OFFCURVE",
"136 631 OFFCURVE",
"136 512 CURVE SMOOTH",
"136 483 LINE",
"147 494 LINE",
"29 494 LINE",
"29 447 LINE",
"136 447 LINE",
"136 0 LINE",
"188 0 LINE",
"188 447 LINE",
"362 447 LINE",
"362 494 LINE",
"178 494 LINE",
"188 484 LINE",
"188 512 LINE SMOOTH"
);
}
);
width = 398;
},
{
anchors = (
{
name = bottom;
position = "{214, 0}";
},
{
name = top;
position = "{209, 705}";
}
);
background = {
paths = (
{
closed = 1;
nodes = (
"298 554 OFFCURVE",
"316 569 OFFCURVE",
"341 570 CURVE SMOOTH",
"480 576 LINE",
"463 721 LINE",
"351 717 LINE SMOOTH",
"150 710 OFFCURVE",
"101 611 OFFCURVE",
"101 493 CURVE SMOOTH",
"101 466 LINE",
"164 512 LINE",
"12 512 LINE",
"12 360 LINE",
"101 360 LINE",
"101 0 LINE",
"326 0 LINE",
"326 360 LINE",
"453 360 LINE",
"453 512 LINE",
"298 512 LINE",
"298 530 LINE SMOOTH"
);
}
);
};
guideLines = (
{
position = "{15, 517}";
},
{
position = "{1070, 741}";
}
);
layerId = "443F1CD3-8514-4C65-8D84-A41CDF68FD19";
paths = (
{
closed = 1;
nodes = (
"301 555 OFFCURVE",
"324 577 OFFCURVE",
"377 579 CURVE SMOOTH",
"484 583 LINE",
"470 720 LINE",
"381 718 LINE SMOOTH",
"195 714 OFFCURVE",
"101 636 OFFCURVE",
"101 473 CURVE SMOOTH",
"101 446 LINE",
"164 512 LINE",
"7 512 LINE",
"7 367 LINE",
"101 367 LINE",
"101 0 LINE",
"326 0 LINE",
"326 367 LINE",
"458 367 LINE",
"458 512 LINE",
"295 512 LINE",
"301 512 LINE",
"301 517 LINE SMOOTH"
);
}
);
width = 481;
},
{
anchors = (
{
name = bottom;
position = "{187, 0}";
},
{
name = top;
position = "{179, 705}";
}
);
background = {
paths = (
{
closed = 1;
nodes = (
"242 593 OFFCURVE",
"292 616 OFFCURVE",
"354 620 CURVE SMOOTH",
"433 624 LINE",
"424 713 LINE",
"357 711 LINE SMOOTH",
"202 705 OFFCURVE",
"119 633 OFFCURVE",
"119 494 CURVE SMOOTH",
"119 465 LINE",
"155 503 LINE",
"19 503 LINE",
"19 409 LINE",
"119 409 LINE",
"119 0 LINE",
"253 0 LINE",
"253 409 LINE",
"408 409 LINE",
"408 503 LINE",
"233 503 LINE",
"242 497 LINE",
"242 514 LINE SMOOTH"
);
}
);
};
layerId = "083469E7-71E8-468C-B15D-61E35EC0B921";
paths = (
{
closed = 1;
nodes = (
"242 593 OFFCURVE",
"292 597 OFFCURVE",
"354 600 CURVE SMOOTH",
"433 604 LINE",
"424 713 LINE",
"357 711 LINE SMOOTH",
"179 706 OFFCURVE",
"119 632 OFFCURVE",
"119 493 CURVE SMOOTH",
"119 464 LINE",
"155 503 LINE",
"19 503 LINE",
"19 402 LINE",
"119 402 LINE",
"119 0 LINE",
"253 0 LINE",
"253 402 LINE",
"408 402 LINE",
"408 503 LINE",
"233 503 LINE",
"242 496 LINE",
"242 514 LINE SMOOTH"
);
}
);
width = 437.34104;
}
);
leftKerningGroup = f;
rightKerningGroup = f;
unicode = 0066;
userData = {
anchors = (
);
b = {
};
com.typemytype.robofont.layerData = {
b = {
anchors = (
);
components = (
);
contours = (
);
lib = {
};
name = f;
unicodes = (
);
width = 696;
};
};
components = (
);
contours = (
);
lib = {
};
name = f;
unicodes = (
);
width = 723;
};
},
{
color = 5;
glyphname = g;
lastChange = "2019-10-11 14:56:58 +0000";
layers = (
{
anchors = (
{
name = top;
position = "{306, 484}";
}
);
background = {
paths = (
{
closed = 1;
nodes = (
"446 -187 OFFCURVE",
"543 -102 OFFCURVE",
"543 35 CURVE SMOOTH",
"543 494 LINE",
"494 494 LINE",
"494 381 LINE",
"489 381 LINE",
"461 457 OFFCURVE",
"393 502 OFFCURVE",
"306 502 CURVE SMOOTH",
"155 502 OFFCURVE",
"66 411 OFFCURVE",
"66 256 CURVE SMOOTH",
"66 101 OFFCURVE",
"155 10 OFFCURVE",
"306 10 CURVE SMOOTH",
"393 10 OFFCURVE",
"460 52 OFFCURVE",
"486 124 CURVE",
"493 124 LINE",
"493 29 LINE SMOOTH",
"493 -75 OFFCURVE",
"416 -138 OFFCURVE",
"311 -138 CURVE SMOOTH",
"230 -138 OFFCURVE",
"185 -122 OFFCURVE",
"117 -75 CURVE",
"95 -118 LINE",
"155 -165 OFFCURVE",
"224 -187 OFFCURVE",
"310 -187 CURVE SMOOTH"
);
},
{
closed = 1;
nodes = (
"188 59 OFFCURVE",
"119 132 OFFCURVE",
"119 256 CURVE SMOOTH",
"119 380 OFFCURVE",
"188 453 OFFCURVE",
"306 453 CURVE SMOOTH",
"424 453 OFFCURVE",
"493 376 OFFCURVE",
"493 256 CURVE SMOOTH",
"493 136 OFFCURVE",
"424 59 OFFCURVE",
"306 59 CURVE SMOOTH"
);
}
);
};
layerId = "B0DFB0A8-5D2F-4351-A1F8-6629D0DA694C";
paths = (
{
closed = 1;
nodes = (
"450 -187 OFFCURVE",
"543 -98 OFFCURVE",
"543 35 CURVE SMOOTH",
"543 494 LINE",
"494 494 LINE",
"494 381 LINE",
"489 381 LINE",
"462 454 OFFCURVE",
"393 502 OFFCURVE",
"310 502 CURVE SMOOTH",
"166 502 OFFCURVE",
"74 404 OFFCURVE",
"74 256 CURVE SMOOTH",
"74 108 OFFCURVE",
"166 10 OFFCURVE",
"310 10 CURVE SMOOTH",
"393 10 OFFCURVE",
"460 56 OFFCURVE",
"486 124 CURVE",
"493 124 LINE",
"493 29 LINE SMOOTH",
"493 -71 OFFCURVE",
"420 -138 OFFCURVE",
"311 -138 CURVE SMOOTH",
"249 -138 OFFCURVE",
"172 -113 OFFCURVE",
"117 -75 CURVE",
"95 -118 LINE",
"148 -159 OFFCURVE",
"234 -187 OFFCURVE",
"310 -187 CURVE SMOOTH"
);
},
{
closed = 1;
nodes = (
"198 59 OFFCURVE",
"127 138 OFFCURVE",
"127 256 CURVE SMOOTH",
"127 374 OFFCURVE",
"198 453 OFFCURVE",
"310 453 CURVE SMOOTH",
"422 453 OFFCURVE",
"493 374 OFFCURVE",
"493 256 CURVE SMOOTH",
"493 138 OFFCURVE",
"422 59 OFFCURVE",
"310 59 CURVE SMOOTH"
);
}
);
width = 649;
},
{
anchors = (
{
name = top;
position = "{344, 484}";
}
);
background = {
paths = (
{
closed = 1;
nodes = (
"518 -192 OFFCURVE",
"634 -81 OFFCURVE",
"634 98 CURVE SMOOTH",
"634 512 LINE",
"441 512 LINE",
"441 433 LINE",
"433 433 LINE",
"402 488 OFFCURVE",
"345 524 OFFCURVE",
"272 524 CURVE SMOOTH",
"123 524 OFFCURVE",
"41 427 OFFCURVE",
"41 277 CURVE SMOOTH",
"41 119 OFFCURVE",
"126 32 OFFCURVE",
"272 32 CURVE SMOOTH",
"345 32 OFFCURVE",
"402 71 OFFCURVE",
"433 120 CURVE",
"441 120 LINE",
"441 89 LINE SMOOTH",
"441 9 OFFCURVE",
"399 -33 OFFCURVE",
"293 -33 CURVE SMOOTH",
"243 -33 OFFCURVE",
"168 -16 OFFCURVE",
"124 10 CURVE",
"80 -144 LINE",
"139 -176 OFFCURVE",
"224 -192 OFFCURVE",
"301 -192 CURVE SMOOTH"
);
},
{
closed = 1;
nodes = (
"282 189 OFFCURVE",
"251 220 OFFCURVE",
"251 279 CURVE SMOOTH",
"251 335 OFFCURVE",
"282 364 OFFCURVE",
"337 364 CURVE SMOOTH",
"395 364 OFFCURVE",
"423 335 OFFCURVE",
"423 279 CURVE SMOOTH",
"423 220 OFFCURVE",
"395 189 OFFCURVE",
"337 189 CURVE SMOOTH"
);
}
);
};
guideLines = (
{
position = "{1394, 346}";
},
{
position = "{104, 858}";
},
{
angle = 90;
position = "{435, 476}";
}
);
layerId = "443F1CD3-8514-4C65-8D84-A41CDF68FD19";
paths = (
{
closed = 1;
nodes = (
"518 -192 OFFCURVE",
"634 -81 OFFCURVE",
"634 98 CURVE SMOOTH",
"634 512 LINE",
"441 512 LINE",
"441 433 LINE",
"433 433 LINE",
"402 488 OFFCURVE",
"345 524 OFFCURVE",
"272 524 CURVE SMOOTH",
"133 524 OFFCURVE",
"41 425 OFFCURVE",
"41 277 CURVE SMOOTH",
"41 130 OFFCURVE",
"133 32 OFFCURVE",
"272 32 CURVE SMOOTH",
"345 32 OFFCURVE",
"402 71 OFFCURVE",
"433 120 CURVE",
"441 120 LINE",
"441 89 LINE SMOOTH",
"441 9 OFFCURVE",
"399 -33 OFFCURVE",
"293 -33 CURVE SMOOTH",
"243 -33 OFFCURVE",
"168 -16 OFFCURVE",
"124 10 CURVE",
"80 -144 LINE",
"139 -176 OFFCURVE",
"224 -192 OFFCURVE",
"301 -192 CURVE SMOOTH"
);
},
{
closed = 1;
nodes = (
"284 189 OFFCURVE",
"251 225 OFFCURVE",
"251 279 CURVE SMOOTH",
"251 330 OFFCURVE",
"284 364 OFFCURVE",
"337 364 CURVE SMOOTH",
"390 364 OFFCURVE",
"423 330 OFFCURVE",
"423 279 CURVE SMOOTH",
"423 225 OFFCURVE",
"390 189 OFFCURVE",
"337 189 CURVE SMOOTH"
);
}
);
width = 696;
},
{
anchors = (
{
name = top;
position = "{327, 484}";
}
);
layerId = "083469E7-71E8-468C-B15D-61E35EC0B921";
paths = (
{
closed = 1;
nodes = (
"485 -188 OFFCURVE",
"597 -90 OFFCURVE",
"597 65 CURVE SMOOTH",
"597 503 LINE",
"472 503 LINE",
"472 406 LINE",
"465 406 LINE",
"437 470 OFFCURVE",
"373 512 OFFCURVE",
"295 512 CURVE SMOOTH",
"153 512 OFFCURVE",
"58 414 OFFCURVE",
"58 266 CURVE SMOOTH",
"58 118 OFFCURVE",
"153 20 OFFCURVE",
"295 20 CURVE SMOOTH",
"373 20 OFFCURVE",
"436 63 OFFCURVE",
"464 122 CURVE",
"471 122 LINE",
"471 57 LINE SMOOTH",
"471 -33 OFFCURVE",
"413 -77 OFFCURVE",
"305 -77 CURVE SMOOTH",
"249 -77 OFFCURVE",
"173 -57 OFFCURVE",
"123 -25 CURVE",
"91 -130 LINE",
"147 -167 OFFCURVE",
"232 -188 OFFCURVE",
"309 -188 CURVE SMOOTH"
);
},
{
closed = 1;
nodes = (
"245 121 OFFCURVE",
"192 179 OFFCURVE",
"192 267 CURVE SMOOTH",
"192 353 OFFCURVE",
"245 411 OFFCURVE",
"329 411 CURVE SMOOTH",
"413 411 OFFCURVE",
"466 353 OFFCURVE",
"466 267 CURVE SMOOTH",
"466 179 OFFCURVE",
"413 121 OFFCURVE",
"329 121 CURVE SMOOTH"
);
}
);
width = 682;
}
);
leftKerningGroup = o;
leftMetricsKey = o;
rightKerningGroup = u;
rightMetricsKey = "=|n";
unicode = 0067;
userData = {
anchors = (
);
b = {
};
com.typemytype.robofont.layerData = {
b = {
anchors = (
);
components = (
);
contours = (
);
lib = {
};
name = g;
unicodes = (
);
width = 1167;
};
};
components = (
);
contours = (
);
lib = {
};
name = g;
unicodes = (
);
width = 1207;
};
},
{
color = 5;
glyphname = h;
lastChange = "2019-10-11 14:01:53 +0000";
layers = (
{
anchors = (
{
name = bottom;
position = "{325, 0}";
},
{
name = center;
position = "{325, 245}";
},
{
name = dot;
position = "{252, 353}";
},
{
name = stroke;
position = "{157, 580}";
},
{
name = top;
position = "{304, 705}";
},
{
name = topright;
position = "{195, 705}";
}
);
background = {
paths = (
{
closed = 0;
nodes = (
"153 285 LINE SMOOTH",
"153 370 OFFCURVE",
"229 453 OFFCURVE",
"335 453 CURVE SMOOTH",
"437 453 OFFCURVE",
"468 390 OFFCURVE",
"468 311 CURVE SMOOTH",
"468 0 LINE",
"520 0 LINE",
"520 315 LINE SMOOTH",
"520 438 OFFCURVE",
"460 502 OFFCURVE",
"335 502 CURVE SMOOTH",
"254 502 OFFCURVE",
"188 455 OFFCURVE",
"155 384 CURVE",
"150 384 LINE"
);
}
);
};
layerId = "B0DFB0A8-5D2F-4351-A1F8-6629D0DA694C";
paths = (
{
closed = 1;
nodes = (
"261 502 OFFCURVE",
"192 455 OFFCURVE",
"163 384 CURVE",
"158 384 LINE",
"158 705 LINE",
"106 705 LINE",
"106 0 LINE",
"158 0 LINE",
"158 285 LINE SMOOTH",
"158 370 OFFCURVE",
"236 453 OFFCURVE",
"342 453 CURVE SMOOTH",
"444 453 OFFCURVE",
"477 390 OFFCURVE",
"477 311 CURVE SMOOTH",
"477 0 LINE",
"529 0 LINE",
"529 315 LINE SMOOTH",
"529 438 OFFCURVE",
"467 502 OFFCURVE",
"342 502 CURVE SMOOTH"
);
}
);
width = 633;
},
{
anchors = (
{
name = bottom;
position = "{356, 0}";
},
{
name = center;
position = "{356, 250}";
},
{
name = dot;
position = "{420, 350}";
},
{
name = stroke;
position = "{215, 611}";
},
{
name = top;
position = "{340, 705}";
},
{
name = topright;
position = "{288, 705}";
}
);
background = {
paths = (
{
closed = 1;
nodes = (
"1077 524 OFFCURVE",
"1016 488 OFFCURVE",
"978 433 CURVE",
"970 433 LINE",
"970 705 LINE",
"762 705 LINE",
"762 0 LINE",
"987 0 LINE",
"987 266 LINE SMOOTH",
"987 311 OFFCURVE",
"1024 341 OFFCURVE",
"1068 341 CURVE SMOOTH",
"1104 341 OFFCURVE",
"1122 320 OFFCURVE",
"1122 274 CURVE SMOOTH",
"1122 0 LINE",
"1347 0 LINE",
"1347 274 LINE SMOOTH",
"1347 447 OFFCURVE",
"1277 524 OFFCURVE",
"1155 524 CURVE SMOOTH"
);
},
{
closed = 1;
nodes = (
"372 524 OFFCURVE",
"307 486 OFFCURVE",
"270 417 CURVE",
"262 417 LINE",
"262 512 LINE",
"62 512 LINE",
"62 0 LINE",
"287 0 LINE",
"287 256 LINE SMOOTH",
"287 311 OFFCURVE",
"321 341 OFFCURVE",
"363 341 CURVE SMOOTH",
"401 341 OFFCURVE",
"422 322 OFFCURVE",
"422 267 CURVE SMOOTH",
"422 0 LINE",
"647 0 LINE",
"647 274 LINE SMOOTH",
"647 447 OFFCURVE",
"572 524 OFFCURVE",
"450 524 CURVE SMOOTH"
);
}
);
};
layerId = "443F1CD3-8514-4C65-8D84-A41CDF68FD19";
paths = (
{
closed = 1;
nodes = (
"372 524 OFFCURVE",
"314 487 OFFCURVE",
"278 431 CURVE",
"270 431 LINE",
"270 705 LINE",
"62 705 LINE",
"62 0 LINE",
"287 0 LINE",
"287 256 LINE SMOOTH",
"287 311 OFFCURVE",
"321 341 OFFCURVE",
"363 341 CURVE SMOOTH",
"399 341 OFFCURVE",
"422 322 OFFCURVE",
"422 267 CURVE SMOOTH",
"422 0 LINE",
"647 0 LINE",
"647 274 LINE SMOOTH",
"647 447 OFFCURVE",
"572 524 OFFCURVE",
"450 524 CURVE SMOOTH"
);
}
);
width = 708;
},
{
anchors = (
{
name = bottom;
position = "{340, 0}";
},
{
name = center;
position = "{340, 247}";
},
{
name = dot;
position = "{332, 352}";
},
{
name = stroke;
position = "{184, 595}";
},
{
name = top;
position = "{321, 705}";
},
{
name = topright;
position = "{239, 705}";
}
);
layerId = "083469E7-71E8-468C-B15D-61E35EC0B921";
paths = (
{
closed = 1;
nodes = (
"314 512 OFFCURVE",
"250 470 OFFCURVE",
"218 406 CURVE",
"211 406 LINE",
"211 705 LINE",
"85 705 LINE",
"85 0 LINE",
"219 0 LINE",
"219 271 LINE SMOOTH",
"219 342 OFFCURVE",
"276 400 OFFCURVE",
"352 400 CURVE SMOOTH",
"423 400 OFFCURVE",
"451 358 OFFCURVE",
"451 290 CURVE SMOOTH",
"451 0 LINE",
"585 0 LINE",
"585 296 LINE SMOOTH",
"585 442 OFFCURVE",
"517 512 OFFCURVE",
"393 512 CURVE SMOOTH"
);
}
);
width = 668.54913;
}
);
leftKerningGroup = h;
leftMetricsKey = n;
rightKerningGroup = n;
rightMetricsKey = n;
unicode = 0068;
userData = {
anchors = (
);
b = {
};
com.typemytype.robofont.layerData = {
b = {
anchors = (
);
components = (
);
contours = (
);
lib = {
};
name = h;
unicodes = (
);
width = 1148;
};
};
components = (
);
contours = {
};
lib = {
};
name = h;
points = {
};
segmentType = curve;
unicodes = (
);
width = 1195;
x = 137;
y = 113;
};
},
{
color = 7;
glyphname = hbar;
lastChange = "2019-10-11 14:41:42 +0000";
layers = (
{
background = {
components = (
{
name = h;
transform = "{1, 0, 0, 1, 10, 0}";
},
{
name = strokeshortcomb;
transform = "{1, 0, 0, 1, 17, 40}";
}
);
};
layerId = "B0DFB0A8-5D2F-4351-A1F8-6629D0DA694C";
paths = (
{
closed = 1;
nodes = (
"271 494 OFFCURVE",
"202 447 OFFCURVE",
"173 376 CURVE",
"168 376 LINE",
"168 560 LINE",
"366 560 LINE",
"366 605 LINE",
"168 605 LINE",
"168 705 LINE",
"116 705 LINE",
"116 605 LINE",
"23 605 LINE",
"23 560 LINE",
"116 560 LINE",
"116 0 LINE",
"168 0 LINE",
"168 277 LINE SMOOTH",
"168 362 OFFCURVE",
"246 445 OFFCURVE",
"352 445 CURVE SMOOTH",
"454 445 OFFCURVE",
"487 382 OFFCURVE",
"487 303 CURVE SMOOTH",
"487 0 LINE",
"539 0 LINE",
"539 307 LINE SMOOTH",
"539 430 OFFCURVE",
"477 494 OFFCURVE",
"352 494 CURVE SMOOTH"
);
}
);
width = 643;
},
{
background = {
components = (
{
name = h;
transform = "{1, 0, 0, 1, 12, 0}";
},
{
name = strokeshortcomb;
transform = "{1, 0, 0, 1, 60, -15}";
}
);
};
guideLines = (
{
position = "{766, 551}";
}
);
layerId = "443F1CD3-8514-4C65-8D84-A41CDF68FD19";
leftMetricsKey = "=+10";
paths = (
{
closed = 1;
nodes = (
"384 489 OFFCURVE",
"326 452 OFFCURVE",
"290 396 CURVE",
"282 396 LINE",
"282 532 LINE",
"458 532 LINE",
"458 657 LINE",
"282 657 LINE",
"282 705 LINE",
"74 705 LINE",
"74 662 LINE",
"10 662 LINE",
"10 532 LINE",
"74 532 LINE",
"74 0 LINE",
"299 0 LINE",
"299 221 LINE SMOOTH",
"299 276 OFFCURVE",
"333 306 OFFCURVE",
"375 306 CURVE SMOOTH",
"411 306 OFFCURVE",
"434 287 OFFCURVE",
"434 232 CURVE SMOOTH",
"434 0 LINE",
"659 0 LINE",
"659 239 LINE SMOOTH",
"659 412 OFFCURVE",
"584 489 OFFCURVE",
"462 489 CURVE SMOOTH"
);
}
);
width = 720;
},
{
layerId = "083469E7-71E8-468C-B15D-61E35EC0B921";
paths = (
{
closed = 1;
nodes = (
"325 492 OFFCURVE",
"261 449 OFFCURVE",
"228 385 CURVE",
"222 385 LINE",
"222 547 LINE",
"410 547 LINE",
"410 632 LINE",
"222 632 LINE",
"222 705 LINE",
"96 705 LINE",
"96 634 LINE",
"17 634 LINE",
"17 547 LINE",
"96 547 LINE",
"96 0 LINE",
"230 0 LINE",
"230 250 LINE SMOOTH",
"230 321 OFFCURVE",
"287 379 OFFCURVE",
"363 379 CURVE SMOOTH",
"434 379 OFFCURVE",
"462 337 OFFCURVE",
"462 269 CURVE SMOOTH",
"462 0 LINE",
"596 0 LINE",
"596 275 LINE SMOOTH",
"596 421 OFFCURVE",
"528 492 OFFCURVE",
"404 492 CURVE SMOOTH"
);
}
);
width = 679.49711;
}
);
leftKerningGroup = h;
rightKerningGroup = n;
unicode = 0127;
},
{
color = 5;
glyphname = idotless;
lastChange = "2019-10-11 14:01:53 +0000";
layers = (
{
anchors = (
{
name = bottom;
position = "{130, 0}";
},
{
name = ogonek;
position = "{158, 0}";
},
{
name = top;
position = "{130, 484}";
}
);
background = {
anchors = (
{
name = bottom;
position = "{109, 0}";
},
{
name = ogonek;
position = "{130, 0}";
},
{
name = top;
position = "{109, 484}";
}
);
paths = (
{
closed = 1;
nodes = (
"130 0 LINE",
"130 484 LINE",
"88 484 LINE",
"88 0 LINE"
);
}
);
};
layerId = "B0DFB0A8-5D2F-4351-A1F8-6629D0DA694C";
paths = (
{
closed = 1;
nodes = (
"158 0 LINE",
"158 494 LINE",
"106 494 LINE",
"106 0 LINE"
);
}
);
width = 264;
},
{
anchors = (
{
name = bottom;
position = "{174, 0}";
},
{
name = ogonek;
position = "{235, 0}";
},
{
name = top;
position = "{174, 484}";
}
);
layerId = "443F1CD3-8514-4C65-8D84-A41CDF68FD19";
paths = (
{
closed = 1;
nodes = (
"287 0 LINE",
"287 512 LINE",
"62 512 LINE",
"62 0 LINE"
);
}
);
width = 349;
},
{
anchors = (
{
name = bottom;
position = "{151, 0}";
},
{
name = ogonek;
position = "{194, 0}";
},
{
name = top;
position = "{151, 484}";
}
);
layerId = "083469E7-71E8-468C-B15D-61E35EC0B921";
paths = (
{
closed = 1;
nodes = (
"219 0 LINE",
"219 503 LINE",
"85 503 LINE",
"85 0 LINE"
);
}
);
width = 304.28902;
}
);
leftKerningGroup = n;
leftMetricsKey = n;
rightKerningGroup = u;
rightMetricsKey = "=|";
unicode = 0131;
},
{
color = 5;
glyphname = jdotless;
lastChange = "2019-10-11 14:41:42 +0000";
layers = (
{
anchors = (
{
name = bottom;
position = "{119, 0}";
},
{
name = top;
position = "{119, 484}";
}
);
background = {
anchors = (
{
name = bottom;
position = "{109, 0}";
},
{
name = top;
position = "{109, 484}";
}
);
paths = (
{
closed = 1;
nodes = (
"88 484 LINE",
"88 -22 LINE SMOOTH",
"88 -102 OFFCURVE",
"51 -147 OFFCURVE",
"-17 -152 CURVE SMOOTH",
"-58 -155 LINE",
"-55 -193 LINE",
"-12 -190 LINE SMOOTH",
"78 -184 OFFCURVE",
"130 -124 OFFCURVE",
"130 -21 CURVE SMOOTH",
"130 484 LINE"
);
}
);
};
layerId = "B0DFB0A8-5D2F-4351-A1F8-6629D0DA694C";
paths = (
{
closed = 1;
nodes = (
"93 494 LINE",
"93 -22 LINE SMOOTH",
"93 -100 OFFCURVE",
"54 -130 OFFCURVE",
"-12 -138 CURVE SMOOTH",
"-63 -144 LINE",
"-60 -193 LINE",
"-7 -187 LINE SMOOTH",
"88 -176 OFFCURVE",
"145 -124 OFFCURVE",
"145 -21 CURVE SMOOTH",
"145 494 LINE"
);
}
);
width = 235;
},
{
anchors = (
{
name = bottom;
position = "{168, 0}";
},
{
name = top;
position = "{168, 484}";
}
);
background = {
paths = (
{
closed = 1;
nodes = (
"50 494 LINE",
"50 8 LINE SMOOTH",
"50 -24 OFFCURVE",
"37 -38 OFFCURVE",
"1 -42 CURVE SMOOTH",
"-49 -48 LINE",
"-35 -193 LINE",
"9 -190 LINE SMOOTH",
"199 -177 OFFCURVE",
"258 -120 OFFCURVE",
"258 39 CURVE SMOOTH",
"258 494 LINE"
);
}
);
};
layerId = "443F1CD3-8514-4C65-8D84-A41CDF68FD19";
paths = (
{
closed = 1;
nodes = (
"56 512 LINE",
"56 48 LINE SMOOTH",
"56 0 OFFCURVE",
"36 -25 OFFCURVE",
"0 -30 CURVE SMOOTH",
"-47 -36 LINE",
"-29 -193 LINE",
"32 -187 LINE SMOOTH",
"239 -167 OFFCURVE",
"281 -96 OFFCURVE",
"281 49 CURVE SMOOTH",
"281 512 LINE"
);
}
);
width = 332;
},
{
anchors = (
{
name = bottom;
position = "{142, 0}";
},
{
name = top;
position = "{142, 484}";
}
);
layerId = "083469E7-71E8-468C-B15D-61E35EC0B921";
paths = (
{
closed = 1;
nodes = (
"75 503 LINE",
"75 21 LINE SMOOTH",
"75 -43 OFFCURVE",
"45 -71 OFFCURVE",
"-6 -77 CURVE SMOOTH",
"-59 -83 LINE",
"-45 -193 LINE",
"11 -187 LINE SMOOTH",
"160 -172 OFFCURVE",
"209 -111 OFFCURVE",
"209 12 CURVE SMOOTH",
"209 503 LINE"
);
}
);
width = 280.97688;
}
);
leftKerningGroup = j;
rightKerningGroup = l;
unicode = 0237;
},
{
color = 5;
glyphname = k;
lastChange = "2019-10-11 14:01:53 +0000";
layers = (
{
anchors = (
{
name = bottom;
position = "{260, 0}";
},
{
name = top;
position = "{260, 705}";
}
);
background = {
paths = (
{
closed = 1;
nodes = (
"174 270 LINE",
"174 231 LINE",
"460 484 LINE",
"401 484 LINE",
"148 258 LINE",
"148 705 LINE",
"106 705 LINE",
"106 0 LINE",
"148 0 LINE",
"148 239 LINE",
"429 0 LINE",
"490 0 LINE"
);
}
);
};
layerId = "B0DFB0A8-5D2F-4351-A1F8-6629D0DA694C";
paths = (
{
closed = 1;
nodes = (
"198 271 LINE",
"197 240 LINE",
"485 494 LINE",
"414 494 LINE",
"162 269 LINE",
"158 269 LINE",
"158 705 LINE",
"106 705 LINE",
"106 0 LINE",
"158 0 LINE",
"158 238 LINE",
"162 238 LINE",
"443 0 LINE",
"517 0 LINE"
);
}
);
width = 527;
},
{
anchors = (
{
name = bottom;
position = "{350, 0}";
},
{
name = top;
position = "{357, 705}";
}
);
background = {
anchors = (
{
name = bottom;
position = "{314, 0}";
},
{
name = top;
position = "{314, 705}";
}
);
paths = (
{
closed = 1;
nodes = (
"448 295 LINE",
"436 211 LINE",
"651 493 LINE",
"407 493 LINE",
"264 299 LINE",
"264 705 LINE",
"56 705 LINE",
"56 0 LINE",
"264 0 LINE",
"264 201 LINE",
"404 0 LINE",
"653 0 LINE"
);
}
);
};
layerId = "443F1CD3-8514-4C65-8D84-A41CDF68FD19";
paths = (
{
closed = 1;
nodes = (
"478 287 LINE",
"470 229 LINE",
"657 512 LINE",
"413 512 LINE",
"295 299 LINE",
"287 299 LINE",
"287 705 LINE",
"62 705 LINE",
"62 0 LINE",
"287 0 LINE",
"287 201 LINE",
"295 201 LINE",
"417 0 LINE",
"666 0 LINE"
);
}
);
width = 648;
},
{
anchors = (
{
name = bottom;
position = "{303, 0}";
},
{
name = top;
position = "{306, 705}";
}
);
layerId = "083469E7-71E8-468C-B15D-61E35EC0B921";
paths = (
{
closed = 1;
nodes = (
"331 279 LINE",
"326 235 LINE",
"567 503 LINE",
"414 503 LINE",
"225 283 LINE",
"219 283 LINE",
"219 705 LINE",
"85 705 LINE",
"85 0 LINE",
"219 0 LINE",
"219 220 LINE",
"225 220 LINE",
"431 0 LINE",
"588 0 LINE"
);
}
);
width = 584.3526;
}
);
leftKerningGroup = h;
leftMetricsKey = l;
rightKerningGroup = k;
unicode = 006B;
userData = {
com.typemytype.robofont.layerData = {
b = {
anchors = (
);
components = (
);
contours = (
{
points = (
{
segmentType = line;
smooth = 0;
x = 318;
y = 536;
},
{
segmentType = line;
smooth = 1;
x = 793;
y = 27;
},
{
smooth = 0;
x = 809;
y = 9;
},
{
smooth = 0;
x = 828;
y = 1;
},
{
segmentType = curve;
smooth = 1;
x = 845;
y = 1;
},
{
smooth = 0;
x = 883;
y = 1;
},
{
smooth = 0;
x = 922;
y = 33;
},
{
segmentType = curve;
smooth = 1;
x = 922;
y = 71;
},
{
smooth = 0;
x = 922;
y = 84;
},
{
smooth = 0;
x = 918;
y = 99;
},
{
segmentType = curve;
smooth = 1;
x = 906;
y = 112;
},
{
segmentType = line;
smooth = 0;
x = 492;
y = 554;
},
{
segmentType = line;
smooth = 1;
x = 873;
y = 889;
},
{
smooth = 0;
x = 888;
y = 902;
},
{
smooth = 0;
x = 894;
y = 918;
},
{
segmentType = curve;
smooth = 1;
x = 894;
y = 933;
},
{
smooth = 0;
x = 894;
y = 968;
},
{
smooth = 0;
x = 858;
y = 1002;
},
{
segmentType = curve;
smooth = 1;
x = 821;
y = 1002;
},
{
smooth = 0;
x = 802;
y = 1002;
},
{
smooth = 0;
x = 785;
y = 994;
},
{
segmentType = curve;
smooth = 0;
x = 770;
y = 979;
},
{
segmentType = line;
smooth = 0;
x = 318;
y = 574;
}
);
}
);
lib = {
};
name = k;
unicodes = (
);
width = 984;
};
};
};
},
{
color = 5;
glyphname = kgreenlandic;
lastChange = "2019-10-11 14:01:53 +0000";
layers = (
{
anchors = (
{
name = bottom;
position = "{287, 0}";
},
{
name = top;
position = "{287, 484}";
}
);
background = {
anchors = (
{
name = bottom;
position = "{282, 0}";
},
{
name = top;
position = "{282, 484}";
}
);
paths = (
{
closed = 1;
nodes = (
"201 270 LINE",
"201 231 LINE",
"487 484 LINE",
"428 484 LINE",
"175 258 LINE",
"175 484 LINE",
"133 484 LINE",
"133 0 LINE",
"175 0 LINE",
"175 239 LINE",
"456 0 LINE",
"517 0 LINE"
);
}
);
};
layerId = "B0DFB0A8-5D2F-4351-A1F8-6629D0DA694C";
paths = (
{
closed = 1;
nodes = (
"198 271 LINE",
"197 240 LINE",
"485 494 LINE",
"414 494 LINE",
"162 269 LINE",
"158 269 LINE",
"158 494 LINE",
"106 494 LINE",
"106 0 LINE",
"158 0 LINE",
"158 238 LINE",
"162 238 LINE",
"443 0 LINE",
"517 0 LINE"
);
}
);
width = 527;
},
{
anchors = (
{
name = bottom;
position = "{331, 0}";
},
{
name = top;
position = "{338, 484}";
}
);
background = {
anchors = (
{
name = bottom;
position = "{302, 0}";
},
{
name = top;
position = "{302, 484}";
}
);
paths = (
{
closed = 1;
nodes = (
"436 295 LINE",
"424 211 LINE",
"639 493 LINE",
"395 493 LINE",
"252 299 LINE",
"252 494 LINE",
"44 494 LINE",
"44 0 LINE",
"252 0 LINE",
"252 201 LINE",
"392 0 LINE",
"641 0 LINE"
);
}
);
};
layerId = "443F1CD3-8514-4C65-8D84-A41CDF68FD19";
paths = (
{
closed = 1;
nodes = (
"478 287 LINE",
"470 229 LINE",
"657 512 LINE",
"413 512 LINE",
"295 299 LINE",
"287 299 LINE",
"287 512 LINE",
"62 512 LINE",
"62 0 LINE",
"287 0 LINE",
"287 201 LINE",
"295 201 LINE",
"417 0 LINE",
"666 0 LINE"
);
}
);
width = 648;
},
{
anchors = (
{
name = bottom;
position = "{308, 0}";
},
{
name = top;
position = "{311, 484}";
}
);
layerId = "083469E7-71E8-468C-B15D-61E35EC0B921";
paths = (
{
closed = 1;
nodes = (
"331 279 LINE",
"326 235 LINE",
"567 503 LINE",
"414 503 LINE",
"225 283 LINE",
"219 283 LINE",
"219 503 LINE",
"85 503 LINE",
"85 0 LINE",
"219 0 LINE",
"219 220 LINE",
"225 220 LINE",
"431 0 LINE",
"588 0 LINE"
);
}
);
width = 584.3526;
}
);
leftKerningGroup = n;
leftMetricsKey = n;
rightKerningGroup = k;
rightMetricsKey = k;
unicode = 0138;
userData = {
com.typemytype.robofont.layerData = {
b = {
anchors = (
);
components = (
);
contours = (
);
lib = {
};
name = kgreenlandic;
unicodes = (
);
width = 1047;
};
};
};
},
{
color = 5;
glyphname = l;
lastChange = "2019-10-11 14:41:42 +0000";
layers = (
{
anchors = (
{
name = bottom;
position = "{199, 2}";
},
{
name = center;
position = "{135, 357}";
},
{
name = dot;
position = "{283, 353}";
},
{
name = top;
position = "{132, 705}";
},
{
name = topright;
position = "{208, 705}";
}
);
background = {
paths = (
{
closed = 1;
nodes = (
"153 0 LINE",
"153 705 LINE",
"101 705 LINE",
"101 0 LINE"
);
}
);
};
layerId = "B0DFB0A8-5D2F-4351-A1F8-6629D0DA694C";
paths = (
{
closed = 1;
nodes = (
"260 -8 OFFCURVE",
"281 -5 OFFCURVE",
"299 1 CURVE",
"301 49 LINE",
"280 43 OFFCURVE",
"259 41 OFFCURVE",
"239 41 CURVE SMOOTH",
"191 41 OFFCURVE",
"158 79 OFFCURVE",
"158 140 CURVE SMOOTH",
"158 705 LINE",
"106 705 LINE",
"106 131 LINE SMOOTH",
"106 45 OFFCURVE",
"156 -8 OFFCURVE",
"234 -8 CURVE SMOOTH"
);
}
);
width = 314;
},
{
anchors = (
{
name = bottom;
position = "{245, 0}";
},
{
name = center;
position = "{178, 357}";
},
{
name = dot;
position = "{469, 350}";
},
{
name = top;
position = "{175, 705}";
},
{
name = topright;
position = "{337, 705}";
}
);
background = {
paths = (
{
closed = 1;
nodes = (
"287 705 LINE",
"62 705 LINE",
"62 193 LINE SMOOTH",
"62 64 OFFCURVE",
"133 -12 OFFCURVE",
"277 -12 CURVE SMOOTH",
"318 -12 OFFCURVE",
"389 -3 OFFCURVE",
"411 7 CURVE",
"388 174 LINE",
"375 168 OFFCURVE",
"355 164 OFFCURVE",
"340 164 CURVE SMOOTH",
"300 164 OFFCURVE",
"287 189 OFFCURVE",
"287 227 CURVE SMOOTH"
);
}
);
};
layerId = "443F1CD3-8514-4C65-8D84-A41CDF68FD19";
paths = (
{
closed = 1;
nodes = (
"335 -12 OFFCURVE",
"364 -7 OFFCURVE",
"411 11 CURVE",
"387 159 LINE",
"366 154 OFFCURVE",
"353 152 OFFCURVE",
"330 152 CURVE SMOOTH",
"297 152 OFFCURVE",
"287 169 OFFCURVE",
"287 207 CURVE SMOOTH",
"287 705 LINE",
"62 705 LINE",
"62 193 LINE SMOOTH",
"62 60 OFFCURVE",
"136 -12 OFFCURVE",
"282 -12 CURVE SMOOTH"
);
}
);
width = 411;
},
{
anchors = (
{
name = bottom;
position = "{221, 1}";
},
{
name = center;
position = "{155, 357}";
},
{
name = dot;
position = "{371, 352}";
},
{
name = top;
position = "{152, 705}";
},
{
name = topright;
position = "{269, 705}";
}
);
background = {
paths = (
{
closed = 1;
nodes = (
"296 -10 OFFCURVE",
"320 -6 OFFCURVE",
"352 6 CURVE",
"342 101 LINE",
"321 96 OFFCURVE",
"304 94 OFFCURVE",
"282 94 CURVE SMOOTH",
"241 94 OFFCURVE",
"219 122 OFFCURVE",
"219 172 CURVE SMOOTH",
"219 705 LINE",
"85 705 LINE",
"85 160 LINE SMOOTH",
"85 52 OFFCURVE",
"147 -10 OFFCURVE",
"257 -10 CURVE SMOOTH"
);
}
);
};
layerId = "083469E7-71E8-468C-B15D-61E35EC0B921";
paths = (
{
closed = 1;
nodes = (
"296 -10 OFFCURVE",
"320 -6 OFFCURVE",
"352 6 CURVE",
"340 111 LINE",
"319 106 OFFCURVE",
"304 104 OFFCURVE",
"282 104 CURVE SMOOTH",
"241 104 OFFCURVE",
"219 132 OFFCURVE",
"219 182 CURVE SMOOTH",
"219 705 LINE",
"85 705 LINE",
"85 160 LINE SMOOTH",
"85 52 OFFCURVE",
"147 -10 OFFCURVE",
"257 -10 CURVE SMOOTH"
);
}
);
width = 359.97688;
}
);
leftKerningGroup = h;
rightKerningGroup = l;
unicode = 006C;
userData = {
com.typemytype.robofont.layerData = {
b = {
anchors = (
);
components = (
);
contours = (
);
lib = {
};
name = l;
unicodes = (
);
width = 511;
};
};
};
},
